<svg xmlns="http://www.w3.org/2000/svg" xmlns:xlink="http://www.w3.org/1999/xlink" preserveAspectRatio="xMidYMid" version="1.0" viewBox="0 0 198.33 39.369" zoomAndPan="magnify">
  <defs>
    <clipPath id="b">
      <path d="M-158.93 22.72h595.28v-841.89h-595.28Z"/>
    </clipPath>
    <clipPath id="c">
      <use xlink:href="#a"/>
    </clipPath>
    <clipPath id="d">
      <path d="M181.555 51.193h17.376v11.555h-17.376z"/>
    </clipPath>
    <clipPath id="e">
      <path d="M-12.55-8.66H.482V.006H-12.55z"/>
    </clipPath>
    <clipPath id="f">
      <path d="M-146.39 21.94h595.28v-841.89h-595.28Z"/>
    </clipPath>
    <clipPath id="g">
      <use xlink:href="#a"/>
    </clipPath>
    <clipPath id="h">
      <path d="M44.072 29.26h86.046v52.491H44.072z"/>
    </clipPath>
    <clipPath id="i">
      <path d="M-64.536-39.37H0V-.001h-64.536z"/>
    </clipPath>
    <clipPath id="j">
      <path d="M-115.08 21.94H480.2v-841.89h-595.28Z"/>
    </clipPath>
    <clipPath id="k">
      <use xlink:href="#a"/>
    </clipPath>
    <clipPath id="l">
      <path d="M263.727 29.26h44.787v36.013h-44.787z"/>
    </clipPath>
    <clipPath id="m">
      <path d="M-33.03-27.01H.56V0h-33.59z"/>
    </clipPath>
    <clipPath id="n">
      <path d="M-19.48 27.01h33.591V0H-19.48z"/>
    </clipPath>
    <clipPath id="o">
      <path d="M-191.39 21.94h595.28v-841.89h-595.28Z"/>
    </clipPath>
    <path id="a" d="M0 .008h793.687V1122.5H0Z"/>
  </defs>
  <path fill="#5e2260" d="m0 0-16.683-37.827a.542.542 0 0 1 .496-.761H1.304c.521 0 .992.307 1.202.783L19.178-.004a.56.56 0 0 1-.512.785H1.198C.679.781.209.475 0 0" clip-path="url(#b)" transform="matrix(1 0 0 -1 125.885 .778)"/>
  <g clip-path="url(#c)" opacity=".6" transform="matrix(.75 0 0 .75 -33.047 -21.94)">
    <g clip-path="url(#d)">
      <path fill="#5e2260" d="M0 0h-8.726l-3.822-8.666L.25-.895C.667-.642.488 0 0 0" clip-path="url(#e)" transform="matrix(1.3333 0 0 -1.3333 198.29 51.181)"/>
    </g>
  </g>
  <path fill="#5e2260" d="M0 0h-17.469c-.521 0-.992-.308-1.203-.784l-16.671-37.8a.56.56 0 0 1 .511-.785h17.463c.523 0 .995.308 1.205.786L.509-.782A.557.557 0 0 1 0 0" clip-path="url(#f)" transform="matrix(1 0 0 -1 113.345 -.002)"/>
  <g clip-path="url(#g)" opacity=".6" transform="matrix(.75 0 0 .75 -33.047 -21.94)">
    <g clip-path="url(#h)">
      <path fill="#edc51c" d="m0 0-.005.001c-.821 0-2.12-.786-2.12-.786l-62.211-37.813c-.359-.218-.204-.77.216-.77h22.63c.976 0 1.935.268 2.769.775l28.518 17.332 9.041 20.5C-.958-.3-.503-.003 0 0" clip-path="url(#i)" transform="matrix(1.3333 0 0 -1.3333 130.12 29.251)"/>
    </g>
  </g>
  <path fill="#edc51c" d="M0 0h-17.486l-.006-.001a1.28 1.28 0 0 1-1.162-.761L-35.339-38.59a.556.556 0 0 1 .508-.779h17.489c.51 0 .972.301 1.178.768L-1.492-5.336.514-.789A.562.562 0 0 1 0 0" clip-path="url(#j)" transform="matrix(1 0 0 -1 82.033 -.002)"/>
  <g clip-path="url(#k)" opacity=".6" transform="matrix(.75 0 0 .75 -33.047 -21.94)">
    <g clip-path="url(#l)">
      <path fill="#5e2260" d="M0 0h-21.118l-4.658-10.562h21.118c.522 0 .994.308 1.205.786L.512-.786A.56.56 0 0 1 0 0" clip-path="url(#m)" transform="matrix(1.3333 0 0 -1.3333 307.77 29.249)"/>
    </g>
    <path fill="#5e2260" d="M0 0c.52 0 .992.307 1.202.783L5.17 9.781a.555.555 0 0 1-.508.78h-19.48L-19.477 0z" clip-path="url(#n)" transform="matrix(1.3333 0 0 -1.3333 289.7 65.263)"/>
  </g>
  <path fill="#5e2260" d="M0 0c-.521 0-.992-.307-1.202-.784l-16.673-37.802a.558.558 0 0 1 .51-.783H.119c.511 0 .974.302 1.18.769L18.323 0z" clip-path="url(#o)" transform="matrix(1 0 0 -1 158.337 -.002)"/>
</svg>
