<svg xmlns="http://www.w3.org/2000/svg" xml:space="preserve" version="1.1" viewBox="0 0 528.86 385.3">
  <g stroke-width=".662">
    <path d="M274.016 280.205c9.036-5.846 44.824-23.77 47.53-23.805a1.577 1.577 0 0 0 1.542-1.554c0-.844 1.801-2.595 3.99-3.889 16.789-9.918 34.645-19.358 51.607-27.276 56.754-26.51 83.595-40.463 99.735-51.849 13.139-9.274 26.521-21.427 34.306-31.154 9.303-11.626 18.194-27.958 15.71-28.857-.86-.31-2.518-2.312-3.683-4.446-1.882-3.44-2.08-7.305-1.74-33.978.51-39.973-1.575-50.177-12.795-62.597-5.643-6.247-20.131-13.27-20.131-9.759 0 .812 2.54 6.79 5.643 13.285 3.103 6.493 6.394 13.879 7.314 16.413 1.725 4.752.615 6.098-2.164 2.624-5.544-6.928-8.363-9.074-11.927-9.074-2.08 0-3.779.287-3.779.641 0 .35 1.384 2.827 3.072 5.501 11.266 17.85 12.234 44.305 2.464 67.514-7.162 17.022-21.67 37.679-38.873 55.35-8.902 9.146-28.692 26.949-29.953 26.949-1.096 0 1.633-4.397 3.871-6.241 1.164-.957 3.68-3.895 5.591-6.528 3.953-5.443 3.1-8.108-2.595-8.108-4.17 0-6.417 2.456-16.31 17.837-9.618 14.957-14.023 19.003-20.688 19.003-2.65 0-4.816-.29-4.816-.645 0-.353 3.799-7.951 8.444-16.883 9.785-18.823 12.357-27.81 10.103-35.329-1.429-4.775-7.913-13.49-9.094-12.225-.315.336-3.114 8.247-6.22 17.576-9.566 28.75-18.62 45.526-31.054 57.558-10.597 10.248-24.693 15.009-36.647 12.377l-4.912-1.082-11.46 12.017c-9.388 9.848-13.195 12.887-21.063 16.825-5.825 2.918-13.017 5.383-18.283 6.273l-8.683 1.465-13.89-8.622c-15.846-9.831-24.363-16.894-28.745-23.835-2.65-4.199-3.462-4.712-6.334-4.004-1.809.446-4.822 2.27-6.695 4.054-3.094 2.94-3.762 3.105-7.25 1.789-14.021-5.292-30.057-19.744-39.296-35.411-3.161-5.36-10.298-20.233-15.858-33.057-5.561-12.82-10.338-23.58-10.61-23.907-1.169-1.398-5.26 5.997-6.444 11.648-1.737 8.271.606 16.942 9.242 34.208 4.67 9.332 6.696 14.836 6.696 18.164v4.777l-4.72-2.407c-6.077-3.1-11.54-9.379-16.2-18.606-4.622-9.158-11.402-16.06-17.666-17.982-8.48-2.601-9.234.804-1.938 8.72 5.2 5.637 5.977 8.167 3.222 10.455-1.363 1.127-5.274-2.857-20.053-20.419-30.19-35.887-40.285-50.707-47.37-69.552-3.305-8.795-3.758-11.521-3.772-22.88-.023-14.737 1.372-19.522 9.03-30.989 2.703-4.048 4.912-7.839 4.912-8.422 0-.585-1.394-1.415-3.103-1.844-2.22-.56-4.497.145-8.023 2.48-8.335 5.515-9.518 2.247-3.066-8.468 5.435-9.025 6.397-13.366 3.837-17.275-2.601-3.97-3.759-3.825-9.926 1.23C8.153 17.002 2.872 38.189 5.328 79.09c1.38 22.98.864 28.752-2.877 32.241l-2.47 2.3 3.068 7.552c7.429 18.284 24.093 36.664 46.813 51.64 14.306 9.43 39.126 22.303 68.76 35.663 40.491 18.258 63.668 31.034 76.025 41.912 4.726 4.158 8.769 6.15 20.2 9.949 17.037 5.66 31.032 12.27 41.924 19.798 4.39 3.033 8.102 5.56 8.25 5.612.148.051 4.197-2.448 8.996-5.554zm-2.229 97.194c6.525-6.528 1.954-17.863-7.201-17.863-9.265 0-14.134 11.376-7.647 17.863 4.1 4.1 10.744 4.1 14.848 0"/>
    <path d="M167.734 381.282c4.73-1.71 28.651-10.425 53.161-19.368l44.565-16.255 19.902 7.096c10.95 3.903 34.825 12.586 53.06 19.294 43.191 15.888 50.099 16.657 59.48 6.614 2.265-2.421 3.118-4.93 3.507-10.285.472-6.52.217-7.401-3.179-11.038-3.999-4.28-8.108-5.042-11.97-2.218-2.326 1.7-2.32 1.818.333 7.046 2.326 4.577 2.473 5.661 1.07 7.787-2.549 3.863-6.087 3.602-17.003-1.253-5.573-2.48-27.265-10.234-48.2-17.23-20.937-6.999-37.733-12.746-37.32-12.769.409-.026 22.438-7.482 48.956-16.57 26.517-9.085 51.297-17.159 55.067-17.94 3.77-.784 8.122-2.002 9.677-2.713 3.407-1.55 3.706-5.677.675-9.404l-2.148-2.645-6.94 3.764c-3.987 2.164-31.995 11.54-65.845 22.043l-58.907 18.281-29.323-9.14c-16.127-5.026-42.861-13.311-59.408-18.41s-32.954-10.868-36.464-12.823l-6.379-3.555-2.523 3.21c-4.99 6.342-3.204 8.077 12.397 12.012 6.313 1.592 32.142 9.964 57.398 18.6l45.914 15.707-11.533 3.517c-19.925 6.078-63.867 21.317-75.308 26.118-8.671 3.636-11.629 4.37-14.108 3.496-4.02-1.412-4.637-4.787-1.833-9.998 2.68-4.976 1.363-8.042-3.712-8.645-6.51-.772-12.516 7.943-11.19 16.243 1.052 6.594 3.375 9.961 8.98 13.017 6.046 3.298 17.37 2.683 29.15-1.583z"/>
    <text xml:space="preserve" x="404.53" y="-400.878" fill="#000" stroke-width=".342" font-size="6.194" transform="translate(-326.33 895.954)scale(1.4382)"><tspan x="404.53" y="-400.878" fill="#000" stroke-width=".342" font-family="Roboto" font-size="24.904" font-weight="700">A</tspan></text>
    <text xml:space="preserve" x="332.055" y="-379.149" fill="#000" stroke-width=".342" font-size="6.194" transform="translate(-326.33 895.954)scale(1.4382)"><tspan x="332.055 477.767" y="-379.149" fill="#000" stroke-width=".342" font-family="Roboto" font-size="24.904" font-weight="700">HC</tspan></text>
  </g>
</svg>
