<svg xmlns="http://www.w3.org/2000/svg" version="1.1" viewBox="0 0 1000 550">
  <path fill="#33bdf2" stroke="#ed1c24" stroke-width="11.304" d="M989.268 396.799c0 27.368-36.305 58.52-68.125 58.52h-554.48c-31.907 0-68.17-31.152-68.17-58.52V312.55c0-27.38 36.263-58.557 68.17-58.557h554.48c31.82 0 68.125 31.177 68.125 58.557z"/>
  <path fill="#ed1c24" stroke="#231f20" stroke-width="11.304" d="M433.657 427.021c5.48 51.242-47.116 98.674-117.482 105.892-70.35 7.257-131.8-28.386-137.289-79.596-5.45-51.294 47.146-98.748 117.5-105.936 70.34-7.285 131.807 28.427 137.27 79.64"/>
  <path fill="#0e88d3" d="M472.737 322.23c-1.332 0-2.481.288-3.444.829-1.017.635-1.506 1.367-1.456 2.19a632 632 0 0 1 1.434 42.509c0 5.625-.06 9.275-.159 10.893-1.325 0-2.375.955-3.164 2.87-.625 1.427-.94 3.017-1.044 4.702.253 3.41 1.332 5.313 3.273 5.692 0 .993.727 1.876 2.223 2.665 1.273.697 2.431 1.04 3.429 1.04 2.186 0 3.367-.886 3.546-2.596 1.18.06 2.898.097 5.198.097 10.24 0 18.763-2.89 25.616-8.704 6.66-5.65 9.984-12.523 9.984-20.577 0-4.749-1.044-9.091-3.156-13.034-.548-.982-1.412-1.92-2.608-2.84-3.079-1.944-5.401-3.333-7.011-4.187 4.759-5.538 7.143-10.475 7.143-14.837 0-7.63-3.499-13.29-10.523-16.945-5.761-3.012-12.52-4.535-20.25-4.535-4.148 0-8.835.36-14.036 1.099-1.5.21-2.38 1.985-2.63 5.324.25 3.34 1.338 4.98 3.25 4.98l5.76-.424c3.714-.303 6.925-.432 9.657-.432 10.659 0 16.874 3.23 18.601 9.652 0 3.715-2.238 8.012-6.741 12.908-3.407-.31-6.982-.472-10.704-.472-.744 0-1.935.047-3.516.144-1.56.055-2.742.082-3.518.082 0-6.692-.184-11.664-.598-14.855 0-2.154-1.529-3.238-4.556-3.238m5.819 28.358c3.173 1.206 6.565 1.913 10.21 2.186 3.382-.31 5.746-.812 7.15-1.397.11.04 1.187.444 3.249 1.183 4.58 1.658 7.148 3.206 7.711 4.675.837 2.196 1.241 4.325 1.241 6.354 0 3.79-1.521 7.02-4.57 9.705-2.802 2.518-6.355 4.483-10.588 5.972-4.01 1.367-7.915 2.074-11.758 2.074-1.643-.28-2.653-.446-3.087-.446.305-13.439.461-23.562.442-30.306"/>
  <path fill="none" stroke="#fff" stroke-width="17.393" d="M472.715 322.216c-1.332 0-2.481.288-3.444.828-1.017.636-1.506 1.368-1.456 2.191a632 632 0 0 1 1.434 42.508c0 5.625-.06 9.275-.159 10.893-1.325 0-2.374.955-3.163 2.87-.626 1.427-.94 3.017-1.045 4.702.253 3.41 1.332 5.312 3.273 5.692 0 .992.727 1.876 2.223 2.665 1.273.697 2.431 1.04 3.429 1.04 2.186 0 3.367-.887 3.545-2.596 1.181.06 2.898.097 5.198.097 10.24 0 18.763-2.89 25.616-8.704 6.66-5.65 9.984-12.523 9.984-20.577 0-4.749-1.044-9.091-3.156-13.033-.548-.983-1.412-1.92-2.607-2.841-3.08-1.943-5.402-3.332-7.012-4.186 4.759-5.538 7.143-10.475 7.143-14.837 0-7.63-3.498-13.29-10.522-16.944-5.762-3.012-12.52-4.535-20.249-4.535-4.148 0-8.835.36-14.035 1.099q-2.254.315-2.63 5.324c.25 3.34 1.337 4.98 3.25 4.98l5.759-.424c3.714-.303 6.925-.432 9.657-.432 10.66 0 16.875 3.23 18.6 9.652 0 3.714-2.237 8.012-6.74 12.907a118 118 0 0 0-10.705-.472c-.744 0-1.935.047-3.515.144a109 109 0 0 1-3.519.082c0-6.692-.183-11.664-.598-14.855 0-2.153-1.528-3.238-4.555-3.238zm5.818 28.357c3.174 1.206 6.566 1.913 10.21 2.186 3.382-.31 5.747-.811 7.151-1.397.11.04 1.186.444 3.248 1.184 4.58 1.657 7.148 3.206 7.711 4.674.836 2.196 1.24 4.325 1.24 6.355 0 3.788-1.52 7.019-4.57 9.704-2.8 2.518-6.354 4.484-10.586 5.972-4.01 1.367-7.915 2.074-11.759 2.074-1.643-.28-2.652-.446-3.087-.446.306-13.439.462-23.561.442-30.306z"/>
  <path fill="#0e88d3" d="M532.958 348.356c.104 8.567 2.409 16.36 6.94 23.333 5.344 8.282 13.425 13.375 24.253 15.353 1.734.33 4.173.61 7.327.886 12.718-.134 22.573-5.814 29.566-17.029 3.126-4.982 5.24-10.12 6.376-15.413 1.114-5.307 1.677-10.786 1.677-16.52 0-12.274-3.108-22.461-9.312-30.51-5.55-7.168-13.076-10.751-22.537-10.751q-10.176-.002-16.251 5.922c-6.583 2.794-12.275 7.116-17.083 12.902-5.778 6.995-9.295 15.937-10.55 26.787q.001.75-.407 5.04m23.395-28.819c.692.692 1.883 1.144 3.565 1.335 1.529-.27 2.6-.643 3.14-1.11.56-.361 1.404-1.376 2.483-2.989 1.084-1.63 1.97-2.652 2.732-3.159 1.739-.52 3.91-.789 6.478-.789.692 0 1.714.03 3.089.097 1.372.07 2.414.102 3.094.102 1.583 0 3.02-.58 4.367-1.754 4.233 2.248 7.488 6.012 9.749 11.324 1.972 4.62 2.945 9.793 2.945 15.478a56.7 56.7 0 0 1-1.414 12.495c-1.415 6.032-3.467 10.855-6.236 14.438-5.044 6.56-11.776 9.918-20.204 10.136-2.555-.238-4.63-.539-6.284-.898-2.933-.628-5.568-1.807-7.987-3.457-2.471-1.741-4.615-3.855-6.469-6.359-3.922-5.364-5.907-11.118-5.947-17.2-.067-11.807 4.24-21.037 12.9-27.69"/>
  <path fill="none" stroke="#fff" stroke-width="17.393" d="M532.958 348.356c.104 8.567 2.409 16.36 6.94 23.333 5.344 8.282 13.425 13.375 24.253 15.353 1.734.33 4.173.61 7.327.886 12.718-.134 22.573-5.814 29.566-17.029 3.126-4.982 5.24-10.12 6.376-15.413 1.114-5.307 1.677-10.786 1.677-16.52 0-12.274-3.108-22.461-9.312-30.51-5.55-7.168-13.076-10.751-22.537-10.751q-10.176-.002-16.251 5.922c-6.583 2.794-12.275 7.116-17.083 12.902-5.778 6.995-9.295 15.937-10.55 26.787q.001.75-.407 5.04zm23.395-28.819c.692.692 1.883 1.144 3.565 1.335 1.528-.27 2.6-.643 3.139-1.11.56-.361 1.404-1.376 2.483-2.989 1.085-1.63 1.97-2.652 2.732-3.158 1.74-.521 3.91-.79 6.479-.79.692 0 1.714.03 3.089.097 1.372.07 2.414.102 3.094.102 1.583 0 3.02-.58 4.367-1.754 4.232 2.248 7.488 6.012 9.748 11.324 1.973 4.62 2.945 9.793 2.945 15.478 0 4.163-.476 8.332-1.414 12.495-1.414 6.032-3.466 10.855-6.235 14.438-5.044 6.56-11.776 9.918-20.204 10.136-2.556-.238-4.63-.538-6.285-.898-2.932-.628-5.567-1.807-7.987-3.457-2.47-1.741-4.615-3.855-6.468-6.359-3.923-5.364-5.908-11.118-5.947-17.2-.067-11.807 4.24-21.037 12.9-27.69z"/>
  <path fill="#0e88d3" stroke="#fff" stroke-width="23.19" d="M624.89 308.291c4.734 2.308 12.52 12.595 23.393 30.909 10.615-11.51 16.94-17.922 18.87-19.232 1.149-.725 2.196-1.11 3.151-1.11 1.43 0 2.61.753 3.494 2.192.833 1.307 1.26 2.746 1.26 4.411 0 1.308-.263 2.196-.782 2.576-12.299 11.716-19.167 18.478-20.606 20.333 2.392 5.457 6.024 13.615 10.875 24.498 2.139 4.712 3.518 7.731 4.206 9.1 1.92 4.018 3.583 6.837 4.913 8.502.523.945.799 1.697.799 2.215 0 1.477-.665 2.819-2.003 4.042-1.295 1.186-2.585 1.777-3.955 1.777-.866 0-1.58-.31-2.111-.886-.842-.91-2.303-3.91-4.444-9.02l-7.75-17.894c-2.95-6.858-5.27-11.855-7.004-14.992-3.024 3.938-7.118 9.834-12.329 17.622-2.486 3.752-6.134 9.421-10.98 17.014-.421.772-1.275 1.129-2.52 1.129-1.315 0-2.596-.489-3.834-1.46q-2.041-1.516-2.166-3.535.045-.668.377-1.794c1.988-4.602 7.285-12.75 15.905-24.4a510 510 0 0 1 10.128-13.28c-3.895-7.533-8.59-14.773-14.096-21.765-2.593-3.283-4.778-5.536-6.553-6.796-1.607-.906-2.578-2.519-2.85-4.774 0-1.496.461-2.814 1.401-4.007.94-1.196 2.042-1.8 3.395-1.8.392 0 .995.137 1.816.425m93.142-5.397c.635 3.655 1.334 9.129 2.089 16.411.74 6.74 1.154 12.525 1.27 17.324 10.297-.707 17.173-1.047 20.646-1.047 4.767 0 9.198.34 13.325 1.047.295-4.94.823-12.332 1.488-22.217.177-2.677.405-5.786.765-9.334 0-1.732 1.439-2.62 4.367-2.62 1.528 0 2.784.32 3.781.97 1.04.667 1.55 1.508 1.461 2.506-.367 6.692-1.186 17.9-2.419 33.668 5.499 1.98 8.233 4.51 8.233 7.632 0 1.305-.325 2.479-.983 3.538-.7 1.132-1.647 1.807-2.779 1.94q-.748-.46-1.223-.461c-1.784-.849-2.985-1.31-3.523-1.434-.052 1.704-.328 7.37-.851 16.976-.363 6.903-.544 12.57-.544 17.01 0 2.66-1.751 4.11-5.218 4.386-3.647-.275-5.48-1.727-5.48-4.387 0-3.65.458-11.632 1.352-23.959l.947-13.473c-3.967-.823-9.116-1.22-15.415-1.22-5.7 0-11.65.397-17.878 1.22-.583 12.017-1.86 22.287-3.789 30.797-1.173 5.248-2.756 9.727-4.721 13.412-.901 1.717-2.348 2.575-4.357 2.575-1.397 0-2.63-.514-3.727-1.536-1.127-1.124-1.687-2.427-1.687-3.935a5.4 5.4 0 0 1 .104-.844c.082-.372.116-.652.116-.828 5.305-14.111 7.95-30.279 7.95-48.437 0-7.525-.422-15.14-1.22-22.782-.053-.397-.378-2.563-.95-6.469-.393-2.69-.586-4.81-.586-6.416 0-1.946 1.421-2.908 4.324-2.908 3.04 0 4.754.962 5.132 2.895m95.114 6.179c1.034.392 1.563 1.72 1.563 4.007 0 3.712-1.107 5.588-3.397 5.588-1.965-.172-3.62-.263-5.121-.263-1.276 0-3.682.347-7.198 1.03 0 19.462.546 39.002 1.67 58.584 2.731.498 7.436 1.109 14.046 1.888 1.99.238 2.96 2.067 2.96 5.474 0 1.367-.26 2.6-.801 3.697-.668 1.322-1.618 1.972-2.755 1.972-9.9-1.124-18.04-2.382-24.517-3.712-4.27-.89-8.406-1.977-12.416-3.287-2.099-.688-3.168-2.417-3.168-5.243 0-1.658.407-3.082 1.149-4.243.836-1.313 2.02-1.963 3.48-1.963 1.579 0 4.107.6 7.623 1.821 1.811.596 3.012 1.008 3.695 1.17l-.211-11.745c-.167-6.716-.256-9.518-.296-8.446l.507-33.836c-.755 0-1.338.09-1.752.21-5.31-.282-8.005-2.704-8.005-7.245 0-3.34 1.209-5.029 3.563-5.029.6 0 1.363.129 2.365.385 1.151.29 1.965.464 2.394.496 1.435 0 4.417-.424 8.975-1.31 3.375-.67 6.198-1.003 8.486-1.003 2.86 0 5.24.333 7.16 1.003m32.847 5.192c0 5.729 1.116 13.175 3.347 22.353 1.146 4.804 1.973 8.446 2.504 10.925.347 1.973.682 4.568.858 7.836.295 3.047.58 8.845.841 17.416.164 2.625.246 4.622.246 6.041 13.676-.828 20.999-1.233 21.996-1.233 5.037 0 7.55 2.171 7.55 6.53 0 3.638-1.655 5.455-4.937 5.455h-5.087c-5.756 0-13.999.573-24.66 1.665-3.271 0-4.998-1.502-5.273-4.561.064-.34.119-.55.119-.687v-8.71c0-7.56-.296-15.204-.864-22.871-.42-4.613-1.618-11.176-3.568-19.701-1.749-7.528-2.858-14.054-3.34-19.602 0-1.499.569-2.687 1.722-3.573 1.023-.797 2.209-1.208 3.62-1.208 3.278 0 4.926 1.317 4.926 3.925m54.303 0c0 5.729 1.121 13.175 3.337 22.353 1.159 4.804 2.01 8.446 2.509 10.925.39 1.973.685 4.568.898 7.836.25 3.047.538 8.845.814 17.416.166 2.625.255 4.622.255 6.041 13.66-.828 20.999-1.233 21.984-1.233 5.005 0 7.548 2.171 7.548 6.53 0 3.638-1.655 5.455-4.918 5.455h-5.096c-5.777 0-13.992.573-24.666 1.665-3.266 0-5.015-1.502-5.283-4.561.07-.34.134-.55.134-.687v-8.71c0-7.56-.3-15.204-.858-22.871-.434-4.613-1.623-11.176-3.57-19.701-1.782-7.528-2.877-14.054-3.32-19.602 0-1.499.523-2.687 1.687-3.573 1.047-.797 2.228-1.208 3.632-1.208 3.278 0 4.913 1.317 4.913 3.925"/>
  <path fill="#ed1c24" d="M472.942 321.116c-1.325 0-2.469.29-3.414.848-1.032.618-1.53 1.338-1.462 2.171a654 654 0 0 1 1.41 42.496c0 5.617-.032 9.266-.151 10.912-1.308 0-2.37.963-3.176 2.859a13.8 13.8 0 0 0-1.025 4.701c.24 3.417 1.345 5.305 3.248 5.685 0 1.007.749 1.888 2.245 2.684 1.276.675 2.444 1.02 3.43 1.02 2.173 0 3.346-.87 3.57-2.6 1.17.077 2.87.109 5.163.109 10.262 0 18.77-2.883 25.623-8.689 6.645-5.66 10.002-12.525 10.002-20.592 0-4.749-1.08-9.086-3.176-13.038-.553-.998-1.41-1.935-2.615-2.821-3.057-1.978-5.406-3.34-6.987-4.194 4.756-5.557 7.158-10.503 7.158-14.851 0-7.63-3.516-13.265-10.518-16.957-5.786-3.02-12.537-4.528-20.268-4.528-4.186 0-8.86.372-14.041 1.112-1.521.218-2.39 1.992-2.658 5.332.268 3.32 1.36 4.99 3.278 4.99l5.759-.442c3.72-.295 6.915-.444 9.632-.444 10.692 0 16.902 3.223 18.623 9.691 0 3.682-2.285 7.984-6.728 12.865a124 124 0 0 0-10.714-.462c-.764 0-1.945.052-3.526.13a82 82 0 0 1-3.508.094c0-6.704-.211-11.657-.608-14.843 0-2.156-1.516-3.238-4.565-3.238m5.845 28.38c3.166 1.173 6.575 1.886 10.193 2.163 3.379-.354 5.776-.803 7.133-1.426.12.064 1.21.449 3.255 1.208 4.588 1.643 7.183 3.206 7.722 4.695.833 2.183 1.223 4.29 1.223 6.334 0 3.794-1.514 7.032-4.518 9.717-2.821 2.49-6.352 4.478-10.607 5.947-4.022 1.38-7.925 2.064-11.769 2.064-1.63-.273-2.674-.424-3.091-.424.305-13.45.459-23.56.459-30.278"/>
  <path fill="none" stroke="#ed1c24" stroke-width="3.005" d="M472.942 321.116c-1.325 0-2.469.29-3.414.848-1.032.618-1.53 1.338-1.462 2.171a654 654 0 0 1 1.41 42.496c0 5.617-.032 9.266-.151 10.912-1.308 0-2.37.963-3.176 2.859a13.8 13.8 0 0 0-1.025 4.701c.24 3.417 1.345 5.305 3.248 5.685 0 1.007.749 1.888 2.245 2.684 1.276.675 2.444 1.02 3.43 1.02 2.173 0 3.346-.87 3.57-2.6 1.17.077 2.87.109 5.163.109 10.262 0 18.77-2.883 25.623-8.689 6.645-5.66 10.002-12.525 10.002-20.592 0-4.749-1.08-9.086-3.176-13.038-.553-.998-1.41-1.935-2.615-2.821-3.057-1.978-5.406-3.34-6.987-4.194 4.756-5.557 7.158-10.503 7.158-14.851 0-7.63-3.516-13.265-10.518-16.957-5.786-3.02-12.537-4.528-20.268-4.528-4.186 0-8.86.372-14.041 1.112-1.521.218-2.39 1.992-2.658 5.332.268 3.32 1.36 4.99 3.278 4.99l5.759-.442c3.72-.295 6.915-.444 9.632-.444 10.692 0 16.902 3.223 18.623 9.691 0 3.682-2.285 7.984-6.728 12.865a124 124 0 0 0-10.714-.462c-.764 0-1.945.052-3.526.13a82 82 0 0 1-3.508.094c0-6.704-.211-11.657-.608-14.843 0-2.156-1.516-3.238-4.565-3.238zm5.846 28.38c3.166 1.173 6.575 1.885 10.192 2.163 3.38-.355 5.776-.804 7.133-1.427.12.065 1.211.45 3.256 1.208 4.587 1.643 7.183 3.206 7.721 4.695.834 2.183 1.223 4.29 1.223 6.334 0 3.794-1.513 7.032-4.518 9.717-2.821 2.49-6.352 4.478-10.607 5.947-4.022 1.38-7.925 2.064-11.768 2.064-1.63-.273-2.675-.424-3.092-.424.305-13.45.46-23.56.46-30.277z"/>
  <path fill="#ed1c24" d="M533.176 347.282c.119 8.555 2.429 16.358 6.932 23.336 5.352 8.247 13.419 13.378 24.261 15.319 1.75.34 4.199.65 7.33.905 12.699-.141 22.586-5.8 29.59-17.023 3.11-4.99 5.216-10.113 6.345-15.426 1.143-5.294 1.69-10.802 1.69-16.507 0-12.275-3.087-22.457-9.328-30.504-5.533-7.183-13.053-10.766-22.517-10.766-6.77 0-12.202 1.985-16.254 5.93-6.59 2.802-12.261 7.11-17.095 12.918-5.76 6.987-9.296 15.902-10.53 26.772 0 .506-.136 2.19-.424 5.047m23.398-28.82c.714.673 1.88 1.137 3.562 1.336 1.546-.296 2.603-.663 3.166-1.124.561-.355 1.372-1.343 2.482-2.97 1.084-1.603 1.962-2.677 2.69-3.171 1.741-.514 3.912-.802 6.505-.802.685 0 1.727.062 3.101.13 1.39.05 2.387.074 3.075.074 1.58 0 3.041-.578 4.352-1.74 4.245 2.234 7.485 6.022 9.748 11.317 1.978 4.625 2.99 9.791 2.99 15.485 0 4.151-.511 8.332-1.471 12.513-1.372 6.007-3.44 10.799-6.188 14.4-5.067 6.574-11.796 9.938-20.2 10.149-2.55-.243-4.677-.539-6.29-.898-2.945-.648-5.59-1.807-7.984-3.476-2.494-1.703-4.635-3.829-6.47-6.345q-5.902-8.077-5.968-17.182c-.082-11.825 4.245-21.05 12.9-27.695"/>
  <path fill="none" stroke="#ed1c24" stroke-width="3.005" d="M533.176 347.282c.119 8.555 2.429 16.358 6.932 23.336 5.352 8.247 13.419 13.378 24.261 15.319 1.75.34 4.199.65 7.33.905 12.699-.141 22.586-5.8 29.59-17.023 3.11-4.99 5.216-10.113 6.345-15.426 1.143-5.294 1.69-10.802 1.69-16.507 0-12.275-3.087-22.457-9.328-30.504-5.533-7.183-13.053-10.766-22.517-10.766-6.77 0-12.202 1.985-16.254 5.93-6.59 2.802-12.261 7.11-17.095 12.918-5.76 6.987-9.296 15.902-10.53 26.772 0 .506-.136 2.19-.424 5.047zm23.397-28.819c.715.673 1.881 1.137 3.563 1.335 1.546-.295 2.603-.662 3.166-1.124.561-.355 1.372-1.342 2.482-2.97 1.084-1.603 1.962-2.677 2.69-3.17 1.741-.514 3.912-.802 6.505-.802.685 0 1.727.062 3.101.129 1.39.05 2.387.074 3.075.074 1.58 0 3.041-.578 4.351-1.74 4.246 2.234 7.486 6.023 9.75 11.318 1.977 4.625 2.99 9.79 2.99 15.485 0 4.15-.512 8.331-1.472 12.513-1.372 6.007-3.44 10.798-6.188 14.4-5.067 6.573-11.796 9.938-20.2 10.148-2.55-.243-4.677-.538-6.29-.898-2.945-.648-5.59-1.806-7.984-3.476-2.494-1.702-4.635-3.829-6.47-6.345q-5.902-8.077-5.968-17.182c-.082-11.825 4.245-21.05 12.9-27.695z"/>
  <path fill="#ed1c24" stroke="#ed1c24" stroke-width="3.005" d="M625.113 307.212c4.744 2.292 12.535 12.582 23.381 30.894q15.974-17.255 18.887-19.19c1.129-.76 2.198-1.117 3.176-1.117 1.41 0 2.583.725 3.489 2.176.826 1.283 1.245 2.77 1.245 4.412q0 1.996-.804 2.563c-12.27 11.724-19.14 18.5-20.594 20.319a6303 6303 0 0 0 10.885 24.502c2.137 4.714 3.524 7.759 4.191 9.12 1.928 4.003 3.588 6.822 4.918 8.492.546.945.821 1.67.821 2.23 0 1.464-.68 2.8-2.037 4.04-1.273 1.168-2.603 1.759-3.933 1.759-.863 0-1.558-.283-2.119-.898-.82-.906-2.272-3.913-4.453-9.007l-7.712-17.89c-2.938-6.85-5.283-11.835-7.034-14.989-3.005 3.963-7.12 9.828-12.302 17.62q-3.742 5.637-11.005 17.03c-.426.747-1.272 1.115-2.513 1.115-1.293 0-2.586-.464-3.858-1.44-1.33-1.007-2.067-2.215-2.134-3.57.01-.397.149-1.015.367-1.799 1.99-4.585 7.285-12.726 15.882-24.395a541 541 0 0 1 10.144-13.26c-3.893-7.528-8.566-14.773-14.064-21.76-2.608-3.276-4.796-5.541-6.575-6.802-1.618-.905-2.586-2.498-2.851-4.793 0-1.464.471-2.807 1.402-3.988.938-1.2 2.042-1.81 3.399-1.81.375 0 .965.14 1.801.436m93.16-5.397c.643 3.642 1.358 9.094 2.105 16.403.727 6.752 1.15 12.533 1.292 17.324 10.275-.694 17.143-1.027 20.617-1.027 4.756 0 9.218.333 13.346 1.027.29-4.935.777-12.351 1.454-22.217.172-2.66.43-5.78.767-9.346 0-1.72 1.466-2.596 4.37-2.596 1.528 0 2.796.323 3.8.958 1.028.662 1.53 1.516 1.472 2.494-.384 6.711-1.198 17.9-2.451 33.675 5.488 1.972 8.257 4.52 8.257 7.637a6.8 6.8 0 0 1-.992 3.553q-1.096 1.715-2.77 1.913-.76-.453-1.218-.454c-1.836-.816-3.02-1.295-3.553-1.446-.034 1.722-.332 7.371-.863 16.986-.365 6.92-.516 12.587-.516 17.031 0 2.638-1.75 4.09-5.23 4.36-3.643-.27-5.5-1.722-5.5-4.36 0-3.655.467-11.647 1.353-23.983l.97-13.47c-3.965-.83-9.084-1.222-15.408-1.222-5.712 0-11.664.392-17.875 1.221-.595 12.012-1.87 22.294-3.796 30.8-1.176 5.238-2.75 9.716-4.73 13.436-.918 1.697-2.35 2.55-4.352 2.55-1.409 0-2.65-.508-3.749-1.56-1.101-1.095-1.67-2.377-1.67-3.913 0-.186.035-.447.11-.822.082-.372.101-.662.101-.836 5.33-14.13 7.968-30.266 7.968-48.436 0-7.553-.422-15.148-1.229-22.79-.052-.404-.377-2.543-.942-6.454-.39-2.704-.589-4.843-.589-6.436 0-1.933 1.437-2.923 4.303-2.923 3.057 0 4.779.97 5.148 2.923m95.096 6.16c1.055.377 1.595 1.714 1.595 4.007 0 3.724-1.138 5.575-3.404 5.575a60 60 0 0 0-5.076-.225c-1.308 0-3.722.31-7.255.99 0 19.47.555 38.997 1.684 58.599 2.712.479 7.412 1.116 14.064 1.915 1.972.216 2.94 2.03 2.94 5.432 0 1.39-.263 2.622-.811 3.7-.643 1.33-1.58 1.984-2.757 1.984-9.883-1.104-18.036-2.374-24.492-3.704-4.293-.899-8.444-1.98-12.441-3.315-2.104-.663-3.136-2.422-3.136-5.218 0-1.675.34-3.067 1.111-4.246.889-1.322 2.025-1.99 3.491-1.99 1.578 0 4.142.63 7.657 1.839 1.76.608 2.978 1 3.655 1.156l-.198-11.729c-.14-6.691-.278-9.52-.295-8.446l.493-33.806c-.74 0-1.342.07-1.749.206-5.317-.308-7.985-2.705-7.985-7.246 0-3.354 1.189-5.061 3.554-5.061.59 0 1.362.136 2.38.392 1.158.295 1.95.476 2.356.52 1.444 0 4.44-.438 8.98-1.33 3.39-.67 6.228-1.002 8.503-1.002q4.275-.001 7.136 1.003m32.865 5.21c0 5.73 1.114 13.154 3.325 22.332 1.143 4.823 1.985 8.453 2.488 10.947.405 1.938.73 4.56.898 7.82.288 3.06.546 8.854.83 17.414.175 2.623.257 4.637.257 6.047 13.657-.824 21.014-1.236 21.982-1.236 5.039 0 7.55 2.171 7.55 6.528 0 3.66-1.67 5.484-4.958 5.484h-5.064c-5.779 0-14.006.546-24.66 1.637-3.278 0-5.005-1.508-5.3-4.565.096-.34.123-.554.123-.668v-8.696c0-7.576-.278-15.218-.833-22.905-.444-4.6-1.61-11.163-3.576-19.688-1.752-7.528-2.88-14.034-3.347-19.61 0-1.478.586-2.68 1.722-3.565 1.017-.804 2.238-1.2 3.603-1.2 3.295 0 4.96 1.294 4.96 3.924m54.321 0c0 5.73 1.097 13.154 3.308 22.332 1.154 4.823 1.987 8.453 2.489 10.947.414 1.938.702 4.56.895 7.82.3 3.06.554 8.854.849 17.414.149 2.623.238 4.637.238 6.047q20.532-1.236 21.979-1.236c5.032 0 7.533 2.171 7.533 6.528 0 3.66-1.613 5.484-4.915 5.484h-5.084q-8.655 0-24.679 1.637c-3.265 0-5.017-1.508-5.248-4.565.085-.34.095-.554.095-.668v-8.696c0-7.576-.283-15.218-.844-22.905-.43-4.6-1.605-11.163-3.57-19.688-1.765-7.528-2.871-14.034-3.343-19.61 0-1.478.581-2.68 1.72-3.565 1.027-.804 2.235-1.2 3.61-1.2 3.313 0 4.967 1.294 4.967 3.924"/>
  <g stroke="#231f20" stroke-width="11.304">
    <path fill="#deddde" d="M172.023 197.675s-23.222-24.194-61.326-19.378c-35.988 4.523-69.807 23.085-94.235 83.476-7.292 18.262-12.984 36.643 19.875 22.147 8.488-2.037 11.45 2.66 7.084 14.907-4.313 12.268-3.653 23.996 22.408 11.645 9.533-4.618 18.033-3.228 14.185 10.091-12.265 42.54 56.103-6.647 56.103-6.647zm150.143-32.92s14.714-30.718 52.26-39.058c35.474-7.9 73.062-1.781 114.454 47.198 12.446 14.83 23.39 30.35-12.101 27.71-8.677.934-10.049 6.445-2.253 16.6 7.796 10.096 10.684 21.453-17.671 18.555-10.496-1.164-18.1 3.015-10.394 14.364 24.42 36.11-55.2 12.679-55.2 12.679z"/>
    <path fill="#ed1c24" d="M248.546 160.679 45.72 157.176 219.565 16.64l200.25 45.523z"/>
    <path fill="#ed1c24" d="M232.318 76.34c-59.666 14.006-77.196 52.679-77.196 52.679l30.802 69.909 125.149-17.297 8.495-89.52s-27.566-29.793-87.25-15.771"/>
    <path fill="#deddde" d="M404.98 229.982c13.045 27.77 18.353 61.71-7.851 88.051-23.42 23.515-48.42 41.74-94.223 53.332-58.242 14.703-108.25 11.651-132.597 3.667-36.613-11.985-55.098-37.432-55.351-79.608-.323-53.805 46.873-121.367 130.18-139.068 75.524-16.019 130.858 11.64 159.841 73.626"/>
  </g>
  <g fill="none" stroke="#231f20" stroke-linecap="round" stroke-linejoin="round">
    <path stroke-width="11.319" d="M312.768 305.22s-.253 13.052-16.155 18.615c-10.31 3.61-22.388.392-27.783-5.357"/>
    <path stroke-width="10.287" d="M196.662 232.643c1.62-10.95 14.277-22.016 24.964-7.968m102.996-26.349c-6.515-9.041-22.936-13.222-25.891 4.003"/>
  </g>
  <path fill="#231f20" d="m317.883 266.557-2.508-18.544c-1.482-22.624-22.135-40.895-44.083-39.357-21.881 1.56-38.617 23.687-37.19 46.301.612 9.54 8.768 28.502 8.919 30.633.536 8.17 25.501 21.544 46.145 15.47 27.168-7.964 29.178-24.616 28.717-34.503"/>
  <path fill="none" stroke="#fff" stroke-linecap="round" stroke-linejoin="round" stroke-width="6.999" d="M292.913 237.396c1.747 4.441 9.153 24.427 3.496 37.362"/>
  <path fill="#fff" stroke="#231f20" stroke-width="6.781" d="M417.816 504.157 389.23 456.21s-9.257-5.506-19.385 4.67c-6.54 6.512-3.292 11.465-3.292 11.465s-5.312 1.707-9.367 7.314c-4.652 6.615 2.134 13.36 2.134 13.36z"/>
  <path fill="#231f20" d="M380.806 496.902s14.974-3.546 18.273-20.862l17.681 26.867z"/>
  <g fill="#ae6c1d" stroke="#231f20">
    <path stroke-width="8.2" d="M379.074 479.724c-8.865 10.193-19.725 15.334-24.31 11.473-4.588-3.836-1.132-15.217 7.738-25.423 8.824-10.143 19.709-15.346 24.26-11.505 4.624 3.848 1.165 15.257-7.688 25.455"/>
    <path stroke-width="9.042" d="m239.595 394.138-52.28 7.52s-9.116-4.855-3.444-20.09c.201-.549 25.078-10.382 25.078-10.382"/>
    <path stroke-width="9.042" d="m355.273 491.932-104.435-86.93-65.272-54.917 30.7-38.174 90.977 79.523 79.407 62.845"/>
  </g>
  <g stroke="#231f20">
    <path fill="#fff" stroke-width="9.042" d="M206.879 335.368c-9.05 10.431-20.108 15.751-24.693 11.967-4.556-3.893-.98-15.48 8.1-25.879 9.06-10.47 20.126-15.813 24.714-11.997 4.568 3.871.968 15.45-8.121 25.91"/>
    <path fill="#deddde" stroke-width="10.769" d="M207.01 461.914s7.84-93.674 51.09-76.66c18.245 7.149 31.462 75.956 31.462 75.956s-3.828 39.404-48.198 35.283c-29.583-2.81-34.355-34.579-34.355-34.579"/>
    <path fill="#231f20" stroke-linecap="round" stroke-linejoin="round" stroke-width="5.28" d="m268.347 389.3 7.83-18.972-16.902 7.761-14.773-19.882-3.04 19.053-16.197-9.287 4.583 16.825z"/>
    <path fill="#deddde" stroke-width="10.769" d="M392.92 386.675a51 51 0 0 0-1.667 1.876c-31.668 36.122-53.622 44.64-58.952 45.007-45.223-.278-11.711-84.908-11.711-84.908s22.668-23.053 50.312-10.828c27.115 11.967 22.018 48.853 22.018 48.853"/>
    <path fill="#231f20" stroke-linecap="round" stroke-linejoin="round" stroke-width="5.56" d="m309.158 413.64-15.63 24.364 18.178-10.81 1.888 22.43 14.746-12.57 1.174 17.611 10.426-24.909z"/>
  </g>
  <path fill="#fff" d="M934.183 297.07v-5.432h3.757c1.816 0 3.903.39 3.903 2.605 0 2.519-1.78 2.826-3.943 2.826zm-3.091 10.532h3.091v-7.964h2.7l4.652 7.964h3.54l-5.12-8.103c2.88-.303 4.962-1.628 4.962-4.978 0-3.913-2.414-5.46-6.977-5.46h-6.848zm-10.097-9.24c0 9.017 7.342 16.359 16.36 16.359 9.026 0 16.39-7.342 16.39-16.359 0-9.031-7.364-16.373-16.39-16.373-9.018 0-16.36 7.342-16.36 16.373m3.11 0c0-7.35 5.912-13.272 13.25-13.272a13.25 13.25 0 0 1 13.279 13.272c0 7.335-5.923 13.262-13.28 13.262-7.337 0-13.25-5.927-13.25-13.262"/>
</svg>
