<svg xmlns="http://www.w3.org/2000/svg" version="1.1" viewBox="0 0 291.02 151.18">
  <path fill="#fff" d="M199.782 139.842h-94.346V11.34h94.346z"/>
  <path fill="#155196" d="M247.49 11.339v46.419h-46.488V11.339h-29.433c-4.906 29.166-15.943 95.744-16.249 97.828-.636 4.405 2.952 6.793 7.077 6.793 5.2 0 10.192-5.418 14.74-5.418 6.367 0 10.638 5.366 10.638 10.804 0 6.117-10.2 16.5-21.139 18.055v.437h34.366V85.766h46.488v54.072h32.187V11.34z"/>
  <path fill="#ee2722" d="M11.349 11.366h85.957v24.298H45.583v22.272h49.513V85.94H45.583v53.898H11.349zM105.44 139.84V11.34h45.456c-7.076 27.641-21.925 85.698-23.163 90.973-4.865 20.777 9.964 35.863 27.126 37.096v.431z"/>
</svg>
