<svg xmlns="http://www.w3.org/2000/svg" xmlns:xlink="http://www.w3.org/1999/xlink" version="1.1" viewBox="0 0 755.91 188.98">
  <defs>
    <clipPath id="w">
      <path d="M-76.932 134.776h566.929V-91.996H-76.932Z"/>
    </clipPath>
    <clipPath id="x">
      <path d="M-106.59 84.902h566.929V-141.87H-106.59Z"/>
    </clipPath>
    <clipPath id="y">
      <path d="M-97.321 32.672h566.929V-194.1H-97.321Z"/>
    </clipPath>
    <clipPath id="z">
      <path d="M-48.864 69.432h566.929V-157.34H-48.864Z"/>
    </clipPath>
    <clipPath id="A">
      <path d="M-70.484 31.622h566.929V-195.15H-70.484Z"/>
    </clipPath>
    <clipPath id="B">
      <path d="M-538.58 129.87H28.349V-96.902H-538.58Z"/>
    </clipPath>
    <clipPath id="C">
      <path d="M-47.623 157.032h566.929V-69.74H-47.623Z"/>
    </clipPath>
    <clipPath id="D">
      <path d="M-109.62 188.264h566.929V-38.508H-109.62Z"/>
    </clipPath>
    <clipPath id="E">
      <path d="M-122.02 156.821h566.929V-69.951H-122.02Z"/>
    </clipPath>
    <clipPath id="F">
      <path d="M-203.87 188.095h566.929V-38.677H-203.87Z"/>
    </clipPath>
    <clipPath id="G">
      <path d="M-239.19 161.628h566.929V-65.144H-239.19Z"/>
    </clipPath>
    <clipPath id="H">
      <path d="M-294.68 182.648h566.929V-44.124H-294.68Z"/>
    </clipPath>
    <clipPath id="I">
      <path d="M-342.05 185.033h566.929V-41.739H-342.05Z"/>
    </clipPath>
    <clipPath id="J">
      <path d="M-394.25 169.076h566.929V-57.696H-394.25Z"/>
    </clipPath>
    <clipPath id="K">
      <path d="M-438.54 187.668h566.929V-39.104H-438.54Z"/>
    </clipPath>
    <clipPath id="L">
      <path d="M-465.56 188.309h566.929V-38.463H-465.56Z"/>
    </clipPath>
    <clipPath id="M">
      <path d="M0 226.772h566.929V0H0Z"/>
    </clipPath>
    <clipPath id="N">
      <path d="M-133.98 250.286h283.465V-33.179H-133.98Z"/>
    </clipPath>
    <clipPath id="O">
      <path d="M-198.36 142.025H85.105V-141.44H-198.36Z"/>
    </clipPath>
    <clipPath id="P">
      <path d="M-178.25 28.625h283.465V-254.84H-178.25Z"/>
    </clipPath>
    <clipPath id="Q">
      <path d="M-73.053 108.445h283.465V-175.02H-73.053Z"/>
    </clipPath>
    <clipPath id="R">
      <path d="M-119.99 26.345h283.465V-257.12H-119.99Z"/>
    </clipPath>
    <clipPath id="S">
      <use xlink:href="#a"/>
    </clipPath>
    <clipPath id="T">
      <use xlink:href="#b"/>
    </clipPath>
    <clipPath id="U">
      <use xlink:href="#c"/>
    </clipPath>
    <clipPath id="V">
      <use xlink:href="#d"/>
    </clipPath>
    <clipPath id="W">
      <use xlink:href="#e"/>
    </clipPath>
    <clipPath id="X">
      <use xlink:href="#f"/>
    </clipPath>
    <clipPath id="Y">
      <use xlink:href="#g"/>
    </clipPath>
    <clipPath id="Z">
      <use xlink:href="#h"/>
    </clipPath>
    <clipPath id="aa">
      <path d="M-2133.4 124.812H304.395V-101.96H-2133.4Z"/>
    </clipPath>
    <clipPath id="ab">
      <use xlink:href="#i"/>
    </clipPath>
    <clipPath id="ac">
      <use xlink:href="#j"/>
    </clipPath>
    <clipPath id="ae">
      <path d="M-1026.8 190.407h2437.795V-36.365H-1026.8Z"/>
    </clipPath>
    <clipPath id="af">
      <path d="M-1063.6 160.107h2437.795V-66.665H-1063.6Z"/>
    </clipPath>
    <clipPath id="ag">
      <path d="M-1120.2 190.407h2437.795V-36.365H-1120.2Z"/>
    </clipPath>
    <clipPath id="ah">
      <use xlink:href="#k"/>
    </clipPath>
    <clipPath id="ai">
      <path d="M-1182.1 190.407h2437.795V-36.365H-1182.1Z"/>
    </clipPath>
    <clipPath id="aj">
      <path d="M-1250.1 190.407h2437.795V-36.365H-1250.1Z"/>
    </clipPath>
    <clipPath id="ak">
      <use xlink:href="#l"/>
    </clipPath>
    <clipPath id="al">
      <path d="M-1352.1 180.735h2437.795V-46.037H-1352.1Z"/>
    </clipPath>
    <clipPath id="am">
      <use xlink:href="#m"/>
    </clipPath>
    <clipPath id="an">
      <use xlink:href="#n"/>
    </clipPath>
    <clipPath id="ap">
      <path d="M-1503.8 190.407H933.995V-36.365H-1503.8Z"/>
    </clipPath>
    <clipPath id="aq">
      <use xlink:href="#o"/>
    </clipPath>
    <clipPath id="ar">
      <use xlink:href="#p"/>
    </clipPath>
    <clipPath id="as">
      <path d="M-1629.7 190.407H808.095V-36.365H-1629.7Z"/>
    </clipPath>
    <clipPath id="at">
      <path d="M-1682.1 180.735H755.695V-46.037H-1682.1Z"/>
    </clipPath>
    <clipPath id="au">
      <path d="M-1735.5 190.407H702.295V-36.365H-1735.5Z"/>
    </clipPath>
    <clipPath id="av">
      <use xlink:href="#q"/>
    </clipPath>
    <clipPath id="aw">
      <path d="M-1836.4 186.852H601.395V-39.92H-1836.4Z"/>
    </clipPath>
    <clipPath id="ax">
      <path d="M-1873.1 190.407H564.695V-36.365H-1873.1Z"/>
    </clipPath>
    <clipPath id="ay">
      <path d="M-1889.3 190.407H548.495V-36.365H-1889.3Z"/>
    </clipPath>
    <clipPath id="az">
      <use xlink:href="#r"/>
    </clipPath>
    <clipPath id="aA">
      <path d="M-2005.6 160.107H432.195V-66.665H-2005.6Z"/>
    </clipPath>
    <clipPath id="aB">
      <use xlink:href="#s"/>
    </clipPath>
    <clipPath id="aC">
      <use xlink:href="#t"/>
    </clipPath>
    <clipPath id="aD">
      <use xlink:href="#u"/>
    </clipPath>
    <clipPath id="aE">
      <path d="M-2190.3 186.852H247.495V-39.92H-2190.3Z"/>
    </clipPath>
    <clipPath id="aF">
      <use xlink:href="#j"/>
    </clipPath>
    <clipPath id="aG">
      <path d="M-2238.3 160.107H199.495V-66.665H-2238.3Z"/>
    </clipPath>
    <clipPath id="aH">
      <path d="M-2284.8 157.892H152.995V-68.88H-2284.8Z"/>
    </clipPath>
    <clipPath id="aI">
      <use xlink:href="#j"/>
    </clipPath>
    <clipPath id="aJ">
      <use xlink:href="#v"/>
    </clipPath>
    <clipPath id="aK">
      <path d="M-2401.8 190.407H35.995V-36.365H-2401.8Z"/>
    </clipPath>
    <clipPath id="aL">
      <path d="M-114.69 199.798h2437.795V-26.974H-114.69Z"/>
    </clipPath>
    <clipPath id="aM">
      <path d="M-167.39 111.162h2437.795V-115.61H-167.39Z"/>
    </clipPath>
    <clipPath id="aN">
      <path d="M-150.93 18.332h2437.795V-208.44H-150.93Z"/>
    </clipPath>
    <clipPath id="aO">
      <path d="M-64.81 83.682h2437.795V-143.09H-64.81Z"/>
    </clipPath>
    <clipPath id="aP">
      <path d="M-103.23 16.472h2437.795V-210.3H-103.23Z"/>
    </clipPath>
    <clipPath id="aQ">
      <path d="M-935.13 191.081h2437.795V-35.691H-935.13Z"/>
    </clipPath>
    <clipPath id="aR">
      <use xlink:href="#a"/>
    </clipPath>
    <clipPath id="aS">
      <use xlink:href="#b"/>
    </clipPath>
    <clipPath id="aT">
      <use xlink:href="#c"/>
    </clipPath>
    <clipPath id="aU">
      <use xlink:href="#d"/>
    </clipPath>
    <clipPath id="aV">
      <use xlink:href="#e"/>
    </clipPath>
    <clipPath id="aW">
      <use xlink:href="#f"/>
    </clipPath>
    <clipPath id="aX">
      <use xlink:href="#g"/>
    </clipPath>
    <clipPath id="aY">
      <use xlink:href="#h"/>
    </clipPath>
    <clipPath id="aZ">
      <path d="M-2133.4 124.822H304.395V-101.95H-2133.4Z"/>
    </clipPath>
    <clipPath id="ba">
      <use xlink:href="#i"/>
    </clipPath>
    <clipPath id="bb">
      <use xlink:href="#j"/>
    </clipPath>
    <clipPath id="bd">
      <path d="M-1026.8 190.408h2437.795V-36.364H-1026.8Z"/>
    </clipPath>
    <clipPath id="be">
      <path d="M-1063.6 160.106h2437.795V-66.666H-1063.6Z"/>
    </clipPath>
    <clipPath id="bf">
      <path d="M-1120.2 190.408h2437.795V-36.364H-1120.2Z"/>
    </clipPath>
    <clipPath id="bg">
      <use xlink:href="#k"/>
    </clipPath>
    <clipPath id="bh">
      <path d="M-1182.1 190.408h2437.795V-36.364H-1182.1Z"/>
    </clipPath>
    <clipPath id="bi">
      <path d="M-1250.1 190.408h2437.795V-36.364H-1250.1Z"/>
    </clipPath>
    <clipPath id="bj">
      <use xlink:href="#l"/>
    </clipPath>
    <clipPath id="bk">
      <path d="M-1352.1 180.734h2437.795V-46.038H-1352.1Z"/>
    </clipPath>
    <clipPath id="bl">
      <use xlink:href="#m"/>
    </clipPath>
    <clipPath id="bm">
      <use xlink:href="#n"/>
    </clipPath>
    <clipPath id="bo">
      <path d="M-1503.8 190.408H933.995V-36.364H-1503.8Z"/>
    </clipPath>
    <clipPath id="bp">
      <use xlink:href="#o"/>
    </clipPath>
    <clipPath id="bq">
      <use xlink:href="#p"/>
    </clipPath>
    <clipPath id="br">
      <path d="M-1629.7 190.408H808.095V-36.364H-1629.7Z"/>
    </clipPath>
    <clipPath id="bs">
      <path d="M-1682.1 180.734H755.695V-46.038H-1682.1Z"/>
    </clipPath>
    <clipPath id="bt">
      <path d="M-1735.5 190.408H702.295V-36.364H-1735.5Z"/>
    </clipPath>
    <clipPath id="bu">
      <use xlink:href="#q"/>
    </clipPath>
    <clipPath id="bv">
      <path d="M-1836.4 186.851H601.395V-39.921H-1836.4Z"/>
    </clipPath>
    <clipPath id="bw">
      <path d="M-1873.1 190.408H564.695V-36.364H-1873.1Z"/>
    </clipPath>
    <clipPath id="bx">
      <path d="M-1889.3 190.408H548.495V-36.364H-1889.3Z"/>
    </clipPath>
    <clipPath id="by">
      <use xlink:href="#r"/>
    </clipPath>
    <clipPath id="bz">
      <path d="M-2005.6 160.106H432.195V-66.666H-2005.6Z"/>
    </clipPath>
    <clipPath id="bA">
      <use xlink:href="#s"/>
    </clipPath>
    <clipPath id="bB">
      <use xlink:href="#t"/>
    </clipPath>
    <clipPath id="bC">
      <use xlink:href="#u"/>
    </clipPath>
    <clipPath id="bD">
      <path d="M-2190.3 186.851H247.495V-39.921H-2190.3Z"/>
    </clipPath>
    <clipPath id="bE">
      <use xlink:href="#j"/>
    </clipPath>
    <clipPath id="bF">
      <path d="M-2238.3 160.106H199.495V-66.666H-2238.3Z"/>
    </clipPath>
    <clipPath id="bG">
      <path d="M-2284.8 157.891H152.995V-68.881H-2284.8Z"/>
    </clipPath>
    <clipPath id="bH">
      <use xlink:href="#j"/>
    </clipPath>
    <clipPath id="bI">
      <use xlink:href="#v"/>
    </clipPath>
    <clipPath id="bJ">
      <path d="M-2401.8 190.408H35.995V-36.364H-2401.8Z"/>
    </clipPath>
    <path id="a" d="M-1054.5 40.272h2437.795V-186.5H-1054.5Z"/>
    <path id="b" d="M-1225.6 126.462h2437.795V-100.31H-1225.6Z"/>
    <path id="c" d="M-1259.8 39.682h2437.795V-187.09H-1259.8Z"/>
    <path id="d" d="M-1485.7 125.992H952.095V-100.78H-1485.7Z"/>
    <path id="e" d="M-1583.2 52.952H854.595V-173.82H-1583.2Z"/>
    <path id="f" d="M-1736.3 110.962H701.495V-115.81H-1736.3Z"/>
    <path id="g" d="M-1867.1 117.542H570.695V-109.23H-1867.1Z"/>
    <path id="h" d="M-2011.1 73.512H426.695V-153.26H-2011.1Z"/>
    <path id="i" d="M-2207.9 126.582H229.895V-100.19H-2207.9Z"/>
    <path id="j" d="M0 226.772h2437.795V0H0Z"/>
    <path id="k" d="M-1167.2 189.213h2437.795V-37.559H-1167.2Z"/>
    <path id="l" d="M-1301.1 170.013h2437.795V-56.759H-1301.1Z"/>
    <path id="m" d="M-1409.5 189.213h2437.795V-37.559H-1409.5Z"/>
    <path id="n" d="M-1457.8 170.013H979.995V-56.759H-1457.8Z"/>
    <path id="o" d="M-1550.8 189.213H886.995V-37.559H-1550.8Z"/>
    <path id="p" d="M-1595.3 183.736H842.495V-43.036H-1595.3Z"/>
    <path id="q" d="M-1786.4 170.013H651.395V-56.759H-1786.4Z"/>
    <path id="r" d="M-1948.8 174.152H488.995V-52.62H-1948.8Z"/>
    <path id="s" d="M-2062 183.736H375.795V-43.036H-2062Z"/>
    <path id="t" d="M-2099.3 183.736H338.495V-43.036H-2099.3Z"/>
    <path id="u" d="M-2140.4 170.013H297.395V-56.759H-2140.4Z"/>
    <path id="v" d="M-2355.8 170.013H81.995V-56.759H-2355.8Z"/>
    <path id="ad" d="M0 0v16.374h-16.545V0h-8.976v40.79h8.976V24.648H0V40.79h8.977V0z"/>
    <path id="ao" d="m0 0-19.756 25.929V0h-8.857v40.79h8.274l19.115-25.118V40.79H7.63V0z"/>
    <path id="bc" d="M0 0v16.374h-16.545V0h-8.976v40.791h8.976V24.649H0v16.142h8.977V0z"/>
    <path id="bn" d="m0 0-19.756 25.93V0h-8.857v40.791h8.274l19.115-25.118v25.118H7.63V0z"/>
  </defs>
  <g fill="#024686">
    <path d="M97.915 160.41a8.889 8.889 0 1 0 17.71 1.549 8.889 8.889 0 0 0-17.71-1.549m40.205-67.617 10.436-38.943 1.828 2.37c7.244 9.396 11.362 20.55 11.945 32.325l14.875 3.985c.318-20.7-8.207-40.505-23.563-54.584a72.6 72.6 0 0 0-13.534-9.8l-20.13 75.121 38.115 10.213-.71 1.586a58 58 0 0 1-3.661 6.89c-6.352 10.219-15.978 18.374-27.102 22.964l-2.772 1.144 7.756-28.946-14.31-3.834-8.503 31.737c8.347 1.041 14.536 8.314 14.262 16.69a72.3 72.3 0 0 0 12.279-4.442 73 73 0 0 0 13.413-8.144 73 73 0 0 0 11.34-10.804 72.6 72.6 0 0 0 8.82-13.08 72 72 0 0 0 3.09-6.685 72.5 72.5 0 0 0 4.296-15.535zM125.56 21.97a72 72 0 0 0-4.1-1.1 7.42 7.42 0 0 0-6.944 5.49L83.178 143.314l-.456 1.665-.202-.09a12.726 12.726 0 0 1-14.743 6.74 12.7 12.7 0 0 1-9.322-10.588 7.35 7.35 0 0 0-1.97-4.107 7.4 7.4 0 0 0-10.404-.33 7.42 7.42 0 0 0-2.304 6.429 27.53 27.53 0 0 0 6.477 14.335 28 28 0 0 0 1.788 1.882 27.57 27.57 0 0 0 15.482 7.398 27.3 27.3 0 0 0 7.282-.023l.054-.006a27.45 27.45 0 0 0 11.497-4.378 27.44 27.44 0 0 0 11.313-15.775l31.155-116.275a7.42 7.42 0 0 0-3.265-8.222"/>
    <path d="M59.859 71.823a48.8 48.8 0 0 0-3.821 14.312l15.293 4.098-9.985 37.267a18 18 0 0 1 2.648 2.284 17.67 17.67 0 0 1 4.737 9.865 2.36 2.36 0 0 0 2.138 2.039 2.36 2.36 0 0 0 2.432-1.592l.028-.084 16.144-60.253z"/>
    <path d="M89.174 20.545a72.3 72.3 0 0 0-15.1 5.085 73 73 0 0 0-24.87 18.977 72.6 72.6 0 0 0-8.855 13.124 73 73 0 0 0-3.09 6.685 72.5 72.5 0 0 0-4.49 16.83 74 74 0 0 0-.668 7.339 72.2 72.2 0 0 0 9.302 38.564 17.75 17.75 0 0 1 7.325-2.725 17.73 17.73 0 0 1 9.326 1.245q-.044-.066-.093-.128-.206-.285-.409-.57-.187-.262-.37-.523-.104-.153-.21-.304c-5.333-7.757-8.644-16.57-9.725-25.868l-.027-.232-.06-.546q-.042-.406-.078-.814l-.02-.25a40 40 0 0 1-.063-.807l-.013-.173a58 58 0 0 1-.103-2.107l-.001-.024v-.017a57 57 0 0 1-.004-3.387l.002-.088q.01-.361.026-.725l.008-.157q.014-.329.032-.655l.01-.199.042-.63.014-.202q.029-.4.064-.801l.002-.012c.016-.185.034-.381.056-.601l.036-.359.174-1.687.026.007a57.6 57.6 0 0 1 3.818-14.312l-.024-.006.59-1.323c5.92-13.43 16.76-24.04 30.056-29.768q.031-.016.062-.027a61 61 0 0 1 1.091-.457l2.68-1.091-.025.09-2.913 10.871-4.855 18.12 14.308 3.834 7.198-26.863 2.439-9.101 3.984-14.87a72.5 72.5 0 0 0-16.605 1.638M723.87 153.76h-31.022l-34.211-90.804q-.288-1.392-2.223-1.392c-1.352 0-2.257.464-2.705 1.392l-33.534 90.804h-31.41q3.675-11.133 11.501-33.487a3052 3052 0 0 1 17.201-47.315q9.28-24.614 11.405-27.573 3.96-4.957 11.356-7.566 7.391-2.61 16.09-2.61c5.735 0 11.079.87 16.043 2.61q7.441 2.61 11.21 7.566 2.41 2.871 11.597 27.486c4.313 11.539 9.986 27.31 17.009 47.315a6971 6971 0 0 0 11.693 33.574m-146.436 0h-29.09v-46.534h-52.379v46.534h-29.089V35.819h29.089v45.923h52.379V35.819h29.09zm-127.49-93.066H380.17q-4.736.001-7.49 3.206c-2.754 3.205-2.753 4.647-2.753 7.534q-.002 4.243 2.657 7.277c1.772 2.023 4.3 3.03 7.586 3.03h41.073c11.078 0 19.843 3.742 26.286 11.222 5.86 6.784 8.795 15.047 8.795 24.789q0 14.698-8.698 24.787-9.665 11.221-26.383 11.221H346.44v-25.05h70.066q4.44 0 7.248-3.479 2.512-3.131 2.512-7.567 0-4.262-2.512-7.35c-1.679-2.056-4.095-3.088-7.248-3.088h-41.17c-11.147 0-19.972-3.703-26.48-11.12q-8.891-10.073-8.89-24.585 0-14.506 8.794-24.496 9.857-11.205 26.576-11.206h74.608zm-127.49 0h-59.336q-10.633.001-16.72 10.25-5.509 9.21-5.51 22.672.001 13.898 5.606 23.713 6.184 10.86 16.624 10.86l11.5.521h14.399q4.443 0 7.248-3.479 2.512-3.131 2.513-7.567-.001-4.262-2.513-7.35-2.514-3.086-7.248-3.088h-14.4V81.742h19.136q16.62 0 26.286 11.22 8.792 10.177 8.794 24.79 0 14.698-8.698 24.787-9.665 11.221-26.382 11.221h-35.469q-23.099-.001-36.433-18.078-11.985-16.164-11.984-39.894 0-24.248 12.177-41.195 13.53-18.774 36.24-18.774h64.17z"/>
  </g>
  <g fill="#fff">
    <path d="M0 0a6.556 6.556 0 1 1 13.062-1.142A6.556 6.556 0 0 1 0 0" clip-path="url(#w)" transform="matrix(1.3333 0 0 -1.3333 878.48 179.7)"/>
    <path d="m0 0 7.696 28.722 1.349-1.749c5.343-6.929 8.38-15.156 8.809-23.84L28.827.193c.233 15.268-6.055 29.874-17.379 40.258a53.6 53.6 0 0 1-9.983 7.23L-13.38-7.726l28.109-7.532-.522-1.17a43 43 0 0 0-2.7-5.081C6.821-29.046-.278-35.061-8.483-38.445l-2.044-.844 5.72 21.349-10.553 2.827-6.272-23.407c6.156-.768 10.721-6.132 10.519-12.31a53.4 53.4 0 0 1 18.948 9.283 54 54 0 0 1 8.365 7.968 53.5 53.5 0 0 1 6.505 9.647 53 53 0 0 1 2.278 4.931 53.4 53.4 0 0 1 3.169 11.457z" clip-path="url(#x)" transform="matrix(1.3333 0 0 -1.3333 918.02 113.2)"/>
    <path d="M0 0c-.996.299-2.012.571-3.024.812a5.48 5.48 0 0 1-5.121-4.048l-23.113-86.26-.336-1.229-.149.067a9.39 9.39 0 0 0-10.874-4.971 9.37 9.37 0 0 0-6.875 7.81 5.4 5.4 0 0 1-1.454 3.029 5.46 5.46 0 0 1-3.477 1.679 5.4 5.4 0 0 1-1.216-.031 5.4 5.4 0 0 1-2.98-1.406 5.47 5.47 0 0 1-1.699-4.74 20.3 20.3 0 0 1 4.777-10.573c.416-.483.86-.95 1.319-1.388a20.32 20.32 0 0 1 11.418-5.457c.288-.038.581-.07.87-.096h.001a20.2 20.2 0 0 1 4.5.113l.04.004a20.2 20.2 0 0 1 8.479 3.229A20.23 20.23 0 0 1-20.57-91.82L2.408-6.064A5.47 5.47 0 0 1 0 0" clip-path="url(#y)" transform="matrix(1.3333 0 0 -1.3333 905.67 43.559)"/>
    <path d="M0 0a36 36 0 0 1-2.818-10.556l11.279-3.021-7.365-27.486c.7-.494 1.355-1.057 1.953-1.686a13 13 0 0 0 3.494-7.275 1.739 1.739 0 0 1 3.371-.33l.021.062L21.842-5.853z" clip-path="url(#z)" transform="matrix(1.3333 0 0 -1.3333 841.06 92.582)"/>
    <path d="M0 0a53.4 53.4 0 0 1-11.136-3.752 53.9 53.9 0 0 1-18.343-13.995 53.4 53.4 0 0 1-8.81-14.609 53.5 53.5 0 0 1-3.312-12.415 54 54 0 0 1-.492-5.412 53.25 53.25 0 0 1 6.86-28.442 13.1 13.1 0 0 0 8.314 2.08 13 13 0 0 0 3.967-.988l-.068.095-.303.419-.271.386-.156.225a42.14 42.14 0 0 0-7.294 20.252l-.016.184q-.025.298-.046.596l-.009.127q-.052.775-.076 1.555l-.001.016v.013a43 43 0 0 0-.003 2.498l.002.065a32 32 0 0 0 .024.652 41 41 0 0 0 .063 1.094l.01.148q.021.296.047.592l.001.008a38 38 0 0 0 .069.709l.128 1.243.018-.005a42.6 42.6 0 0 0 2.817 10.556l-.018.004.436.976c4.367 9.904 12.36 17.729 22.166 21.956l.046.02q.401.171.805.336l1.977.804-.019-.066-2.148-8.018-3.581-13.364 10.553-2.827L7.51-16.473 9.309-9.76l2.938 10.967A53.5 53.5 0 0 1 0 0" clip-path="url(#A)" transform="matrix(1.3333 0 0 -1.3333 869.88 42.157)"/>
    <path d="M0 0h-22.88l-25.232 66.972q-.214 1.026-1.64 1.026c-.997 0-1.665-.342-1.995-1.026L-76.48 0h-23.166q2.708 8.212 8.483 24.697a2257 2257 0 0 0 12.686 34.898q6.844 18.154 8.412 20.335 2.922 3.656 8.375 5.581 5.451 1.925 11.867 1.925 6.342 0 11.832-1.925 5.488-1.925 8.268-5.581 1.778-2.117 8.553-20.271 4.774-12.766 12.545-34.897A5276 5276 0 0 1 0 0m-108 0h-21.454v34.32h-38.632V0h-21.455v86.986h21.455V53.115h38.632v33.871H-108zm-94.028 68.64h-51.462q-3.493 0-5.524-2.365-2.032-2.362-2.031-5.556-.002-3.129 1.96-5.367 1.959-2.238 5.595-2.237h30.293q12.256 0 19.386-8.274 6.486-7.507 6.487-18.283 0-10.842-6.415-18.283Q-210.867.001-223.197 0h-55.169v18.476h51.676q3.275 0 5.345 2.565 1.854 2.31 1.854 5.581 0 3.142-1.854 5.422-1.856 2.275-5.345 2.276h-30.364q-12.332-.001-19.53 8.201-6.559 7.432-6.558 18.133 0 10.7 6.487 18.067 7.269 8.264 19.601 8.265h55.026zm-94.029 0h-43.764q-7.841 0-12.331-7.56-4.062-6.793-4.062-16.722 0-10.25 4.133-17.489 4.561-8.01 12.26-8.009l8.482-.384h10.62q3.278 0 5.346 2.565 1.853 2.31 1.853 5.581 0 3.142-1.853 5.422-1.855 2.275-5.346 2.276h-10.62v18.795h14.113q12.26 0 19.387-8.274 6.485-7.507 6.486-18.283 0-10.842-6.415-18.283Q-304.895.001-317.226 0h-26.159q-17.036 0-26.871 13.334-8.838 11.92-8.838 29.423 0 17.884 8.981 30.383 9.978 13.846 26.728 13.846h47.328z" clip-path="url(#B)" transform="matrix(1.3333 0 0 -1.3333 1494 173.16)"/>
    <path d="M0 0h7.701v1.575h7.234V0h7.745v-2.768H0zm21.149-27.277q0-.466.319-.766.319-.296.744-.297h.724v-2.767h-5.49q-1.403.002-2.404 1.001-1 1.001-1 2.403v20.13H8.638v-20.13q0-1.402-.999-2.403-1-1-2.405-1.001H-.339v2.767h.765q.468 0 .765.297.298.3.298.766v22.466h19.66zm-26.17-3.913-.766 25.445h4.128l.765-25.445zm-8.467 0v27.232h-5.703v2.767h5.703v2.849h6.808v-2.849h5.701v-2.767H-6.68V-31.19zm-5.788 0 .809 25.445h4.127l-.808-25.445z" clip-path="url(#C)" transform="matrix(1.3333 0 0 -1.3333 839.4 209.38)"/>
    <path d="M0 0v17.826l-4.937.426v3.065L0 20.933v11.874h7.234V0zm-14.936.467v17.359l-4.936.426v3.065l4.936-.384v11.361h6.894V.467zM-30.255 0l.384 17.913-4.086.339v3.065l4.171-.339.255 11.829h7.234L-23.021 0z" clip-path="url(#D)" transform="matrix(1.3333 0 0 -1.3333 922.07 251.02)"/>
    <path d="M0 0h17.318l-.383 1.364h7.215L24.535 0h17.573v-2.764h-17.53V-5.7h16.509v-19.15q0-1.616-1.113-2.721-1.112-1.108-2.696-1.109h-8.914v2.768h3.702q.723 0 1.255.488.532.489.532 1.212v15.745h-9.275v-23.062h-7.234v23.062H8.195V-28.68H.961V-5.7h16.383v2.936H0z" clip-path="url(#E)" transform="matrix(1.3333 0 0 -1.3333 938.6 209.1)"/>
    <path d="m0 0-3.319 11.531h7.062L7.105 0zm-9.533 15.787h6.512v12.297h-6.512zM-19.661 0l3.363 11.531h7.064L-12.553 0zm-.254 15.787h3.404v12.297h-2.808v2.764h2.808v1.745h6.978v-1.745h6.512v1.745h6.977v-1.745h2.809v-2.764H3.956V15.787H6.85v-2.766h-26.765zm-15.233-3.49 3.234.256v13.828h-3.234v2.766h3.234v3.404h7.232v-3.404h3.533v-2.766h-3.533V13.148l3.533.298V10.68l-3.533-.298v-6.68q0-1.619-1.106-2.725T-28.51-.128h-6.042v2.767h1.381q.503-.001.88.36c.377.361.377.547.377.914v5.873l-3.234-.256z" clip-path="url(#F)" transform="matrix(1.3333 0 0 -1.3333 1047.7 250.79)"/>
    <path d="M0 0h1.574L.639 1.998H6.68L7.701 0h1.15l2.724 3.276H.128v2.382h18.424V3.293L15.659 0q1.19-.045 2.043-.838.85-.792.85-1.908v-2.572l-5.319.041v2.085a.69.69 0 0 1-.254.553.9.9 0 0 1-.596.211h-1.106v-6.593q0-1.492-1.107-2.51-1.108-1.023-2.723-1.022H1.063v2.424h2.256q.512 0 .893.364.383.36.383.827v6.51H0zm-7.404-1.703q.255.001.447.169.191.172.19.426v.893h-2.169v-1.488zm.637 5.148h-2.169V2.296h2.169zm-8.594-5.148v1.488h-2.17v-.893q0-.214.191-.402a.6.6 0 0 1 .446-.193zm-2.17 3.999h2.169v1.149h-2.169zm-5.958-25.954h17.405v6.043h-16.937v2.763h16.937v1.831h7.233v-1.831h16.935v-2.763H1.149v-6.043h17.403v-2.767h-42.041zm-.084 13.616 8.212.298v1.873h-7.745v2.553l7.745-.042v1.274h-5.021q-1.235.002-2.106.807-.873.805-.872 1.904v7.161H-.937v-7.161q0-1.099-.871-1.904-.873-.806-2.107-.807h-5.021v-1.232l7.745-.042v-2.511h-7.745v-1.662l8.212.298v-2.511l-22.849-.848z" clip-path="url(#G)" transform="matrix(1.3333 0 0 -1.3333 1094.8 215.5)"/>
    <path d="m0 0-6.724 6.511L-13.403 0h-8.766l11.064 10.763-11.064 10.765h8.766l6.679-6.551L0 21.528h8.681L-2.383 10.763 8.681 0zm-31.871 26.38H9.533v-2.767h-34.17V-1.364c0-.343.128-.637.383-.894q.384-.38.893-.381H9.533v-2.766h-37.551q-1.627 0-2.739 1.108-1.114 1.107-1.114 2.684z" clip-path="url(#H)" transform="matrix(1.3333 0 0 -1.3333 1168.8 243.53)"/>
    <path d="M0 0q.505 0 .883.385.38.384.38.892v13.534h-3.744V0zm1.263 23.96h-3.744v-6.386h3.744zM-13.758 0h4.043v14.811h-4.043zm0 17.574h4.043v6.386h-4.043zM-20.992 0v14.811h-3.786V1.277q-.001-.508.382-.892.381-.385.894-.385zm-3.786 17.574h3.786v6.386h-3.786zm-7.235 9.149h11.021v2.853h7.234v-2.853h4.043v2.853h7.234v-2.853H8.496V1.066a3.72 3.72 0 0 0-1.108-2.704 3.62 3.62 0 0 0-2.682-1.126h-32.885q-1.575-.001-2.705 1.126c-.753.751-1.129 1.656-1.129 2.704z" clip-path="url(#I)" transform="matrix(1.3333 0 0 -1.3333 1232 246.71)"/>
    <path d="M0 0v-4.339l3.958.637v-2.639L0-6.978v-8.21q0-.555.342-.917.339-.36.808-.361h2.808v-2.721h-7.872q-1.406 0-2.403 1.125-1.002 1.126-1.001 2.701V0zm-4.68 3.875q.425-.002.744.298.32.297.32.764v1.788h-9.107V4.937q0-.468.32-.764.318-.3.787-.298zm-8.043 7.147V9.491h9.107v1.489zM-12.255 0v-4.381h3.745v-2.766h-3.745v-8.041q0-.555.341-.917.34-.36.809-.361h2.595v-2.721h-7.511q-1.456 0-2.461 1.125c-1.005 1.125-1.006 1.651-1.006 2.701V0zm-7.616 13.532H3.576v-8.04c0-1.195-.412-2.199-1.235-3.023Q1.106 1.234-.68 1.236h-14.935q-1.788-.002-3.022 1.233c-.824.824-1.234 1.828-1.234 3.023zm-5.107-32.678-.764 25.445h3.956l.766-25.445zm-7.914 0V8.086h-5.277v2.808l5.277-.041v2.849h6.51v-2.808l5.277-.041V8.086h-5.277v-27.232zm-5.362 0 .809 25.445h3.915l-.809-25.445z" clip-path="url(#J)" transform="matrix(1.3333 0 0 -1.3333 1301.6 225.44)"/>
    <path d="m0 0-1.658 16.337h6.552L6.511 0zm6.256 25.188-1.362-6.807h-6.552l1.404 6.807zm-20.169 0 1.404-6.807h-6.553l-1.362 6.807zM-20.68 0l1.618 16.337h6.553L-14.17 0zM5.106 31.785l.213-1.745h1.235v-2.767H-3.488V3.275A3.77 3.77 0 0 0-4.574.571Q-5.66-.556-7.233-.555h-6.084v2.639h1.38q.502 0 .86.381.353.386.354.893v23.915h-9.999v2.767h9.999v2.254h7.235V30.04h2.51l-.213 1.745zM-35.743 2.254l3.319.211v14.893h-3.021v2.768h3.021v8.806h-3.191v2.766h13.616v-2.766h-3.191v-8.806h3.021v-2.768h-3.021V2.933l3.319.172V.381l-13.872-.894z" clip-path="url(#K)" transform="matrix(1.3333 0 0 -1.3333 1360.6 250.22)"/>
    <path d="m0 0 1.999 19.021-3.786-1.022v3.193l4.128 1.105.596 5.658h-3.958v2.767h4.255l.213 2.043h7.191l-.213-2.043h12.511v-8.65l3.234-.893v-3.197l-3.234.894V3.836c0-1.053-.369-1.952-1.107-2.707Q20.723.001 19.106 0h-8.127v2.767h3.447q.552 0 .914.36.362.362.362.917v23.911h-5.575L7.233 0zm-12.34 0v23.36h-3.532v2.767h3.532v6.638h7.064v-6.638h3.361V23.36h-3.361V0z" clip-path="url(#L)" transform="matrix(1.3333 0 0 -1.3333 1396.7 251.08)"/>
    <path d="M506.03 63.994h22.808v-2.767H506.03zm24.171-25.531-.511 1.489-28.766-1.275q-1.319-.087-2.169 1.022a2.6 2.6 0 0 0-.49 1.126q-.107.619.107 1.211l4.297 11.916h-5.616v2.767h40.89v-2.767h-28.04l-3.958-11.064q-.127-.467.128-.807.254-.342.724-.342l21.956.893-2.937 8.64h7.235l4.384-12.809zm-23.489 29.234q-.553 0-.767-.468l-2.041-4.852h-7.49l2.767 6.171a3.3 3.3 0 0 0 1.232 1.403q.81.512 1.83.512h30.51q.978 0 1.809-.512.829-.51 1.255-1.403l2.766-6.171h-7.488l-2.044 4.852q-.214.467-.765.468z" clip-path="url(#M)" transform="matrix(1.3333 0 0 -1.3333 775.91 302.36)"/>
  </g>
  <path fill="#024686" d="M1551.8 377.95h377.937V.013H1551.8z"/>
  <g fill="#fff">
    <path d="M0 0c-.685-7.829 5.106-14.731 12.936-15.416 7.829-.686 14.731 5.106 15.417 12.936.685 7.829-5.107 14.731-12.936 15.417C7.587 13.621.685 7.829 0 0" clip-path="url(#N)" transform="matrix(1.3333 0 0 -1.3333 1730.5 333.71)"/>
    <path d="m0 0 16.708 62.354 2.928-3.798C31.234 43.514 37.827 25.655 38.76 6.803L62.578.421c.507 33.143-13.142 64.853-37.727 87.394a116.2 116.2 0 0 1-21.67 15.694l-32.229-120.28 61.023-16.35-1.135-2.539a92 92 0 0 0-5.861-11.031C14.807-63.054-.604-76.11-18.416-83.459l-4.437-1.83 12.418 46.344-22.91 6.138L-46.96-83.62c13.364-1.668 23.273-13.314 22.834-26.725a116 116 0 0 1 19.66 7.114A116.7 116.7 0 0 1 17.008-90.19a117 117 0 0 1 18.16 17.295 116.2 116.2 0 0 1 14.121 20.943c1.824 3.47 3.488 7.07 4.947 10.704a116 116 0 0 1 6.878 24.873z" clip-path="url(#O)" transform="matrix(1.3333 0 0 -1.3333 1816.3 189.36)"/>
    <path d="M0 0a118 118 0 0 1-6.565 1.761c-5.212-.146-9.76-3.725-11.117-8.787l-50.175-187.26-.73-2.666-.324.143a20.38 20.38 0 0 0-23.605-10.79 20.34 20.34 0 0 0-14.925 16.952 11.77 11.77 0 0 1-3.156 6.577c-2 2.099-4.68 3.394-7.549 3.645a12 12 0 0 1-2.64-.065 11.8 11.8 0 0 1-6.468-3.053 11.89 11.89 0 0 1-3.689-10.292 44.05 44.05 0 0 1 10.371-22.953 44 44 0 0 1 2.863-3.012c5.313-5.089 11.901-8.791 19.055-10.708a45 45 0 0 1 7.622-1.346 44 44 0 0 1 9.77.244l.086.011a43.9 43.9 0 0 1 18.408 7.007 44 44 0 0 1 10.319 9.578 43.8 43.8 0 0 1 7.522 14.715c.107.368.194.675.272.967L5.228-13.162C6.583-8.102 4.437-2.73 0 .003" clip-path="url(#P)" transform="matrix(1.3333 0 0 -1.3333 1789.5 38.169)"/>
    <path d="M0 0a78.1 78.1 0 0 1-6.117-22.915l24.486-6.561L2.38-89.145a28.6 28.6 0 0 0 4.24-3.658 28.27 28.27 0 0 0 7.585-15.793 3.78 3.78 0 0 1 3.424-3.264q.317-.028.634 0a3.77 3.77 0 0 1 3.258 2.548l.046.135 25.85 96.472z" clip-path="url(#Q)" transform="matrix(1.3333 0 0 -1.3333 1649.2 144.59)"/>
    <path d="M0 0a115.8 115.8 0 0 1-24.176-8.144A116.7 116.7 0 0 1-45.751-21.19a117 117 0 0 1-18.244-17.336 116.3 116.3 0 0 1-14.179-21.011 116 116 0 0 1-4.945-10.705 116 116 0 0 1-7.192-26.947 118 118 0 0 1-1.068-11.749c-.883-21.65 4.26-42.94 14.893-61.746a28.46 28.46 0 0 0 11.728 4.365c2.096.284 4.222.335 6.32.151a28.4 28.4 0 0 0 8.613-2.146l-.148.206a88 88 0 0 0-1.247 1.749l-.338.487c-8.54 12.42-13.84 26.53-15.571 41.415l-.043.372q-.05.438-.096.875a93 93 0 0 0-.259 2.996q-.011.14-.019.276a90 90 0 0 0-.166 3.375l-.002.038-.001.027a93 93 0 0 0-.005 5.422l.004.142q.017.58.041 1.161l.011.252q.024.525.053 1.049l.018.317a87 87 0 0 0 .088 1.332q.047.64.102 1.283l.002.019c.026.297.055.611.09.961l.059.577.278 2.699.041-.011a92.2 92.2 0 0 0 6.115 22.916l-.04.011.946 2.117c9.48 21.501 26.832 38.489 48.121 47.662l.1.043q.869.374 1.747.731l4.289 1.747-.038-.145-4.664-17.404-7.773-29.013 22.909-6.138 11.524 43.009 3.905 14.572L26.587 2.62C17.627 2.771 8.698 1.892 0 0" clip-path="url(#R)" transform="matrix(1.3333 0 0 -1.3333 1711.8 35.126)"/>
  </g>
  <g fill="#024686">
    <path d="M2102.7 266.4c-.748 8.545 5.575 16.08 14.12 16.828 8.546.748 16.08-5.575 16.827-14.121s-5.574-16.079-14.12-16.827-16.079 5.575-16.827 14.12m70.3-118.18 18.237-68.058 3.194 4.144c12.661 16.42 19.857 35.912 20.875 56.49l25.998 6.965c.554-36.177-14.344-70.789-41.18-95.392a126.8 126.8 0 0 0-23.652-17.129l-35.178 131.285 66.606 17.847-1.238 2.772a101 101 0 0 1-6.397 12.043c-11.103 17.857-27.925 32.11-47.366 40.13l-4.844 1.998 13.555-50.584-25.006-6.701-14.861 55.464c14.586 1.82 25.402 14.53 24.923 29.17a126.4 126.4 0 0 0 21.46-7.764 127.6 127.6 0 0 0 23.439-14.234 128 128 0 0 0 19.82-18.88 126.8 126.8 0 0 0 15.415-22.86 127 127 0 0 0 5.399-11.682 126.7 126.7 0 0 0 7.507-27.15zm-22-123.772a126 126 0 0 0-7.166-1.923c-5.69.159-10.654 4.066-12.135 9.592l-54.766 204.395-.796 2.91-.354-.157a22.25 22.25 0 0 1-21.94 12.453 22 22 0 0 1-3.824-.676 22.2 22.2 0 0 1-16.292-18.503 12.85 12.85 0 0 0-3.445-7.179 12.94 12.94 0 0 0-8.24-3.977 13 13 0 0 0-2.883.07c-2.658.36-5.1 1.514-7.058 3.333a12.97 12.97 0 0 0-4.027 11.234 48.1 48.1 0 0 0 11.32 25.054 48 48 0 0 0 3.124 3.285c5.798 5.555 12.992 9.597 20.8 11.69a48.7 48.7 0 0 0 8.32 1.469c3.535.308 7.122.22 10.663-.267l.095-.01a48 48 0 0 0 20.091-7.651 47.9 47.9 0 0 0 11.264-10.453 47.8 47.8 0 0 0 8.21-16.062c.118-.402.21-.736.296-1.055l54.448-203.208c1.48-5.522-.862-11.387-5.705-14.37"/>
    <path d="M2036.2 111.57a85.2 85.2 0 0 0-6.677 25.013l26.727 7.16-17.453 65.13a31.3 31.3 0 0 1 4.63 3.993 30.86 30.86 0 0 1 8.278 17.238 4.12 4.12 0 0 0 3.739 3.563q.343.031.69 0a4.12 4.12 0 0 0 3.557-2.781l.05-.147 28.214-105.301z"/>
    <path d="M2087.4 21.956a126.4 126.4 0 0 0-26.389 8.89 127.4 127.4 0 0 0-23.55 14.24 127.8 127.8 0 0 0-19.914 18.922 127 127 0 0 0-15.476 22.934 127 127 0 0 0-5.398 11.684 126.8 126.8 0 0 0-7.85 29.414 130 130 0 0 0-1.166 12.825c-.962 23.629 4.652 46.868 16.257 67.394a31.1 31.1 0 0 1 12.801-4.764 31 31 0 0 1 16.3 2.177l-.162-.223a104 104 0 0 1-1.36-1.91q-.187-.264-.37-.532c-9.321-13.555-15.107-28.957-16.996-45.204l-.047-.406a85 85 0 0 1-.241-2.376l-.036-.439q-.06-.704-.11-1.41l-.022-.302q-.122-1.834-.181-3.684l-.001-.04-.002-.03q-.087-2.943-.005-5.918l.004-.156a81 81 0 0 1 .057-1.542q.027-.572.058-1.146l.02-.345q.032-.55.072-1.101.01-.177.024-.354.05-.698.112-1.4v-.02c.03-.325.06-.668.1-1.049q.03-.315.064-.63l.303-2.946.044.012a100.7 100.7 0 0 1 6.675-25.012l-.043-.012 1.034-2.312c10.346-23.47 29.287-42.011 52.524-52.024l.109-.047q.949-.407 1.905-.797l4.683-1.906-.042.158-5.09 18.996-8.485 31.668 25.005 6.7 12.58-46.946 4.262-15.905 6.962-25.986c-9.78-.165-19.526.795-29.019 2.86M3196.6 254.77h-54.215l-59.789-158.69q-.506-2.43-3.884-2.431c-2.364 0-3.946.81-4.729 2.432l-58.605 158.689h-54.89q6.418-19.457 20.097-58.523a5349 5349 0 0 1 30.064-82.688q16.213-43.017 19.928-48.186 6.925-8.664 19.845-13.225 12.922-4.56 28.121-4.56c10.022 0 19.362 1.52 28.037 4.56q13.004 4.561 19.591 13.225 4.214 5.017 20.268 48.034c7.537 20.166 17.452 47.728 29.724 82.688a12167 12167 0 0 0 20.437 58.675m-255.914 0h-50.836v-81.322h-91.54v81.322h-50.837V48.655h50.837v80.26h91.54v-80.26h50.836zM2717.88 92.12h-121.941c-5.518 0-9.88 1.87-13.09 5.602q-4.814 5.601-4.814 13.169c0 4.942 1.545 9.182 4.647 12.717 3.096 3.535 7.514 5.298 13.257 5.298h71.78c19.359 0 34.678 6.536 45.938 19.608 10.241 11.856 15.369 26.297 15.369 43.322q0 25.687-15.2 43.32-16.89 19.61-46.108 19.609h-130.723v-43.778h122.447q7.762 0 12.667-6.081 4.392-5.471 4.392-13.224c0-4.965-1.464-9.244-4.392-12.846q-4.399-5.391-12.667-5.393h-71.948c-19.481 0-34.905-6.475-46.277-19.434-10.362-11.739-15.538-26.06-15.538-42.967q0-25.352 15.37-42.809c11.484-13.054 26.964-19.586 46.445-19.586h130.386zm-222.808 0H2391.37c-12.389 0-22.126 5.974-29.217 17.914q-9.628 16.095-9.628 39.623 0 24.289 9.796 41.44c7.203 12.656 16.89 18.978 29.05 18.978l20.098.912h25.164q7.766 0 12.667-6.081 4.393-5.471 4.392-13.224c0-4.965-1.463-9.244-4.392-12.846q-4.395-5.391-12.667-5.393h-25.164v-44.537h33.44q29.048 0 45.94 19.608c10.243 11.856 15.37 26.297 15.37 43.322q-.001 25.687-15.202 43.32-16.889 19.61-46.108 19.609h-61.984q-40.366-.001-63.671-31.594-20.943-28.248-20.944-69.72.001-42.377 21.28-71.993 23.647-32.809 63.335-32.81h112.147z"/>
    <path d="M0 0h21.254v4.348h19.964V0h21.373v-7.636H0zm58.367-75.278c0-.861.291-1.558.879-2.113q.881-.82 2.055-.821h1.997v-7.636H48.146c-2.581 0-4.792.927-6.632 2.762q-2.761 2.764-2.762 6.632V-20.9H23.839v-55.554c0-2.58-.922-4.788-2.757-6.632-1.845-1.835-4.053-2.762-6.638-2.762H-.937v7.636h2.112c.86 0 1.567.276 2.112.821.55.555.822 1.252.822 2.113v62.004h54.258zm-72.224-10.799-2.113 70.223h11.392l2.112-70.223zm-23.367 0v75.153h-15.74v7.636h15.74v7.865h18.788v-7.865H-2.7v-7.636h-15.736v-75.153zm-15.973 0 2.231 70.223h11.392l-2.232-70.223z" clip-path="url(#S)" transform="matrix(1.3333 0 0 -1.3333 3355.8 53.692)"/>
    <path d="M0 0v49.198l-13.623 1.176v8.457L0 57.771V90.54h19.964V0zm-41.218 1.29v47.908l-13.623 1.176v8.457l13.623-1.06v31.355h19.023V1.29zM-83.497 0l1.06 49.437-11.276.937v8.457l11.511-.936.702 32.645h19.965L-63.533 0z" clip-path="url(#T)" transform="matrix(1.3333 0 0 -1.3333 3583.9 168.61)"/>
    <path d="M0 0h47.793l-1.057 3.765h19.911L67.709 0h48.5v-7.627H67.828v-8.103h45.562v-52.849q.001-4.459-3.073-7.512c-2.045-2.035-4.525-3.057-7.44-3.057H78.278v7.635h10.216c1.334 0 2.485.45 3.465 1.347.979.898 1.467 2.017 1.467 3.346v43.454H67.828v-63.648H47.864v63.648H22.615v-55.782H2.651v63.418h45.213v8.103H0z" clip-path="url(#U)" transform="matrix(1.3333 0 0 -1.3333 3629.5 52.914)"/>
    <path d="m0 0-9.16 31.823h19.491L19.61 0zm-26.31 43.568h17.972v33.937H-26.31zM-54.258 0l9.279 31.823h19.497L-34.643 0zm-.702 43.568h9.394v33.937h-7.75v7.626h7.75v4.816h19.256v-4.816h17.972v4.816h19.257v-4.816h7.75v-7.626h-7.75V43.568h7.984v-7.635H-54.96zM-97 33.936l8.926.707v38.16H-97v7.635h8.926v9.395h19.959v-9.395h9.748v-7.635h-9.748V36.286l9.748.822v-7.635l-9.748-.823V10.216c0-2.982-1.018-5.486-3.054-7.521S-75.708-.354-78.68-.354h-16.676v7.636h3.813c.922 0 1.734.325 2.427.994s1.042 1.51 1.042 2.523v16.208L-97 26.3z" clip-path="url(#V)" transform="matrix(1.3333 0 0 -1.3333 3930.7 167.99)"/>
    <path d="M0 0h4.344L1.763 5.514h16.672L21.254 0h3.173l7.516 9.04H.354v6.575H51.2V9.088L43.215 0c2.188-.087 4.071-.851 5.639-2.313C50.416-3.775 51.2-5.524 51.2-7.579v-7.101l-14.679.116v5.752c0 .631-.234 1.137-.703 1.53a2.5 2.5 0 0 1-1.643.582h-3.054v-18.196c0-2.743-1.017-5.055-3.053-6.928-2.041-1.883-4.545-2.82-7.516-2.82H2.934v6.69H9.16q1.412 0 2.466 1.004c.702.659 1.056 1.424 1.056 2.284V-6.7H0zm-20.433-4.702c.469 0 .88.162 1.234.468.353.315.525.707.525 1.175v2.466h-5.987v-4.109zm1.759 14.211h-5.987V6.336h5.987zm-23.72-14.211v4.109h-5.987v-2.466c0-.391.177-.764.526-1.108.353-.354.764-.535 1.233-.535zm-5.987 11.038h5.987v3.173h-5.987zm-16.442-71.628h48.032v16.677h-46.742v7.626h46.742v5.055H3.173v-5.055h46.736v-7.626H3.173v-16.677H51.2v-7.636H-64.82zm-.234 37.577 22.663.822v5.17h-21.373v7.043l21.373-.114v3.517h-13.857c-2.27 0-4.209.745-5.811 2.226-1.605 1.482-2.408 3.231-2.408 5.256v19.764h61.885V-3.795c0-2.025-.803-3.774-2.403-5.256-1.606-1.481-3.546-2.226-5.816-2.226h-13.857v-3.403l21.374-.114v-6.929h-21.374v-4.587l22.664.822v-6.929l-63.06-2.341z" clip-path="url(#W)" transform="matrix(1.3333 0 0 -1.3333 4060.7 70.601)"/>
    <path d="m0 0-18.554 17.967L-36.988 0h-24.194l30.535 29.702-30.535 29.712h24.194l18.434-18.081L0 59.414h23.959L-6.574 29.702 23.959 0zm-87.954 72.803h114.26v-7.636h-94.3V-3.765c0-.946.353-1.758 1.055-2.465q1.061-1.05 2.466-1.052h90.779v-7.636h-103.63c-2.991 0-5.515 1.022-7.56 3.059-2.05 2.035-3.072 4.51-3.072 7.406z" clip-path="url(#X)" transform="matrix(1.3333 0 0 -1.3333 4264.9 147.95)"/>
    <path d="M0 0c.932 0 1.739.354 2.438 1.061q1.045 1.06 1.045 2.465v37.348H-6.848V0zm3.483 66.122H-6.848V48.5H3.483zM-37.969 0h11.157v40.874h-11.157zm0 48.5h11.157v17.622h-11.157zM-57.933 0v40.874h-10.45V3.526c0-.936.349-1.758 1.057-2.465Q-66.274.001-64.861 0zm-10.45 48.5h10.45v17.622h-10.45zm-19.964 25.249h30.414v7.874h19.964v-7.874h11.157v7.874h19.964v-7.874h30.295V2.943c0-2.895-1.017-5.39-3.057-7.464-2.036-2.074-4.506-3.106-7.403-3.106h-90.755c-2.9 0-5.384 1.032-7.463 3.106s-3.116 4.569-3.116 7.464z" clip-path="url(#Y)" transform="matrix(1.3333 0 0 -1.3333 4439.2 156.73)"/>
    <path d="M0 0v-11.975l10.923 1.758v-7.281L0-19.257v-22.659c0-1.022.311-1.863.941-2.532.626-.659 1.367-.994 2.232-.994h7.75v-7.512h-21.727c-2.585 0-4.798 1.032-6.633 3.106q-2.763 3.111-2.761 7.454V0zm-12.916 10.693c.779 0 1.467.268 2.055.823.588.545.88 1.252.88 2.112v4.931h-25.13v-4.931c0-.86.292-1.567.879-2.112.587-.555 1.309-.823 2.174-.823zm-22.195 19.726v-4.225h25.13v4.11zM-33.821 0v-12.09h10.336v-7.636h-10.336v-22.19c0-1.022.315-1.863.941-2.532.626-.659 1.367-.994 2.232-.994h7.163v-7.512h-20.729c-2.681 0-4.945 1.032-6.795 3.106q-2.774 3.111-2.776 7.454V0zm-21.02 37.348H9.867V15.156c0-3.297-1.137-6.068-3.407-8.343-2.274-2.274-5.05-3.402-8.338-3.402h-41.218c-3.287 0-6.068 1.128-8.338 3.402-2.274 2.275-3.407 5.046-3.407 8.343zm-14.092-90.187-2.111 70.223h10.918l2.117-70.223zm-21.841 0v75.153h-14.564v7.751l14.564-.115v7.865h17.966v-7.75l14.56-.115v-7.636h-14.56v-75.153zm-14.798 0 2.231 70.223h10.804l-2.232-70.223z" clip-path="url(#Z)" transform="matrix(1.3333 0 0 -1.3333 4631.3 98.009)"/>
    <path d="m0 0-4.578 45.088h18.082L17.967 0zm17.264 69.515-3.76-18.788H-4.578l3.876 18.788zm-55.662 0 3.875-18.788h-18.086l-3.756 18.788zM-57.072 0l4.463 45.088h18.086L-39.105 0zm71.164 87.721.587-4.818h3.407v-7.635H-9.628V9.04c0-2.895-.999-5.38-2.996-7.464-1.998-2.073-4.444-3.105-7.34-3.105h-16.791v7.282h3.814c.921 0 1.71.353 2.369 1.051.65.707.98 1.529.98 2.466v65.998h-27.596v7.635h27.596v6.222h19.964v-6.222H-2.7l-.587 4.818zm-112.74-81.5 9.159.583v41.103h-8.338v7.636h8.338v24.303h-8.806v7.635h37.576v-7.635h-8.806V55.543h8.338v-7.636h-8.338V8.094l9.16.478V1.051l-38.283-2.466z" clip-path="url(#aa)" transform="matrix(1.3333 0 0 -1.3333 4794.3 166.42)"/>
    <path d="m0 0 5.519 52.495-10.451-2.819v8.811L6.46 61.535l1.644 15.616H-2.819v7.636H8.926l.588 5.639h19.843l-.587-5.639h34.528V60.914l8.926-2.466v-8.82l-8.926 2.466V10.589c0-2.905-1.018-5.39-3.053-7.474C58.209 1.042 55.7 0 52.729 0h-22.43v7.636h9.514c1.012 0 1.859.335 2.523.994.664.669.998 1.51.998 2.532v65.989H27.948L19.964 0zm-34.056 0v64.47h-9.748v7.635h9.748v18.321h19.496V72.105h9.275V64.47h-9.275V0z" clip-path="url(#ab)" transform="matrix(1.3333 0 0 -1.3333 4893.7 168.78)"/>
    <path d="M2319.6 170.65h62.945v-7.636H2319.6zm66.706-70.462-1.41 4.109-79.387-3.516c-2.427-.163-4.42.783-5.987 2.819a7.2 7.2 0 0 0-1.353 3.105 6.5 6.5 0 0 0 .296 3.345l11.861 32.885h-15.501v7.636h112.85v-7.636h-77.384l-10.924-30.533q-.35-1.293.353-2.227.702-.946 1.998-.946l60.594 2.465-8.103 23.844h19.963l12.099-35.35zm-64.823 80.678q-1.528 0-2.117-1.29l-5.633-13.39h-20.672l7.636 17.03c.779 1.644 1.916 2.934 3.402 3.871 1.486.946 3.173 1.414 5.051 1.414h84.199a9.3 9.3 0 0 0 4.993-1.414q2.288-1.405 3.465-3.871l7.631-17.03h-20.667l-5.638 13.39c-.392.859-1.099 1.29-2.112 1.29z" clip-path="url(#ac)" transform="matrix(1.3333 0 0 -1.3333 1949.8 302.36)"/>
    <use xlink:href="#ad" clip-path="url(#ae)" transform="matrix(1.3333 0 0 -1.3333 3318.9 253.88)"/>
    <path d="m0 0-5.421-13.229H5.42zm12.353-30.301-3.728 9.147H-8.621l-3.733-9.147h-9.147l17.48 41.08h8.274l17.484-41.08z" clip-path="url(#af)" transform="matrix(1.3333 0 0 -1.3333 3367.9 213.48)"/>
    <path d="m0 0-19.755 25.929V0h-8.858v40.79h8.275l19.115-25.118V40.79H7.63V0z" clip-path="url(#ag)" transform="matrix(1.3333 0 0 -1.3333 3443.4 253.88)"/>
    <path d="M0 0q-4.338-1.892-9.934-1.892c-3.187 0-6.088.522-8.712 1.57q-3.933 1.578-6.756 4.372-2.83 2.795-4.401 6.643-1.573 3.843-1.574 8.389v.118c0 2.912.535 5.644 1.603 8.186a20.9 20.9 0 0 0 4.457 6.7c1.902 1.925 4.159 3.437 6.762 4.548q3.898 1.657 8.564 1.659 2.737-.001 4.984-.379a24 24 0 0 0 4.163-1.077 19 19 0 0 0 3.614-1.749 26 26 0 0 0 3.262-2.391L.38 27.883a23 23 0 0 1-2.328 1.745q-1.167.76-2.419 1.285c-.839.347-1.74.621-2.712.816q-1.459.291-3.201.29c-1.636 0-3.158-.342-4.576-1.02a12.5 12.5 0 0 1-3.732-2.746q-1.6-1.727-2.504-4.03-.902-2.305-.901-4.937v-.114q-.001-2.808.901-5.169.903-2.365 2.566-4.12a11.6 11.6 0 0 1 3.902-2.713c1.494-.645 3.158-.962 4.984-.962q5.008 0 8.446 2.461v5.87h-9.03v7.749H7.488V4.576Q4.346 1.894 0 0" clip-path="url(#ah)" transform="matrix(1.3333 0 0 -1.3333 3506.1 252.28)"/>
    <path d="M0 0v6.818l22.435 26.106H.702v7.866h33.27v-6.818L11.537 7.866h22.435V0z" clip-path="url(#ai)" transform="matrix(1.3333 0 0 -1.3333 3525.9 253.88)"/>
    <use xlink:href="#ad" clip-path="url(#aj)" transform="matrix(1.3333 0 0 -1.3333 3616.6 253.88)"/>
    <path d="M0 0c0 1.745-.299 3.4-.901 4.951q-.903 2.335-2.566 4.078a12.3 12.3 0 0 1-3.93 2.77q-2.275 1.018-4.957 1.019-2.737-.001-4.983-.991a11.5 11.5 0 0 1-3.846-2.736 13 13 0 0 1-2.504-4.05q-.902-2.303-.901-4.927V0q-.001-2.622.901-4.955a12.4 12.4 0 0 1 2.566-4.078 12.5 12.5 0 0 1 3.902-2.77q2.243-1.017 4.985-1.019c1.782 0 3.437.332 4.95.991 1.517.664 2.807 1.574 3.874 2.741A12.9 12.9 0 0 1-.901-5.04C-.299-3.509 0-1.863 0-.118zm7.748-8.189a21.1 21.1 0 0 0-4.515-6.701c-1.92-1.92-4.215-3.437-6.876-4.543-2.66-1.109-5.562-1.659-8.711-1.659-3.143 0-6.041.55-8.682 1.659-2.641 1.106-4.922 2.599-6.848 4.487a20 20 0 0 0-4.485 6.643c-1.068 2.542-1.603 5.274-1.603 8.185V0c0 2.912.545 5.644 1.631 8.186 1.091 2.545 2.594 4.779 4.52 6.7 1.92 1.925 4.211 3.437 6.875 4.548 2.661 1.104 5.562 1.659 8.712 1.659q4.714-.002 8.682-1.659c2.641-1.111 4.922-2.604 6.843-4.487 1.925-1.887 3.419-4.101 4.49-6.643C8.849 5.757 9.384 3.03 9.384.114V0c0-2.916-.545-5.643-1.636-8.189" clip-path="url(#ak)" transform="matrix(1.3333 0 0 -1.3333 3684.5 226.68)"/>
    <path d="M0 0c-.839-2.295-2.034-4.206-3.585-5.742Q-5.916-8.04-9.237-9.18q-3.321-1.132-7.403-1.133-8.213-.002-12.935 4.542-4.718 4.548-4.719 13.577v23.311h8.972V8.043c0-3.343.778-5.856 2.333-7.55q2.328-2.531 6.468-2.532 4.134 0 6.468 2.447 2.327 2.447 2.328 7.341v23.368h8.977V8.1Q1.252 3.435 0 0" clip-path="url(#al)" transform="matrix(1.3333 0 0 -1.3333 3752.5 240.98)"/>
    <path d="M0 0q-4.337-1.892-9.935-1.892c-3.186 0-6.087.522-8.711 1.57q-3.933 1.578-6.756 4.372-2.83 2.795-4.401 6.643-1.573 3.843-1.574 8.389v.118c0 2.912.535 5.644 1.603 8.186a20.9 20.9 0 0 0 4.457 6.7c1.901 1.925 4.159 3.437 6.762 4.548q3.898 1.657 8.564 1.659 2.737-.001 4.984-.379a24 24 0 0 0 4.163-1.077 19 19 0 0 0 3.614-1.749 26 26 0 0 0 3.262-2.391L.38 27.883a23 23 0 0 1-2.328 1.745q-1.167.76-2.419 1.285c-.839.347-1.74.621-2.712.816q-1.459.291-3.201.29c-1.636 0-3.158-.342-4.576-1.02a12.5 12.5 0 0 1-3.732-2.746 12.7 12.7 0 0 1-2.504-4.03q-.902-2.305-.901-4.937v-.114q-.001-2.808.901-5.169.902-2.365 2.566-4.12a11.6 11.6 0 0 1 3.902-2.713c1.494-.645 3.158-.962 4.984-.962q5.008 0 8.446 2.461v5.87h-9.03v7.749H7.488V4.576Q4.345 1.894 0 0" clip-path="url(#am)" transform="matrix(1.3333 0 0 -1.3333 3829.1 252.28)"/>
    <path d="M0 0c0 1.745-.299 3.4-.901 4.951q-.903 2.335-2.566 4.078a12.3 12.3 0 0 1-3.93 2.77q-2.275 1.018-4.957 1.019-2.737-.001-4.983-.991a11.5 11.5 0 0 1-3.846-2.736 13 13 0 0 1-2.504-4.05q-.902-2.303-.901-4.927V0q-.001-2.622.901-4.955a12.3 12.3 0 0 1 2.566-4.078 12.5 12.5 0 0 1 3.902-2.77q2.243-1.017 4.985-1.019c1.782 0 3.437.332 4.95.991 1.517.664 2.807 1.574 3.874 2.741A12.9 12.9 0 0 1-.901-5.04C-.299-3.509 0-1.863 0-.118zm7.748-8.189a21.1 21.1 0 0 0-4.515-6.701c-1.92-1.92-4.215-3.437-6.876-4.543-2.66-1.109-5.562-1.659-8.711-1.659-3.143 0-6.041.55-8.682 1.659-2.641 1.106-4.922 2.599-6.848 4.487a20 20 0 0 0-4.485 6.643c-1.068 2.542-1.603 5.274-1.603 8.185V0c0 2.912.545 5.644 1.631 8.186 1.091 2.545 2.594 4.779 4.52 6.7 1.92 1.925 4.21 3.437 6.875 4.548 2.661 1.104 5.562 1.659 8.712 1.659q4.714-.002 8.682-1.659c2.641-1.111 4.922-2.604 6.843-4.487 1.925-1.887 3.419-4.101 4.49-6.643C8.849 5.757 9.384 3.03 9.384.114V0c0-2.916-.545-5.643-1.636-8.189" clip-path="url(#an)" transform="matrix(1.3333 0 0 -1.3333 3893.5 226.68)"/>
    <use xlink:href="#ao" clip-path="url(#ap)" transform="matrix(1.3333 0 0 -1.3333 3954.8 253.88)"/>
    <path d="M0 0q-4.338-1.892-9.935-1.892-4.778-.001-8.711 1.57-3.934 1.578-6.757 4.372-2.83 2.795-4.401 6.643-1.573 3.843-1.574 8.389v.118c0 2.912.535 5.644 1.603 8.186a20.9 20.9 0 0 0 4.457 6.7c1.902 1.925 4.159 3.437 6.762 4.548q3.898 1.657 8.564 1.659 2.737-.001 4.984-.379a24 24 0 0 0 4.163-1.077 19 19 0 0 0 3.614-1.749 26 26 0 0 0 3.262-2.391L.379 27.883a23 23 0 0 1-2.328 1.745q-1.167.76-2.419 1.285c-.839.347-1.74.621-2.712.816q-1.459.291-3.201.29c-1.636 0-3.158-.342-4.576-1.02a12.5 12.5 0 0 1-3.732-2.746q-1.6-1.727-2.504-4.03-.902-2.305-.901-4.937v-.114q-.001-2.808.901-5.169.903-2.365 2.566-4.12a11.6 11.6 0 0 1 3.902-2.713c1.494-.645 3.158-.962 4.984-.962q5.009 0 8.446 2.461v5.87h-9.03v7.749H7.487V4.576Q4.344 1.894 0 0" clip-path="url(#aq)" transform="matrix(1.3333 0 0 -1.3333 4017.5 252.28)"/>
    <path d="M0 0a11.1 11.1 0 0 0-3.068-3.965q-1.97-1.6-4.7-2.446c-1.821-.56-3.836-.845-6.05-.845q-4.66.001-9.148 1.604-4.487 1.6-8.156 4.922l5.302 6.354q2.793-2.277 5.737-3.613Q-17.136.667-13.644.668-10.848.67-9.3 1.687c1.025.684 1.542 1.623 1.542 2.827v.119q-.001.873-.323 1.546-.32.668-1.223 1.252-.909.576-2.513 1.161-1.609.582-4.178 1.228-3.1.756-5.609 1.689-2.513.933-4.264 2.3a9.3 9.3 0 0 0-2.717 3.409q-.968 2.04-.968 5.069v.118c0 1.865.352 3.543 1.044 5.041a11.5 11.5 0 0 0 2.926 3.874q1.878 1.63 4.49 2.504 2.61.874 5.762.873c2.987 0 5.737-.446 8.241-1.338a24 24 0 0 0 6.909-3.845l-4.661-6.762c-1.83 1.247-3.613 2.224-5.363 2.944-1.75.717-3.495 1.077-5.245 1.077s-3.059-.336-3.931-1.019q-1.314-1.018-1.313-2.532v-.119q.001-.99.379-1.717c.256-.489.711-.924 1.376-1.314.659-.388 1.564-.759 2.716-1.104q1.722-.527 4.354-1.224 3.093-.818 5.519-1.835 2.425-1.023 4.087-2.447 1.667-1.43 2.514-3.353.848-1.921.849-4.604v-.113Q1.1 2.361 0 0" clip-path="url(#ar)" transform="matrix(1.3333 0 0 -1.3333 4076.8 244.98)"/>
    <use xlink:href="#ad" clip-path="url(#as)" transform="matrix(1.3333 0 0 -1.3333 4122.7 253.88)"/>
    <path d="M0 0c-.84-2.295-2.034-4.206-3.585-5.742-1.556-1.531-3.437-2.679-5.652-3.438q-3.321-1.132-7.403-1.133-8.214-.002-12.936 4.542-4.717 4.548-4.718 13.577v23.311h8.972V8.043c0-3.343.777-5.856 2.333-7.55q2.327-2.531 6.468-2.532 4.134 0 6.468 2.447 2.327 2.447 2.328 7.341v23.368h8.977V8.1Q1.252 3.435 0 0" clip-path="url(#at)" transform="matrix(1.3333 0 0 -1.3333 4192.6 240.98)"/>
    <use xlink:href="#ad" clip-path="url(#au)" transform="matrix(1.3333 0 0 -1.3333 4263.8 253.88)"/>
    <path d="M0 0c0 1.745-.299 3.4-.901 4.951q-.903 2.335-2.566 4.078a12.3 12.3 0 0 1-3.93 2.77q-2.275 1.018-4.957 1.019-2.737-.001-4.983-.991a11.5 11.5 0 0 1-3.846-2.736 13 13 0 0 1-2.504-4.05q-.902-2.303-.901-4.927V0q-.001-2.622.901-4.955a12.4 12.4 0 0 1 2.566-4.078 12.5 12.5 0 0 1 3.902-2.77q2.243-1.017 4.985-1.019c1.782 0 3.437.332 4.95.991 1.517.664 2.807 1.574 3.874 2.741A12.9 12.9 0 0 1-.901-5.04C-.299-3.509 0-1.863 0-.118zm7.748-8.189a21.1 21.1 0 0 0-4.515-6.701c-1.92-1.92-4.214-3.437-6.876-4.543-2.66-1.109-5.561-1.659-8.711-1.659-3.143 0-6.041.55-8.682 1.659-2.641 1.106-4.922 2.599-6.848 4.487a20 20 0 0 0-4.485 6.643c-1.068 2.542-1.603 5.274-1.603 8.185V0c0 2.912.545 5.644 1.631 8.186 1.091 2.545 2.594 4.779 4.52 6.7 1.92 1.925 4.211 3.437 6.876 4.548q3.988 1.657 8.711 1.659 4.714-.002 8.682-1.659c2.641-1.111 4.922-2.604 6.843-4.487q2.886-2.83 4.49-6.643C8.849 5.757 9.384 3.03 9.384.114V0c0-2.916-.545-5.643-1.636-8.189" clip-path="url(#av)" transform="matrix(1.3333 0 0 -1.3333 4331.7 226.68)"/>
    <path d="M0 0a19.2 19.2 0 0 0-3.698-2.304A19 19 0 0 0-8.1-3.76c-1.592-.332-3.38-.493-5.358-.493-2.992 0-5.771.54-8.336 1.631q-3.841 1.628-6.639 4.458-2.801 2.823-4.372 6.672c-1.048 2.56-1.574 5.302-1.574 8.213v.118c0 2.912.526 5.643 1.574 8.185q1.571 3.82 4.372 6.701 2.795 2.884 6.701 4.547c2.598 1.105 5.476 1.66 8.621 1.66 1.906 0 3.641-.157 5.215-.465q2.362-.468 4.283-1.285a18.5 18.5 0 0 0 3.556-1.978 24 24 0 0 0 3.031-2.565l-5.71-6.586q-2.39 2.156-4.866 3.381-2.48 1.223-5.566 1.223-2.562-.001-4.747-.991a11.2 11.2 0 0 1-3.761-2.736 12.8 12.8 0 0 1-2.446-4.05q-.875-2.303-.873-4.927v-.114q-.002-2.623.873-4.955.874-2.327 2.418-4.078a11.3 11.3 0 0 1 3.727-2.77c1.46-.678 3.059-1.019 4.809-1.019 2.333 0 4.301.426 5.913 1.285q2.418 1.281 4.809 3.495L3.263 3.03A29 29 0 0 0 0 0" clip-path="url(#aw)" transform="matrix(1.3333 0 0 -1.3333 4398.3 249.14)"/>
    <path d="m0 0-12.642 17.365-4.718-4.894V0h-8.977v40.79h8.977V22.956L-.815 40.79h10.839L-6.582 23.482 10.783 0z" clip-path="url(#ax)" transform="matrix(1.3333 0 0 -1.3333 4447.3 253.88)"/>
    <path d="M0 0v40.79h30.709v-7.985H8.857V24.53h19.23v-7.981H8.857V7.98h22.141V0z" clip-path="url(#ay)" transform="matrix(1.3333 0 0 -1.3333 4468.9 253.88)"/>
    <path d="M0 0v-16.255h-8.972v16.08l-15.677 24.71h10.489l9.73-16.374 9.907 16.374h10.2z" clip-path="url(#az)" transform="matrix(1.3333 0 0 -1.3333 4548.2 232.2)"/>
    <path d="m0 0-5.42-13.229H5.42zm12.353-30.301-3.727 9.147H-8.621l-3.732-9.147H-21.5l17.479 41.08h8.275l17.483-41.08z" clip-path="url(#aA)" transform="matrix(1.3333 0 0 -1.3333 4623.9 213.48)"/>
    <path d="M0 0a11.1 11.1 0 0 0-3.068-3.965q-1.97-1.6-4.7-2.446c-1.821-.56-3.836-.845-6.05-.845q-4.66.001-9.148 1.604-4.487 1.6-8.156 4.922l5.302 6.354q2.793-2.277 5.737-3.613Q-17.136.667-13.644.668-10.848.67-9.3 1.687c1.025.684 1.542 1.623 1.542 2.827v.119q-.001.873-.323 1.546-.32.668-1.223 1.252-.909.576-2.513 1.161-1.609.582-4.178 1.228-3.1.756-5.609 1.689-2.513.933-4.264 2.3a9.3 9.3 0 0 0-2.717 3.409q-.968 2.04-.968 5.069v.118c0 1.865.352 3.543 1.044 5.041a11.5 11.5 0 0 0 2.926 3.874q1.878 1.63 4.49 2.504t5.762.873c2.987 0 5.737-.446 8.241-1.338a24 24 0 0 0 6.909-3.845l-4.661-6.762c-1.83 1.247-3.613 2.224-5.363 2.944-1.75.717-3.495 1.077-5.245 1.077s-3.059-.336-3.931-1.019q-1.314-1.018-1.313-2.532v-.119q.001-.99.379-1.717c.257-.489.712-.924 1.376-1.314.659-.388 1.564-.759 2.716-1.104q1.722-.527 4.354-1.224 3.093-.818 5.519-1.835 2.425-1.023 4.087-2.447 1.667-1.43 2.514-3.353.848-1.921.849-4.604v-.113Q1.1 2.361 0 0" clip-path="url(#aB)" transform="matrix(1.3333 0 0 -1.3333 4699.1 244.98)"/>
    <path d="M0 0a11.1 11.1 0 0 0-3.068-3.965q-1.969-1.6-4.7-2.446c-1.821-.56-3.836-.845-6.05-.845q-4.66.001-9.148 1.604-4.487 1.6-8.156 4.922l5.302 6.354q2.793-2.277 5.737-3.613 2.946-1.344 6.44-1.343 2.795.002 4.344 1.019c1.024.684 1.541 1.623 1.541 2.827v.119q-.001.873-.323 1.546-.32.668-1.223 1.252-.909.576-2.513 1.161-1.609.582-4.178 1.228-3.1.756-5.609 1.689-2.512.933-4.264 2.3a9.3 9.3 0 0 0-2.717 3.409q-.967 2.04-.968 5.069v.118c0 1.865.352 3.543 1.044 5.041a11.5 11.5 0 0 0 2.926 3.874q1.879 1.63 4.49 2.504 2.61.874 5.762.873c2.987 0 5.737-.446 8.241-1.338a24 24 0 0 0 6.909-3.845l-4.661-6.762c-1.83 1.247-3.613 2.224-5.363 2.944-1.75.717-3.495 1.077-5.244 1.077-1.75 0-3.059-.336-3.932-1.019q-1.314-1.018-1.313-2.532v-.119q.001-.99.379-1.717c.256-.489.711-.924 1.376-1.314.659-.388 1.564-.759 2.716-1.104q1.722-.527 4.354-1.224 3.093-.818 5.519-1.835c1.618-.682 2.978-1.498 4.088-2.447q1.666-1.43 2.513-3.353.847-1.921.849-4.604v-.113Q1.1 2.361 0 0" clip-path="url(#aC)" transform="matrix(1.3333 0 0 -1.3333 4748.8 244.98)"/>
    <path d="M0 0c0 1.745-.299 3.4-.901 4.951q-.903 2.335-2.566 4.078a12.3 12.3 0 0 1-3.93 2.77q-2.275 1.018-4.957 1.019-2.737-.001-4.983-.991a11.5 11.5 0 0 1-3.846-2.736 13 13 0 0 1-2.504-4.05q-.902-2.303-.901-4.927V0q-.001-2.622.901-4.955a12.4 12.4 0 0 1 2.566-4.078 12.5 12.5 0 0 1 3.902-2.77q2.243-1.017 4.985-1.019c1.783 0 3.437.332 4.95.991 1.517.664 2.807 1.574 3.874 2.741A12.9 12.9 0 0 1-.901-5.04C-.299-3.509 0-1.863 0-.118zm7.748-8.189a21.1 21.1 0 0 0-4.515-6.701c-1.92-1.92-4.214-3.437-6.875-4.543-2.661-1.109-5.562-1.659-8.712-1.659-3.143 0-6.041.55-8.682 1.659-2.641 1.106-4.922 2.599-6.847 4.487a20.05 20.05 0 0 0-4.486 6.643c-1.068 2.542-1.603 5.274-1.603 8.185V0c0 2.912.545 5.644 1.631 8.186 1.091 2.545 2.594 4.779 4.52 6.7 1.92 1.925 4.211 3.437 6.876 4.548q3.989 1.657 8.711 1.659 4.714-.002 8.682-1.659c2.641-1.111 4.922-2.604 6.843-4.487q2.886-2.83 4.49-6.643C8.849 5.757 9.384 3.03 9.384.114V0c0-2.916-.545-5.643-1.636-8.189" clip-path="url(#aD)" transform="matrix(1.3333 0 0 -1.3333 4803.6 226.68)"/>
    <path d="M0 0c-1.128-.896-2.356-1.664-3.698-2.304S-6.506-3.433-8.099-3.76c-1.593-.332-3.381-.493-5.358-.493-2.992 0-5.772.54-8.337 1.631q-3.841 1.628-6.639 4.458-2.801 2.823-4.372 6.672c-1.048 2.56-1.574 5.302-1.574 8.213v.118c0 2.912.526 5.643 1.574 8.185q1.571 3.82 4.372 6.701 2.796 2.884 6.701 4.547c2.598 1.105 5.477 1.66 8.621 1.66 1.906 0 3.641-.157 5.215-.465q2.363-.468 4.283-1.285a18.5 18.5 0 0 0 3.556-1.978 24 24 0 0 0 3.031-2.565l-5.709-6.586q-2.39 2.156-4.867 3.381-2.48 1.223-5.566 1.223-2.562-.001-4.747-.991a11.2 11.2 0 0 1-3.761-2.736 12.8 12.8 0 0 1-2.446-4.05q-.874-2.303-.873-4.927v-.114q0-2.623.873-4.955.875-2.327 2.418-4.078a11.3 11.3 0 0 1 3.727-2.77c1.461-.678 3.059-1.019 4.809-1.019 2.333 0 4.301.426 5.913 1.285q2.418 1.281 4.809 3.495L3.263 3.03A29 29 0 0 0 0 0" clip-path="url(#aE)" transform="matrix(1.3333 0 0 -1.3333 4870.2 249.14)"/>
    <path d="M2201.1 77.155h8.977v-40.79h-8.977z" clip-path="url(#aF)" transform="matrix(1.3333 0 0 -1.3333 1949.8 302.36)"/>
    <path d="m0 0-5.42-13.229H5.421zm12.354-30.301-3.728 9.147H-8.62l-3.733-9.147H-21.5l17.479 41.08h8.275l17.483-41.08z" clip-path="url(#aG)" transform="matrix(1.3333 0 0 -1.3333 4934.2 213.48)"/>
    <path d="M0 0v-32.516h-8.973V0h-12.409v8.274h33.796V0z" clip-path="url(#aH)" transform="matrix(1.3333 0 0 -1.3333 4996.2 210.52)"/>
    <path d="M2304.5 77.155h8.977v-40.79h-8.977z" clip-path="url(#aI)" transform="matrix(1.3333 0 0 -1.3333 1949.8 302.36)"/>
    <path d="M0 0c0 1.745-.299 3.4-.901 4.951a12.2 12.2 0 0 1-2.566 4.078 12.3 12.3 0 0 1-3.93 2.77q-2.275 1.018-4.957 1.019-2.737-.001-4.983-.991a11.5 11.5 0 0 1-3.846-2.736 13 13 0 0 1-2.504-4.05q-.902-2.303-.901-4.927V0q-.001-2.622.901-4.955a12.4 12.4 0 0 1 2.566-4.078 12.5 12.5 0 0 1 3.902-2.77q2.243-1.017 4.985-1.019c1.783 0 3.437.332 4.95.991 1.517.664 2.807 1.574 3.874 2.741A12.8 12.8 0 0 1-.901-5.04C-.299-3.509 0-1.863 0-.118zm7.748-8.189a21.1 21.1 0 0 0-4.515-6.701c-1.92-1.92-4.214-3.437-6.875-4.543-2.661-1.109-5.562-1.659-8.712-1.659-3.143 0-6.041.55-8.682 1.659-2.641 1.106-4.922 2.599-6.847 4.487a20.05 20.05 0 0 0-4.486 6.643c-1.068 2.542-1.603 5.274-1.603 8.185V0c0 2.912.545 5.644 1.631 8.186 1.091 2.545 2.594 4.779 4.52 6.7 1.92 1.925 4.211 3.437 6.876 4.548q3.989 1.657 8.711 1.659 4.714-.002 8.682-1.659c2.641-1.111 4.922-2.604 6.843-4.487q2.886-2.83 4.49-6.643C8.849 5.757 9.384 3.03 9.384.114V0c0-2.916-.545-5.643-1.636-8.189" clip-path="url(#aJ)" transform="matrix(1.3333 0 0 -1.3333 5090.9 226.68)"/>
    <use xlink:href="#ao" clip-path="url(#aK)" transform="matrix(1.3333 0 0 -1.3333 5152.2 253.88)"/>
  </g>
  <g fill="#fff">
    <path d="M0 0c-.561-6.409 4.181-12.061 10.59-12.621C17-13.182 22.65-8.44 23.211-2.031c.56 6.41-4.181 12.06-10.59 12.621C6.211 11.15.561 6.409 0 0" clip-path="url(#aL)" transform="matrix(1.3333 0 0 -1.3333 5373.1 266.4)"/>
    <path d="m0 0 13.678 51.046 2.396-3.108C25.57 35.623 30.967 21.003 31.73 5.569L51.229.345c.416 27.133-10.758 53.092-30.885 71.546a95 95 0 0 1-17.74 12.847L-23.78-13.729l49.956-13.385-.929-2.079a75.5 75.5 0 0 0-4.798-9.032C12.122-51.619-.495-62.309-15.076-68.323l-3.633-1.499 10.166 37.939-18.755 5.026-11.146-41.599c10.94-1.365 19.052-10.899 18.693-21.878a95 95 0 0 1 16.095 5.823A95.6 95.6 0 0 1 28.79-59.675 95 95 0 0 1 40.351-42.53a95 95 0 0 1 4.049 8.762 95 95 0 0 1 5.631 20.363z" clip-path="url(#aM)" transform="matrix(1.3333 0 0 -1.3333 5443.4 148.22)"/>
    <path d="M0 0a95 95 0 0 1-5.375 1.441 9.73 9.73 0 0 1-9.101-7.193l-41.076-153.3-.597-2.182-.265.117a16.69 16.69 0 0 0-16.456-9.34c-.964.084-1.929.255-2.868.507a16.65 16.65 0 0 0-12.219 13.878 9.63 9.63 0 0 1-2.584 5.383 9.7 9.7 0 0 1-6.18 2.984 9.8 9.8 0 0 1-2.162-.053 9.64 9.64 0 0 1-5.294-2.5 9.73 9.73 0 0 1-3.02-8.425 36.07 36.07 0 0 1 8.49-18.791 36 36 0 0 1 2.343-2.465 36.1 36.1 0 0 1 15.6-8.766 36.7 36.7 0 0 1 6.24-1.102 36 36 0 0 1 7.998.2l.071.008a36 36 0 0 1 15.069 5.737 36 36 0 0 1 8.448 7.841 35.9 35.9 0 0 1 6.38 12.838L4.279-10.773A9.73 9.73 0 0 1 0 .004" clip-path="url(#aN)" transform="matrix(1.3333 0 0 -1.3333 5421.4 24.448)"/>
    <path d="M0 0a64 64 0 0 1-5.008-18.759l20.046-5.371-13.09-48.849a23.4 23.4 0 0 0 3.472-2.994 23.15 23.15 0 0 0 6.209-12.929 3.09 3.09 0 0 1 2.804-2.672q.258-.024.518 0a3.09 3.09 0 0 1 2.668 2.086l.037.11L38.817-10.4z" clip-path="url(#aO)" transform="matrix(1.3333 0 0 -1.3333 5306.6 111.57)"/>
    <path d="M0 0a94.8 94.8 0 0 1-19.792-6.666 95.6 95.6 0 0 1-17.663-10.681A95.8 95.8 0 0 1-52.391-31.54a95 95 0 0 1-11.607-17.2 95 95 0 0 1-4.049-8.764 95 95 0 0 1-5.887-22.06 97 97 0 0 1-.875-9.619c-.722-17.723 3.489-35.152 12.193-50.547a23.38 23.38 0 0 0 14.774 3.697 23.2 23.2 0 0 0 7.052-1.758l-.121.169a67 67 0 0 0-1.021 1.432l-.277.399c-6.991 10.167-11.33 21.719-12.747 33.904l-.035.305q-.042.357-.078.716-.056.531-.103 1.066l-.027.328q-.045.529-.083 1.059l-.016.226a79 79 0 0 0-.136 2.762l-.001.031-.001.022a77 77 0 0 0-.004 4.439l.003.117q.014.474.035.95l.008.207q.02.429.043.858l.015.26q.025.412.054.825l.018.266a77 77 0 0 0 .085 1.065c.022.243.045.5.075.787q.022.237.047.472l.228 2.21.033-.009a75.6 75.6 0 0 0 5.006 18.76l-.032.009.775 1.733c7.76 17.603 21.966 31.51 39.394 39.02l.082.035q.712.305 1.429.597l3.512 1.43-.031-.118-3.818-14.248-6.364-23.751 18.754-5.025 9.435 35.21 3.197 11.929 5.222 19.49A95 95 0 0 1 0 0" clip-path="url(#aP)" transform="matrix(1.3333 0 0 -1.3333 5357.8 21.957)"/>
    <path d="M0 0h-40.662l-44.843 119.02q-.38 1.825-2.913 1.825c-1.773 0-2.96-.608-3.547-1.825L-135.92 0h-41.169q4.814 14.593 15.074 43.893a4012 4012 0 0 0 22.548 62.018q12.16 32.264 14.947 36.14 5.194 6.498 14.884 9.919 9.691 3.42 21.091 3.42c7.517 0 14.522-1.141 21.028-3.42q9.754-3.421 14.694-9.919 3.16-3.762 15.201-36.026c5.653-15.125 13.09-35.797 22.294-62.019A9163 9163 0 0 1 0 0m-191.94 0h-38.128v60.993h-68.657V0h-38.129v154.59h38.129V94.394h68.657v60.196h38.128zm-167.11 121.99h-91.458q-6.207-.001-9.817-4.202t-3.611-9.876c0-3.707 1.159-6.887 3.485-9.538q3.483-3.976 9.943-3.974h53.836c14.52 0 26.01-4.902 34.455-14.707 7.681-8.891 11.527-19.722 11.527-32.491q0-19.266-11.4-32.491Q-374.758.004-396.672.004h-98.045v32.834h91.838q5.821 0 9.5 4.56 3.294 4.104 3.294 9.919 0 5.582-3.294 9.635-3.299 4.043-9.5 4.045h-53.963q-21.916-.002-34.708 14.575c-7.772 8.805-11.654 19.546-11.654 32.226q0 19.015 11.527 32.107 12.92 14.69 34.835 14.691h97.792zm-167.11 0h-77.778q-13.937-.001-21.914-13.436-7.221-12.072-7.221-29.717 0-18.217 7.347-31.081c5.403-9.492 12.668-14.234 21.788-14.234l15.074-.684h18.874q5.824 0 9.5 4.56 3.295 4.104 3.294 9.919 0 5.583-3.294 9.635-3.296 4.043-9.5 4.045h-18.874V94.4h25.081q21.786 0 34.456-14.707c7.682-8.891 11.527-19.722 11.527-32.491q0-19.266-11.401-32.491Q-541.868.004-563.783.004h-46.489q-30.276.001-47.755 23.696-15.707 21.186-15.708 52.291 0 31.783 15.961 53.996 17.735 24.608 47.502 24.609h84.112z" clip-path="url(#aQ)" transform="matrix(1.3333 0 0 -1.3333 6467 254.77)"/>
    <path d="M0 0h21.254v4.349h19.964V0h21.373v-7.636H0zm58.367-75.277c0-.861.291-1.558.879-2.113.588-.545 1.272-.822 2.055-.822h1.997v-7.636H48.146c-2.581 0-4.792.928-6.632 2.763q-2.761 2.764-2.762 6.632V-20.9H23.839v-55.553c0-2.58-.922-4.788-2.757-6.632-1.845-1.835-4.053-2.763-6.638-2.763H-.937v7.636h2.112c.86 0 1.567.277 2.112.822.55.555.822 1.252.822 2.113v62.004h54.258zm-72.224-10.799-2.113 70.222h11.392l2.112-70.222zm-23.367 0v75.153h-15.74v7.636h15.74v7.865h18.788v-7.865H-2.7v-7.636h-15.736v-75.153zm-15.973 0 2.231 70.222h11.392l-2.232-70.222z" clip-path="url(#aR)" transform="matrix(1.3333 0 0 -1.3333 6626.2 53.693)"/>
    <path d="M0 0v49.198l-13.623 1.175v8.458L0 57.771V90.54h19.964V0zm-41.218 1.29v47.908l-13.623 1.175v8.458l13.623-1.06v31.355h19.023V1.29zM-83.497 0l1.06 49.437-11.276.936v8.458l11.511-.936.702 32.645h19.965L-63.533 0z" clip-path="url(#aS)" transform="matrix(1.3333 0 0 -1.3333 6854.3 168.61)"/>
    <path d="M0 0h47.793l-1.057 3.766h19.911L67.709 0h48.5v-7.626H67.828v-8.104h45.562v-52.848q.001-4.46-3.073-7.512-3.068-3.056-7.44-3.058H78.278v7.635h10.216c1.334 0 2.485.45 3.465 1.348.979.898 1.467 2.017 1.467 3.345v43.454H67.828v-63.648H47.864v63.648H22.615v-55.782H2.651v63.418h45.213v8.104H0z" clip-path="url(#aT)" transform="matrix(1.3333 0 0 -1.3333 6899.9 52.915)"/>
    <path d="m0 0-9.16 31.823h19.491L19.61 0zm-26.31 43.568h17.972v33.936H-26.31zM-54.258 0l9.279 31.823h19.497L-34.643 0zm-.702 43.568h9.394v33.936h-7.75v7.627h7.75v4.816h19.256v-4.816h17.972v4.816h19.257v-4.816h7.75v-7.627h-7.75V43.568h7.984v-7.635H-54.96zM-97 33.936l8.926.707v38.16H-97v7.635h8.926v9.394h19.959v-9.394h9.748v-7.635h-9.748V36.286l9.748.822v-7.635l-9.748-.823V10.216c0-2.982-1.018-5.486-3.054-7.522C-73.204.659-75.708-.354-78.68-.354h-16.676v7.636h3.813c.922 0 1.734.324 2.427.993s1.042 1.51 1.042 2.524v16.208L-97 26.3z" clip-path="url(#aU)" transform="matrix(1.3333 0 0 -1.3333 7201.1 167.99)"/>
    <path d="M0 0h4.344L1.763 5.515h16.672L21.254 0h3.173l7.516 9.041H.354v6.575H51.2V9.089L43.215 0c2.188-.086 4.071-.851 5.639-2.313 1.562-1.461 2.346-3.21 2.346-5.265v-7.101l-14.679.115v5.753q0 .943-.703 1.529a2.5 2.5 0 0 1-1.643.583h-3.054v-18.196c0-2.743-1.017-5.055-3.053-6.928-2.041-1.883-4.545-2.82-7.516-2.82H2.934v6.69H9.16q1.412 0 2.466 1.004c.702.659 1.056 1.424 1.056 2.283v17.967H0zm-20.433-4.701c.469 0 .88.162 1.234.468.353.315.525.707.525 1.175v2.466h-5.987v-4.109zm1.759 14.21h-5.987V6.336h5.987zm-23.72-14.21v4.109h-5.987v-2.466c0-.392.177-.764.526-1.108q.53-.534 1.233-.535zm-5.987 11.037h5.987v3.173h-5.987zm-16.442-71.627h48.032v16.677h-46.742v7.626h46.742v5.055H3.173v-5.055h46.736v-7.626H3.173v-16.677H51.2v-7.636H-64.82zm-.234 37.577 22.663.821v5.171h-21.373v7.043l21.373-.115v3.518h-13.857c-2.27 0-4.209.745-5.811 2.226-1.605 1.482-2.408 3.231-2.408 5.256V15.97h61.885V-3.794c0-2.025-.803-3.774-2.403-5.256-1.606-1.481-3.546-2.226-5.816-2.226h-13.857v-3.403l21.374-.115v-6.928h-21.374v-4.588l22.664.823v-6.929l-63.06-2.342z" clip-path="url(#aV)" transform="matrix(1.3333 0 0 -1.3333 7331.1 70.601)"/>
    <path d="m0 0-18.554 17.967L-36.988 0h-24.194l30.535 29.702-30.535 29.712h24.194l18.434-18.081L0 59.414h23.959L-6.574 29.702 23.959 0zm-87.954 72.803h114.26v-7.636h-94.3V-3.766c0-.945.353-1.757 1.055-2.464q1.061-1.05 2.466-1.052h90.779v-7.636h-103.63c-2.991 0-5.515 1.022-7.56 3.059-2.05 2.035-3.072 4.51-3.072 7.406z" clip-path="url(#aW)" transform="matrix(1.3333 0 0 -1.3333 7535.3 147.95)"/>
    <path d="M0 0c.932 0 1.739.354 2.438 1.062q1.045 1.06 1.045 2.464v37.348H-6.848V0zm3.483 66.123H-6.848V48.501H3.483zM-37.969 0h11.157v40.874h-11.157zm0 48.501h11.157v17.622h-11.157zM-57.933 0v40.874h-10.45V3.526c0-.936.349-1.757 1.057-2.464Q-66.274 0-64.861 0zm-10.45 48.501h10.45v17.622h-10.45zm-19.964 25.248h30.414v7.875h19.964v-7.875h11.157v7.875h19.964v-7.875h30.295V2.944c0-2.896-1.017-5.39-3.057-7.464-2.036-2.074-4.506-3.106-7.403-3.106h-90.755c-2.9 0-5.384 1.032-7.463 3.106s-3.116 4.568-3.116 7.464z" clip-path="url(#aX)" transform="matrix(1.3333 0 0 -1.3333 7709.6 156.73)"/>
    <path d="M0 0v-11.974l10.923 1.758v-7.282L0-19.256v-22.659c0-1.023.311-1.863.941-2.532.626-.66 1.367-.994 2.232-.994h7.75v-7.512h-21.727c-2.585 0-4.798 1.032-6.633 3.106q-2.763 3.11-2.761 7.454V0zm-12.916 10.694c.779 0 1.467.268 2.055.823.588.544.88 1.252.88 2.111v4.932h-25.13v-4.932c0-.859.292-1.567.879-2.111.587-.555 1.309-.823 2.174-.823zm-22.195 19.725v-4.224h25.13v4.11zM-33.821 0v-12.089h10.336v-7.636h-10.336v-22.19c0-1.023.315-1.863.941-2.532.626-.66 1.367-.994 2.232-.994h7.163v-7.512h-20.729c-2.681 0-4.945 1.032-6.795 3.106q-2.774 3.11-2.776 7.454V0zm-21.02 37.348H9.867V15.157c0-3.297-1.137-6.068-3.407-8.343C4.186 4.54 1.41 3.412-1.878 3.412h-41.218c-3.287 0-6.068 1.128-8.338 3.402-2.274 2.275-3.407 5.046-3.407 8.343zm-14.092-90.186-2.111 70.222h10.918l2.117-70.222zm-21.841 0v75.153h-14.564v7.75l14.564-.114v7.865h17.966v-7.751l14.56-.114v-7.636h-14.56v-75.153zm-14.798 0 2.231 70.222h10.804l-2.232-70.222z" clip-path="url(#aY)" transform="matrix(1.3333 0 0 -1.3333 7901.7 98.01)"/>
    <path d="m0 0-4.578 45.089h18.082L17.967 0zm17.264 69.516-3.76-18.788H-4.578l3.876 18.788zm-55.662 0 3.875-18.788h-18.086l-3.756 18.788zM-57.072 0l4.463 45.089h18.086L-39.105 0zm71.164 87.721.587-4.817h3.407v-7.635H-9.628V9.041q0-4.341-2.996-7.464c-1.998-2.074-4.444-3.105-7.34-3.105h-16.791v7.281h3.814c.921 0 1.71.354 2.369 1.052.65.707.98 1.529.98 2.466v65.998h-27.596v7.635h27.596v6.222h19.964v-6.222H-2.7l-.587 4.817zM-98.648 6.222l9.159.583v41.103h-8.338v7.636h8.338v24.303h-8.806v7.635h37.576v-7.635h-8.806V55.544h8.338v-7.636h-8.338V8.095l9.16.477v-7.52l-38.283-2.466z" clip-path="url(#aZ)" transform="matrix(1.3333 0 0 -1.3333 8064.7 166.42)"/>
    <path d="m0 0 5.519 52.495-10.451-2.819v8.81L6.46 61.535l1.644 15.616H-2.819v7.636H8.926l.588 5.638h19.843l-.587-5.638h34.528V60.914l8.926-2.466v-8.82l-8.926 2.466V10.589c0-2.905-1.018-5.391-3.053-7.474C58.209 1.042 55.7 0 52.729 0h-22.43v7.636h9.514c1.012 0 1.859.334 2.523.994.664.669.998 1.51.998 2.532v65.989H27.948L19.964 0zm-34.056 0v64.469h-9.748v7.635h9.748v18.321h19.496V72.104h9.275v-7.635h-9.275V0z" clip-path="url(#ba)" transform="matrix(1.3333 0 0 -1.3333 8164.1 168.78)"/>
    <path d="M2319.6 170.65h62.945v-7.636H2319.6zm66.706-70.461-1.41 4.109-79.387-3.516c-2.427-.163-4.42.783-5.987 2.818a7.2 7.2 0 0 0-1.353 3.107 6.5 6.5 0 0 0 .296 3.344l11.861 32.885h-15.501v7.636h112.85v-7.636h-77.384l-10.924-30.534c-.234-.859-.115-1.605.353-2.227q.702-.945 1.998-.946l60.594 2.466-8.103 23.844h19.963l12.099-35.35zm-64.823 80.678q-1.528 0-2.117-1.291l-5.633-13.389h-20.672l7.636 17.03c.779 1.644 1.916 2.934 3.402 3.871 1.486.946 3.173 1.415 5.051 1.415h84.199a9.3 9.3 0 0 0 4.993-1.415q2.288-1.405 3.465-3.871l7.631-17.03h-20.667l-5.638 13.389c-.392.86-1.099 1.291-2.112 1.291z" clip-path="url(#bb)" transform="matrix(1.3333 0 0 -1.3333 5220.2 302.36)"/>
    <use xlink:href="#bc" clip-path="url(#bd)" transform="matrix(1.3333 0 0 -1.3333 6589.3 253.88)"/>
    <path d="m0 0-5.421-13.23H5.42zm12.353-30.302-3.728 9.148H-8.621l-3.733-9.148h-9.147l17.48 41.08h8.274l17.484-41.08z" clip-path="url(#be)" transform="matrix(1.3333 0 0 -1.3333 6638.3 213.48)"/>
    <path d="m0 0-19.755 25.93V0h-8.858v40.791h8.275l19.115-25.118v25.118H7.63V0z" clip-path="url(#bf)" transform="matrix(1.3333 0 0 -1.3333 6713.8 253.88)"/>
    <path d="M0 0q-4.338-1.892-9.934-1.892c-3.187 0-6.088.522-8.712 1.57q-3.933 1.578-6.756 4.372-2.83 2.795-4.401 6.643-1.573 3.843-1.574 8.389v.118c0 2.912.535 5.644 1.603 8.185a20.9 20.9 0 0 0 4.457 6.701c1.902 1.925 4.159 3.437 6.762 4.547q3.898 1.659 8.564 1.66 2.737-.001 4.984-.38a23.7 23.7 0 0 0 4.163-1.076 19 19 0 0 0 3.614-1.75 26 26 0 0 0 3.262-2.39L.38 27.883a23 23 0 0 1-2.328 1.745q-1.167.76-2.419 1.285c-.839.347-1.74.621-2.712.816q-1.459.29-3.201.289c-1.636 0-3.158-.341-4.576-1.02a12.5 12.5 0 0 1-3.732-2.745q-1.6-1.727-2.504-4.03-.902-2.306-.901-4.937v-.114q-.001-2.809.901-5.169c.603-1.579 1.456-2.949 2.566-4.12a11.6 11.6 0 0 1 3.902-2.713c1.494-.645 3.158-.963 4.984-.963q5.008 0 8.446 2.461v5.871h-9.03v7.748H7.488V4.576Q4.346 1.894 0 0" clip-path="url(#bg)" transform="matrix(1.3333 0 0 -1.3333 6776.5 252.28)"/>
    <path d="M0 0v6.819l22.435 26.105H.702v7.867h33.27v-6.819L11.537 7.867h22.435V0z" clip-path="url(#bh)" transform="matrix(1.3333 0 0 -1.3333 6796.3 253.88)"/>
    <use xlink:href="#bc" clip-path="url(#bi)" transform="matrix(1.3333 0 0 -1.3333 6887 253.88)"/>
    <path d="M0 0c0 1.745-.299 3.4-.901 4.951q-.903 2.334-2.566 4.078a12.3 12.3 0 0 1-3.93 2.769q-2.275 1.019-4.957 1.019-2.737 0-4.983-.99a11.5 11.5 0 0 1-3.846-2.736 13 13 0 0 1-2.504-4.05q-.902-2.303-.901-4.927V0c0-1.75.299-3.399.901-4.955a12.3 12.3 0 0 1 2.566-4.078 12.4 12.4 0 0 1 3.902-2.77q2.243-1.017 4.985-1.019c1.782 0 3.437.332 4.95.991 1.517.664 2.807 1.574 3.874 2.741A12.9 12.9 0 0 1-.901-5.041C-.299-3.509 0-1.863 0-.118zm7.748-8.189a21.1 21.1 0 0 0-4.515-6.701c-1.92-1.921-4.215-3.438-6.876-4.543-2.66-1.109-5.562-1.659-8.711-1.659-3.143 0-6.041.55-8.682 1.659q-3.96 1.656-6.848 4.487a20 20 0 0 0-4.485 6.643c-1.068 2.541-1.603 5.273-1.603 8.185V0c0 2.912.545 5.644 1.631 8.185 1.091 2.546 2.594 4.78 4.52 6.701 1.92 1.925 4.211 3.437 6.875 4.547 2.661 1.105 5.562 1.66 8.712 1.66q4.714-.001 8.682-1.66 3.962-1.664 6.843-4.486c1.925-1.887 3.419-4.102 4.49-6.643C8.849 5.757 9.384 3.03 9.384.114V0c0-2.916-.545-5.643-1.636-8.189" clip-path="url(#bj)" transform="matrix(1.3333 0 0 -1.3333 6954.9 226.68)"/>
    <path d="M0 0c-.839-2.295-2.034-4.206-3.585-5.742q-2.331-2.3-5.652-3.439-3.321-1.131-7.403-1.132-8.213-.001-12.935 4.542-4.718 4.548-4.719 13.577v23.311h8.972V8.043c0-3.344.778-5.856 2.333-7.55q2.328-2.531 6.468-2.532 4.134 0 6.468 2.447 2.327 2.447 2.328 7.341v23.368h8.977V8.1Q1.252 3.435 0 0" clip-path="url(#bk)" transform="matrix(1.3333 0 0 -1.3333 7022.9 240.98)"/>
    <path d="M0 0q-4.337-1.892-9.935-1.892c-3.186 0-6.087.522-8.711 1.57q-3.933 1.578-6.756 4.372-2.83 2.795-4.401 6.643-1.573 3.843-1.574 8.389v.118c0 2.912.535 5.644 1.603 8.185a20.9 20.9 0 0 0 4.457 6.701c1.901 1.925 4.159 3.437 6.762 4.547q3.898 1.659 8.564 1.66 2.737-.001 4.984-.38a23.7 23.7 0 0 0 4.163-1.076 19 19 0 0 0 3.614-1.75 26 26 0 0 0 3.262-2.39L.38 27.883a23 23 0 0 1-2.328 1.745q-1.167.76-2.419 1.285c-.839.347-1.74.621-2.712.816q-1.459.29-3.201.289c-1.636 0-3.158-.341-4.576-1.02a12.5 12.5 0 0 1-3.732-2.745 12.7 12.7 0 0 1-2.504-4.03q-.902-2.306-.901-4.937v-.114q-.001-2.809.901-5.169c.602-1.579 1.456-2.949 2.566-4.12a11.6 11.6 0 0 1 3.902-2.713c1.494-.645 3.158-.963 4.984-.963q5.008 0 8.446 2.461v5.871h-9.03v7.748H7.488V4.576Q4.345 1.894 0 0" clip-path="url(#bl)" transform="matrix(1.3333 0 0 -1.3333 7099.5 252.28)"/>
    <path d="M0 0c0 1.745-.299 3.4-.901 4.951q-.903 2.334-2.566 4.078a12.3 12.3 0 0 1-3.93 2.769q-2.275 1.019-4.957 1.019-2.737 0-4.983-.99a11.5 11.5 0 0 1-3.846-2.736 13 13 0 0 1-2.504-4.05q-.902-2.303-.901-4.927V0c0-1.75.299-3.399.901-4.955a12.32 12.32 0 0 1 6.468-6.848q2.243-1.017 4.985-1.019c1.782 0 3.437.332 4.95.991 1.517.664 2.807 1.574 3.874 2.741A12.9 12.9 0 0 1-.901-5.041C-.299-3.509 0-1.863 0-.118zm7.748-8.189a21.1 21.1 0 0 0-4.515-6.701c-1.92-1.921-4.215-3.438-6.876-4.543-2.66-1.109-5.562-1.659-8.711-1.659-3.143 0-6.041.55-8.682 1.659q-3.96 1.656-6.848 4.487a20 20 0 0 0-4.485 6.643c-1.068 2.541-1.603 5.273-1.603 8.185V0c0 2.912.545 5.644 1.631 8.185 1.091 2.546 2.594 4.78 4.52 6.701 1.92 1.925 4.21 3.437 6.875 4.547 2.661 1.105 5.562 1.66 8.712 1.66q4.714-.001 8.682-1.66 3.962-1.664 6.843-4.486c1.925-1.887 3.419-4.102 4.49-6.643C8.849 5.757 9.384 3.03 9.384.114V0c0-2.916-.545-5.643-1.636-8.189" clip-path="url(#bm)" transform="matrix(1.3333 0 0 -1.3333 7163.9 226.68)"/>
    <use xlink:href="#bn" clip-path="url(#bo)" transform="matrix(1.3333 0 0 -1.3333 7225.2 253.88)"/>
    <path d="M0 0q-4.338-1.892-9.935-1.892-4.778-.001-8.711 1.57-3.934 1.578-6.757 4.372-2.83 2.795-4.401 6.643-1.573 3.843-1.574 8.389v.118c0 2.912.535 5.644 1.603 8.185a20.9 20.9 0 0 0 4.457 6.701c1.902 1.925 4.159 3.437 6.762 4.547q3.898 1.659 8.564 1.66 2.737-.001 4.984-.38a23.7 23.7 0 0 0 4.163-1.076 19 19 0 0 0 3.614-1.75 26 26 0 0 0 3.262-2.39L.379 27.883a23 23 0 0 1-2.328 1.745q-1.167.76-2.419 1.285c-.839.347-1.74.621-2.712.816q-1.459.29-3.201.289c-1.636 0-3.158-.341-4.576-1.02a12.5 12.5 0 0 1-3.732-2.745q-1.6-1.727-2.504-4.03-.902-2.306-.901-4.937v-.114q-.001-2.809.901-5.169c.603-1.579 1.456-2.949 2.566-4.12a11.6 11.6 0 0 1 3.902-2.713c1.494-.645 3.158-.963 4.984-.963q5.009 0 8.446 2.461v5.871h-9.03v7.748H7.487V4.576Q4.344 1.894 0 0" clip-path="url(#bp)" transform="matrix(1.3333 0 0 -1.3333 7287.9 252.28)"/>
    <path d="M0 0a11.1 11.1 0 0 0-3.068-3.964q-1.97-1.6-4.7-2.447c-1.821-.56-3.836-.844-6.05-.844q-4.66.001-9.148 1.603c-4.488 1.602-5.709 2.708-8.156 4.923l5.302 6.353q2.793-2.276 5.737-3.613Q-17.136.668-13.644.669q2.796.002 4.344 1.019c1.025.683 1.542 1.623 1.542 2.827v.119c0 .583-.109 1.095-.323 1.546q-.32.667-1.223 1.252-.909.576-2.513 1.161-1.609.582-4.178 1.228-3.1.755-5.609 1.689-2.513.932-4.264 2.3a9.26 9.26 0 0 0-2.717 3.409q-.968 2.04-.968 5.069v.118c0 1.865.352 3.542 1.044 5.041a11.5 11.5 0 0 0 2.926 3.874q1.878 1.63 4.49 2.504c2.612.874 3.661.872 5.762.872 2.987 0 5.737-.445 8.241-1.337a24 24 0 0 0 6.909-3.845l-4.661-6.762c-1.83 1.247-3.613 2.224-5.363 2.944-1.75.716-3.495 1.076-5.245 1.076s-3.059-.336-3.931-1.019q-1.314-1.017-1.313-2.532v-.118q.001-.991.379-1.717c.256-.489.711-.925 1.376-1.314.659-.388 1.564-.759 2.716-1.104q1.722-.527 4.354-1.224 3.093-.818 5.519-1.835 2.425-1.025 4.087-2.447 1.667-1.43 2.514-3.353.848-1.921.849-4.604v-.113Q1.1 2.362 0 0" clip-path="url(#bq)" transform="matrix(1.3333 0 0 -1.3333 7347.2 244.98)"/>
    <use xlink:href="#bc" clip-path="url(#br)" transform="matrix(1.3333 0 0 -1.3333 7393.1 253.88)"/>
    <path d="M0 0c-.84-2.295-2.034-4.206-3.585-5.742-1.556-1.532-3.437-2.68-5.652-3.439q-3.321-1.131-7.403-1.132-8.214-.001-12.936 4.542-4.717 4.548-4.718 13.577v23.311h8.972V8.043c0-3.344.777-5.856 2.333-7.55q2.327-2.531 6.468-2.532 4.134 0 6.468 2.447 2.327 2.447 2.328 7.341v23.368h8.977V8.1Q1.252 3.435 0 0" clip-path="url(#bs)" transform="matrix(1.3333 0 0 -1.3333 7463 240.98)"/>
    <use xlink:href="#bc" clip-path="url(#bt)" transform="matrix(1.3333 0 0 -1.3333 7534.2 253.88)"/>
    <path d="M0 0c0 1.745-.299 3.4-.901 4.951q-.903 2.334-2.566 4.078a12.3 12.3 0 0 1-3.93 2.769q-2.275 1.019-4.957 1.019-2.737 0-4.983-.99a11.5 11.5 0 0 1-3.846-2.736 13 13 0 0 1-2.504-4.05q-.902-2.303-.901-4.927V0c0-1.75.299-3.399.901-4.955a12.3 12.3 0 0 1 2.566-4.078 12.4 12.4 0 0 1 3.902-2.77q2.243-1.017 4.985-1.019c1.782 0 3.437.332 4.95.991 1.517.664 2.807 1.574 3.874 2.741A12.9 12.9 0 0 1-.901-5.041C-.299-3.509 0-1.863 0-.118zm7.748-8.189a21.1 21.1 0 0 0-4.515-6.701q-2.881-2.883-6.876-4.543c-2.66-1.109-5.561-1.659-8.711-1.659-3.143 0-6.041.55-8.682 1.659q-3.96 1.656-6.848 4.487a20 20 0 0 0-4.485 6.643c-1.068 2.541-1.603 5.273-1.603 8.185V0c0 2.912.545 5.644 1.631 8.185 1.091 2.546 2.594 4.78 4.52 6.701 1.92 1.925 4.211 3.437 6.876 4.547q3.988 1.659 8.711 1.66 4.714-.001 8.682-1.66 3.962-1.664 6.843-4.486 2.886-2.831 4.49-6.643C8.849 5.757 9.384 3.03 9.384.114V0c0-2.916-.545-5.643-1.636-8.189" clip-path="url(#bu)" transform="matrix(1.3333 0 0 -1.3333 7602.1 226.68)"/>
    <path d="M0 0a19.3 19.3 0 0 0-3.698-2.305A19.2 19.2 0 0 0-8.1-3.76c-1.592-.332-3.38-.493-5.358-.493-2.992 0-5.771.54-8.336 1.631q-3.841 1.628-6.639 4.457-2.801 2.824-4.372 6.673c-1.048 2.56-1.574 5.301-1.574 8.213v.118c0 2.912.526 5.643 1.574 8.184q1.571 3.82 4.372 6.702 2.795 2.884 6.701 4.546c2.598 1.106 5.476 1.661 8.621 1.661 1.906 0 3.641-.157 5.215-.465q2.362-.47 4.283-1.285a18.6 18.6 0 0 0 3.556-1.978 24 24 0 0 0 3.031-2.565l-5.71-6.587q-2.39 2.156-4.866 3.382-2.48 1.222-5.566 1.222-2.562 0-4.747-.99a11.2 11.2 0 0 1-3.761-2.736 12.8 12.8 0 0 1-2.446-4.05q-.875-2.303-.873-4.927v-.114q-.002-2.624.873-4.955.874-2.328 2.418-4.078a11.3 11.3 0 0 1 3.727-2.77c1.46-.678 3.059-1.019 4.809-1.019 2.333 0 4.301.426 5.913 1.285q2.418 1.281 4.809 3.495L3.263 3.03A29 29 0 0 0 0 0" clip-path="url(#bv)" transform="matrix(1.3333 0 0 -1.3333 7668.7 249.14)"/>
    <path d="m0 0-12.642 17.365-4.718-4.893V0h-8.977v40.791h8.977V22.956L-.815 40.791h10.839L-6.582 23.482 10.783 0z" clip-path="url(#bw)" transform="matrix(1.3333 0 0 -1.3333 7717.7 253.88)"/>
    <path d="M0 0v40.791h30.709v-7.985H8.857V24.53h19.23v-7.98H8.857V7.981h22.141V0z" clip-path="url(#bx)" transform="matrix(1.3333 0 0 -1.3333 7739.3 253.88)"/>
    <path d="M0 0v-16.256h-8.972v16.08l-15.677 24.711h10.489l9.73-16.374 9.907 16.374h10.2z" clip-path="url(#by)" transform="matrix(1.3333 0 0 -1.3333 7818.6 232.2)"/>
    <path d="m0 0-5.42-13.23H5.42zm12.353-30.302-3.727 9.148H-8.621l-3.732-9.148H-21.5l17.479 41.08h8.275l17.483-41.08z" clip-path="url(#bz)" transform="matrix(1.3333 0 0 -1.3333 7894.3 213.48)"/>
    <path d="M0 0a11.1 11.1 0 0 0-3.068-3.964q-1.97-1.6-4.7-2.447c-1.821-.56-3.836-.844-6.05-.844q-4.66.001-9.148 1.603c-4.488 1.602-5.709 2.708-8.156 4.923l5.302 6.353q2.793-2.276 5.737-3.613Q-17.136.668-13.644.669q2.796.002 4.344 1.019c1.025.683 1.542 1.623 1.542 2.827v.119c0 .583-.109 1.095-.323 1.546q-.32.667-1.223 1.252-.909.576-2.513 1.161-1.609.582-4.178 1.228-3.1.755-5.609 1.689-2.513.932-4.264 2.3a9.26 9.26 0 0 0-2.717 3.409q-.968 2.04-.968 5.069v.118c0 1.865.352 3.542 1.044 5.041a11.5 11.5 0 0 0 2.926 3.874q1.878 1.63 4.49 2.504 2.611.873 5.762.872c2.987 0 5.737-.445 8.241-1.337a24 24 0 0 0 6.909-3.845l-4.661-6.762c-1.83 1.247-3.613 2.224-5.363 2.944-1.75.716-3.495 1.076-5.245 1.076s-3.059-.336-3.931-1.019q-1.314-1.017-1.313-2.532v-.118q.001-.991.379-1.717c.257-.489.712-.925 1.376-1.314.659-.388 1.564-.759 2.716-1.104q1.722-.527 4.354-1.224 3.093-.818 5.519-1.835 2.425-1.025 4.087-2.447 1.667-1.43 2.514-3.353.848-1.921.849-4.604v-.113Q1.1 2.362 0 0" clip-path="url(#bA)" transform="matrix(1.3333 0 0 -1.3333 7969.5 244.98)"/>
    <path d="M0 0a11.1 11.1 0 0 0-3.068-3.964q-1.969-1.6-4.7-2.447c-1.821-.56-3.836-.844-6.05-.844q-4.66.001-9.148 1.603c-4.488 1.602-5.709 2.708-8.156 4.923l5.302 6.353q2.793-2.276 5.737-3.613 2.946-1.343 6.44-1.342 2.795.002 4.344 1.019c1.024.683 1.541 1.623 1.541 2.827v.119c0 .583-.109 1.095-.323 1.546q-.32.667-1.223 1.252-.909.576-2.513 1.161-1.609.582-4.178 1.228-3.1.755-5.609 1.689-2.512.932-4.264 2.3a9.26 9.26 0 0 0-2.717 3.409q-.967 2.04-.968 5.069v.118c0 1.865.352 3.542 1.044 5.041a11.5 11.5 0 0 0 2.926 3.874q1.879 1.63 4.49 2.504c2.611.874 3.661.872 5.762.872 2.987 0 5.737-.445 8.241-1.337a24 24 0 0 0 6.909-3.845l-4.661-6.762c-1.83 1.247-3.613 2.224-5.363 2.944-1.75.716-3.495 1.076-5.244 1.076-1.75 0-3.059-.336-3.932-1.019q-1.314-1.017-1.313-2.532v-.118q.001-.991.379-1.717c.256-.489.711-.925 1.376-1.314.659-.388 1.564-.759 2.716-1.104q1.722-.527 4.354-1.224 3.093-.818 5.519-1.835c1.618-.683 2.978-1.499 4.088-2.447q1.666-1.43 2.513-3.353.847-1.921.849-4.604v-.113Q1.1 2.362 0 0" clip-path="url(#bB)" transform="matrix(1.3333 0 0 -1.3333 8019.2 244.98)"/>
    <path d="M0 0c0 1.745-.299 3.4-.901 4.951q-.903 2.334-2.566 4.078a12.3 12.3 0 0 1-3.93 2.769q-2.275 1.019-4.957 1.019-2.737 0-4.983-.99a11.5 11.5 0 0 1-3.846-2.736 13 13 0 0 1-2.504-4.05q-.902-2.303-.901-4.927V0c0-1.75.299-3.399.901-4.955a12.3 12.3 0 0 1 2.566-4.078 12.4 12.4 0 0 1 3.902-2.77q2.243-1.017 4.985-1.019c1.783 0 3.437.332 4.95.991 1.517.664 2.807 1.574 3.874 2.741A12.9 12.9 0 0 1-.901-5.041C-.299-3.509 0-1.863 0-.118zm7.748-8.189a21.1 21.1 0 0 0-4.515-6.701q-2.882-2.883-6.875-4.543c-2.661-1.109-5.562-1.659-8.712-1.659-3.143 0-6.041.55-8.682 1.659q-3.96 1.656-6.847 4.487a20 20 0 0 0-4.486 6.643c-1.068 2.541-1.603 5.273-1.603 8.185V0c0 2.912.545 5.644 1.631 8.185 1.091 2.546 2.594 4.78 4.52 6.701 1.92 1.925 4.211 3.437 6.876 4.547q3.989 1.659 8.711 1.66 4.714-.001 8.682-1.66 3.962-1.664 6.843-4.486 2.886-2.831 4.49-6.643C8.849 5.757 9.384 3.03 9.384.114V0c0-2.916-.545-5.643-1.636-8.189" clip-path="url(#bC)" transform="matrix(1.3333 0 0 -1.3333 8074 226.68)"/>
    <path d="M0 0a19.3 19.3 0 0 0-3.698-2.305A19.2 19.2 0 0 0-8.099-3.76c-1.593-.332-3.381-.493-5.358-.493-2.992 0-5.772.54-8.337 1.631q-3.841 1.628-6.639 4.457-2.801 2.824-4.372 6.673c-1.048 2.56-1.574 5.301-1.574 8.213v.118c0 2.912.526 5.643 1.574 8.184q1.571 3.82 4.372 6.702 2.796 2.884 6.701 4.546c2.598 1.106 5.477 1.661 8.621 1.661 1.906 0 3.641-.157 5.215-.465q2.363-.47 4.283-1.285a18.6 18.6 0 0 0 3.556-1.978 24 24 0 0 0 3.031-2.565l-5.709-6.587q-2.39 2.156-4.867 3.382-2.48 1.222-5.566 1.222-2.562 0-4.747-.99a11.2 11.2 0 0 1-3.761-2.736 12.8 12.8 0 0 1-2.446-4.05q-.874-2.303-.873-4.927v-.114q0-2.624.873-4.955.875-2.328 2.418-4.078a11.3 11.3 0 0 1 3.727-2.77c1.461-.678 3.059-1.019 4.809-1.019 2.333 0 4.301.426 5.913 1.285q2.418 1.281 4.809 3.495L3.263 3.03A29 29 0 0 0 0 0" clip-path="url(#bD)" transform="matrix(1.3333 0 0 -1.3333 8140.6 249.14)"/>
    <path d="M2201.1 77.155h8.977V36.364h-8.977z" clip-path="url(#bE)" transform="matrix(1.3333 0 0 -1.3333 5220.2 302.36)"/>
    <path d="m0 0-5.42-13.23H5.421zm12.354-30.302-3.728 9.148H-8.62l-3.733-9.148H-21.5l17.479 41.08h8.275l17.483-41.08z" clip-path="url(#bF)" transform="matrix(1.3333 0 0 -1.3333 8204.6 213.48)"/>
    <path d="M0 0v-32.517h-8.973V0h-12.409v8.274h33.796V0z" clip-path="url(#bG)" transform="matrix(1.3333 0 0 -1.3333 8266.6 210.52)"/>
    <path d="M2304.5 77.155h8.977V36.364h-8.977z" clip-path="url(#bH)" transform="matrix(1.3333 0 0 -1.3333 5220.2 302.36)"/>
    <path d="M0 0c0 1.745-.299 3.4-.901 4.951a12.2 12.2 0 0 1-2.566 4.078 12.3 12.3 0 0 1-3.93 2.769q-2.275 1.019-4.957 1.019-2.737 0-4.983-.99a11.5 11.5 0 0 1-3.846-2.736 13 13 0 0 1-2.504-4.05q-.902-2.303-.901-4.927V0c0-1.75.299-3.399.901-4.955a12.3 12.3 0 0 1 2.566-4.078 12.4 12.4 0 0 1 3.902-2.77q2.243-1.017 4.985-1.019c1.783 0 3.437.332 4.95.991 1.517.664 2.807 1.574 3.874 2.741A12.8 12.8 0 0 1-.901-5.041C-.299-3.509 0-1.863 0-.118zm7.748-8.189a21.1 21.1 0 0 0-4.515-6.701q-2.882-2.883-6.875-4.543c-2.661-1.109-5.562-1.659-8.712-1.659-3.143 0-6.041.55-8.682 1.659q-3.96 1.656-6.847 4.487a20 20 0 0 0-4.486 6.643c-1.068 2.541-1.603 5.273-1.603 8.185V0c0 2.912.545 5.644 1.631 8.185 1.091 2.546 2.594 4.78 4.52 6.701 1.92 1.925 4.211 3.437 6.876 4.547q3.989 1.659 8.711 1.66 4.714-.001 8.682-1.66 3.962-1.664 6.843-4.486 2.886-2.831 4.49-6.643C8.849 5.757 9.384 3.03 9.384.114V0c0-2.916-.545-5.643-1.636-8.189" clip-path="url(#bI)" transform="matrix(1.3333 0 0 -1.3333 8361.3 226.68)"/>
    <use xlink:href="#bn" clip-path="url(#bJ)" transform="matrix(1.3333 0 0 -1.3333 8422.6 253.88)"/>
  </g>
</svg>
