<svg xmlns="http://www.w3.org/2000/svg" version="1.1" viewBox="0 0 233.84 371.63">
  <path fill="#182e3f" d="m117.95 111.7-6.587-20.995H84.22V39.02H63.225v124.592H84.22V111.7z"/>
  <path fill="#d8d8d8" d="M182.76 139.63c-5.887-2.208-9.01 1.023-10.325 3.108-.832 1.315-1.312 4.381-2.005 5.613-.826 1.464-4.412 2.307-6.718-.301-1.935-2.188-3.909-8.42-3.909-8.42l-17.242-55.036-.013.003-14.617-46.88a8.485 8.485 0 0 0-10.627-5.576 8.485 8.485 0 0 0-5.574 10.627l32.551 104.4.867 2.243c.584 1.5 4.418 12.581 13.353 16.885 8.934 4.303 18.758.325 23.156-4.01 3.97-3.915 5.964-7.726 6.415-11.228.401-3.108-.501-9.624-5.312-11.428"/>
  <path fill="none" stroke="#d8d8d8" stroke-miterlimit="10" stroke-width="1.333" d="m221.62 120.53 11.196-19.392L174.806.662H58.787L.777 101.138l58.01 100.477h116.02l24.167-41.857"/>
  <path fill="#182e3f" d="M.5 233.24h7.412v33.752h13.873V233.24h7.412v74.803h-7.412v-33.752H7.912v33.752H.5zm63 13.3q0-7.26-6.918-7.298h-.076q-6.88 0-6.88 7.298v48.195q0 7.298 6.918 7.297 6.955.002 6.956-7.297zm7.412 48.195q0 14.558-14.368 14.595-14.33 0-14.33-14.595V246.54q0-14.558 14.33-14.558 14.368 0 14.368 14.558zm40.948.005q-.001 14.557-14.366 14.594-14.331 0-14.33-14.594v-48.195q-.001-14.559 14.33-14.558 14.366 0 14.366 14.558v8.627h-7.412v-8.627q0-7.26-6.917-7.298h-.076q-6.88 0-6.88 7.298v48.195q0 7.297 6.919 7.297 6.954 0 6.954-7.297v-8.628h7.412zm27.31-24.1 16.078 37.402h-7.869l-15.469-35.387v35.387h-7.412v-74.804h7.412v35.843l15.47-35.843h7.868zm49.42-3.65v7.298h-15.584v26.53h18.095v7.223h-25.505v-74.803H191.1v7.222h-18.095v26.53zm24.38 9.58-13.417-43.33h7.792l9.313 36.869 9.312-36.87h7.867l-13.454 43.331v31.473h-7.413z"/>
  <path fill="#d8d8d8" d="M18.89 371.62v-32.202h4.645v27.625h7.403v4.577zm98.66-11.42-1.773-13.393-1.772 13.393zm4.695 0 1.509 11.424h-4.693l-.903-6.828h-4.744l-.92 6.828h-4.677l1.51-11.373 3.282-20.83h6.369zm84.505-2.38v9.224h2.035q2.02-.001 2.02-2.184V360q0-1.542-1.264-2.036-.362-.145-1.33-.145zm0-13.82v9.224h1.461q.968 0 1.33-.13 1.264-.511 1.264-2.054v-4.84q0-2.2-2.02-2.2zm-4.644-4.58h7.156q6.187.017 6.186 6.78v4.84q.001 3.169-2.543 4.483 2.544 1.31 2.543 4.478v4.859q0 6.745-6.482 6.762h-6.86z"/>
  <path fill="#ff5700" d="M220.82 139.94c0 5.797-4.7 10.497-10.497 10.497-5.799 0-10.498-4.7-10.498-10.497s4.7-10.498 10.498-10.498 10.497 4.7 10.497 10.498"/>
</svg>
