<svg xmlns="http://www.w3.org/2000/svg" xmlns:xlink="http://www.w3.org/1999/xlink" version="1.1" viewBox="0 0 329.47 117.12">
  <defs>
    <clipPath id="b">
      <use xlink:href="#a"/>
    </clipPath>
    <clipPath id="c">
      <use xlink:href="#a"/>
    </clipPath>
    <clipPath id="d">
      <use xlink:href="#a"/>
    </clipPath>
    <clipPath id="e">
      <use xlink:href="#a"/>
    </clipPath>
    <clipPath id="f">
      <use xlink:href="#a"/>
    </clipPath>
    <clipPath id="g">
      <use xlink:href="#a"/>
    </clipPath>
    <clipPath id="h">
      <use xlink:href="#a"/>
    </clipPath>
    <clipPath id="i">
      <use xlink:href="#a"/>
    </clipPath>
    <clipPath id="j">
      <use xlink:href="#a"/>
    </clipPath>
    <clipPath id="k">
      <use xlink:href="#a"/>
    </clipPath>
    <clipPath id="l">
      <use xlink:href="#a"/>
    </clipPath>
    <clipPath id="m">
      <path d="M0 0h842.926v-596H0z"/>
    </clipPath>
    <clipPath id="n">
      <use xlink:href="#a"/>
    </clipPath>
    <path id="a" d="M0 0h842v596H0z"/>
  </defs>
  <g fill="#182e3f">
    <path d="M661.22 249.78h4.179v19.153h7.817V249.78h4.176v42.446h-4.176v-19.153h-7.817v19.153h-4.179z" clip-path="url(#b)" transform="translate(-727.48 -322.48)scale(1.3333)"/>
    <path d="M696.72 257.33c0-2.746-1.301-4.129-3.899-4.14h-.043q-3.874-.002-3.875 4.14v27.348q-.002 4.136 3.899 4.136 3.919 0 3.918-4.136zm4.175 27.348c0 5.508-2.695 8.265-8.093 8.281q-8.075-.001-8.075-8.281V257.33q0-8.262 8.075-8.262c5.398 0 8.093 2.754 8.093 8.262z" clip-path="url(#c)" transform="translate(-727.48 -322.48)scale(1.3333)"/>
    <path d="M723.98 284.68q0 8.257-8.098 8.281-8.074-.001-8.074-8.281v-27.348q0-8.262 8.074-8.262 8.097 0 8.098 8.262v4.895h-4.176v-4.895c0-2.746-1.301-4.129-3.899-4.14h-.043q-3.879-.001-3.879 4.14v27.348c0 2.762 1.301 4.136 3.899 4.136 2.613 0 3.922-1.374 3.922-4.136v-4.899h4.176z" clip-path="url(#d)" transform="translate(-727.48 -322.48)scale(1.3333)"/>
    <path d="m739.36 271 9.059 21.223h-4.434l-8.718-20.078v20.078h-4.172v-42.446h4.172v20.34l8.718-20.34h4.434z" clip-path="url(#e)" transform="translate(-727.48 -322.48)scale(1.3333)"/>
    <path d="M767.22 268.93v4.14h-8.781v15.055h10.195v4.098h-14.371v-42.446h14.371v4.098h-10.195v15.055z" clip-path="url(#f)" transform="translate(-727.48 -322.48)scale(1.3333)"/>
    <path d="m780.95 274.36-7.562-24.586h4.394l5.246 20.922 5.246-20.922h4.434l-7.582 24.586v17.86h-4.176z" clip-path="url(#g)" transform="translate(-727.48 -322.48)scale(1.3333)"/>
    <path d="M671.59 322.5v-18.274h2.617v15.676h4.172v2.598z" clip-path="url(#h)" transform="translate(-727.48 -322.48)scale(1.3333)"/>
    <path d="m727.18 316.02-.996-7.601-1 7.601zm2.648 0 .848 6.481h-2.645l-.508-3.875h-2.675l-.516 3.875h-2.637l.852-6.453 1.851-11.821h3.586z" clip-path="url(#i)" transform="translate(-727.48 -322.48)scale(1.3333)"/>
    <path d="M777.45 314.67v5.234h1.145q1.14-.001 1.14-1.238v-2.758c0-.582-.238-.969-.714-1.152q-.2-.087-.75-.086zm0-7.84v5.234h.821q.55-.002.75-.074.714-.29.714-1.168v-2.746q0-1.247-1.14-1.246zm-2.617-2.602h4.031q3.488.012 3.489 3.848v2.746c0 1.199-.481 2.047-1.434 2.547.953.496 1.434 1.34 1.434 2.539v2.758q-.001 3.825-3.653 3.836h-3.867z" clip-path="url(#j)" transform="translate(-727.48 -322.48)scale(1.3333)"/>
    <path d="m596.47 290.35-2.828-9.071h-11.649v-22.336h-9.012v53.84h9.012V290.35z" clip-path="url(#k)" transform="translate(-727.48 -322.48)scale(1.3333)"/>
    <path d="M624.28 302.42c-2.523-.953-3.863.441-4.429 1.34-.356.57-.563 1.894-.86 2.43-.355.632-1.894.996-2.883-.133-.832-.946-1.679-3.637-1.679-3.637l-7.399-23.785-.004.004-6.273-20.262a3.634 3.634 0 0 0-4.563-2.406c-1.918.601-2.992 2.656-2.39 4.59l13.969 45.117s.308.808.371.969c.25.648 1.894 5.437 5.73 7.296 3.836 1.86 8.051.141 9.938-1.734 1.707-1.691 2.562-3.34 2.753-4.852.172-1.343-.214-4.16-2.281-4.937" clip-path="url(#l)" transform="translate(-727.48 -322.48)scale(1.3333)"/>
  </g>
  <path fill="none" stroke="#182e3f" stroke-miterlimit="10" stroke-width="1.001" d="m641.65-294.16 4.81 8.379-24.922 43.422h-49.843l-24.922-43.422 24.922-43.418h49.843l10.383 18.086" clip-path="url(#m)" transform="matrix(1.3319 0 0 -1.3333 -727.48 -322.48)"/>
  <path fill="#182e3f" d="M640.62 302.55c0 2.504-2.019 4.535-4.504 4.535-2.488 0-4.508-2.031-4.508-4.535s2.02-4.535 4.508-4.535c2.485 0 4.504 2.031 4.504 4.535" clip-path="url(#n)" transform="translate(-727.48 -322.48)scale(1.3333)"/>
</svg>
