<svg xmlns="http://www.w3.org/2000/svg" xmlns:xlink="http://www.w3.org/1999/xlink" version="1.1" viewBox="0 0 152.42 28.268">
  <defs>
    <clipPath id="a">
      <path d="M-393.32 1167.1V-23.45h841.89V1167.1Z"/>
    </clipPath>
    <clipPath id="b">
      <path d="M-692.48-31.51H498.07v841.89H-692.48Z"/>
    </clipPath>
  </defs>
  <path fill="#f4f4f3" d="M-260.675 569.812h673.637v-980.776h-673.637zm-817.726 0h673.636v-980.776H-1078.4z"/>
  <text xml:space="preserve" clip-path="url(#a)" transform="rotate(90 193.15 236.55)scale(1.3333)"><tspan x="0" y="0" fill="#4f5c61" font-family="'Open Sans'" font-size="4.8" font-weight="700">CHASE THE NARRATIVE </tspan></text>
  <text xml:space="preserve" fill="#4f5c61" clip-path="url(#b)" font-family="'Open Sans'" font-size="4.8" transform="translate(-203.1 -439.02)scale(1.3333)"><tspan x="0" y="0" font-weight="700">BRAND MANUAL</tspan><tspan x="0" y="6.902">2021.2022</tspan><tspan x="-613.315" y="0" font-weight="700">BRAND MANUAL</tspan><tspan x="-613.315" y="6.902">2021.2022</tspan></text>
  <text xml:space="preserve" fill="#4f5c61" font-family="Carlito" font-size="8" transform="translate(-203.1 -282.87)scale(1.3333)"><tspan x="0" y="0" dx="0 0 0 0 0 0 0 -.048 0 0 0 0 0 0 0 0 0 0 -.128 -.101 0 0 0 0 0 0 0 0 0 0 0 0 0 0 0 0 0 0 0 0 0 .047 0 0 0 0 -.053">The logo as displayed below is our primary logo. </tspan><tspan x="0" y="12" dx="0 0 0 0 0 0 0 0 0 0 0 0 0 0 0 0 0 0 0 0 -.081 0 0 0 0 0 0 0 0 -.088 0 -.112 0 0 0 0 0 0 0 -.138 0 0 -.094 -.148 -.53">This logo should never be altered in any way. </tspan><tspan x="0" y="496.848" dx="0 0 0 -.101 0 0 0 0 0 0 0 0 0 0 0 0 0 0 0 -.081 0 -.071 0 0 -.078 0 0 0 0 0 -.16 0 0 0 0 0 0 0 0 0 -.057 0 0 0 0 0 0 0 0 0 0 0 0 0 0 0 0 0 0 -.057 0 -.106">A tagline is important to a brand in that it embodies the core principles </tspan><tspan x="0" y="508.848" dx="0 0 0 0 0 0 0 0 0 -.159 0 0 0 0 0 0 0 0 0 0 0 0 0 0 0 0 0 0 -.167 -.043 0 0 -.076 0 -.11 0 0 0 0 0 0 0 0 0 0 -.254 0 0 0 -.098">of the brand whithin but a few words. The Naked tagline is </tspan><tspan x="0" y="520.848" dx="0 0 0 0 -.081 0 0 0 0 -.14 0 0 0 0 -.221 0 0 -.762" font-weight="bold">‘live life naked’, </tspan><tspan x="53.052" y="520.848" dx="0 0 0 0 0 0 0 0 0 0 -.076 0 -.091 0 -.112 0 0 0 0 0 0 0 0 -.159 0 0 0 -.486">speaking towards the brand’s </tspan><tspan x="0" y="532.848" dx="0 0 0 -.078 0 -.074 0 0 -.13 0 0 0 0 -.06">adventurous concept.</tspan></text>
  <path fill="#fff" d="M-50.707 82.044h253.714V-53.793H-50.707z"/>
  <path d="m29.2 0-8.646 23.323L15.196 0h-4.728L-.003 28.267h5.468l6.533-17.583 4.104 17.583h8.093L34.668 0zm21.9 0L30.794 28.267h6.146l1.107-1.578H50.2l-.07 1.578h5.693L56.467 0zm-.724 21.81h-8.978l9.526-13.612zM97.9 0h-7.464l-17.7 15.713L78.58 0h-5.658L62.449 28.267h5.658l1.254-3.384 7.438-6.489 2.832 9.873h6.453l-4.098-14.36zm25.5 4.92 1.847-4.93h-20.644L94.131 28.259h5.644l3.586-9.581h13.515l1.785-4.88h-13.514l3.275-8.877zM143.7 0h-11.368l-10.471 28.267h5.633l8.652-23.338h5.707c4.83 0 5.916 2.973 3.331 9.904l-1.49 3.999c-1.975 5.297-4.345 8.309-7.508 9.435h7.946c2.008-2.293 3.717-5.386 5.221-9.435l1.49-3.999C154.564 4.783 151.26 0 143.7 0"/>
</svg>
