<svg xmlns="http://www.w3.org/2000/svg" version="1.0" viewBox="0 0 86 70">
  <path fill="#231f20" d="M66.52 23.87c0 12.98-10.521 23.501-23.5 23.501-12.98 0-23.501-10.521-23.501-23.501C19.519 10.891 30.04.37 43.02.37c12.979 0 23.5 10.521 23.5 23.5M8.28 54.14c-4.71.052-6.864 1.826-6.906 4.563-.085 5.47 10.174 3.202 9.812 5.875-.252 1.877-5.34 1.648-5.53-.282l-4.907.219c.042.509.049 4.49 7.281 4.469 7.806-.023 7.999-3.593 8.063-4.906.252-5.217-9.76-3.395-9.782-5.75-.016-1.573 4.414-1.468 4.563.125l4.906-.282c-.451-3.063-2.965-4.08-7.5-4.03zm13.625.656-4.656.282s-.031 6.27 0 8.656c.089 4.097 4.265 4.753 5 4.75h1.531v-3.22s-1.909.146-1.875-1.53v-2.625l1.813-.032v-2.75l-1.813-.03zm37.719 0-4.719.282v13.438h4.719v-5.594s.096-2.218 2.625-2.22c1.825-.001 2.136 1.25 2.188 1.876.017.208.03.344.03.344v5.593h4.845V61.61s.328-3.927-5.282-4.094c-2.833-.046-4.406 1.657-4.406 1.657zm-22.719.032-5.062.312v8.594c.063 1.53-1.86 1.617-2.313 1.625h-.594v3.156h2.22c1.05.023 5.75-.795 5.75-4.781zm9.031 2.593c-5.305.003-7.937 2.429-7.937 5.5 0 3.073 2.333 5.56 7.937 5.563 5.121.004 7.938-2.49 7.938-5.563 0-3.07-2.453-5.502-7.938-5.5m33.844.094c-2.78-.002-4.312 1.656-4.312 1.656v-1.219l-4.844.375v10.188h4.844v-5.593s.148-2.2 2.5-2.157c2.279.043 2.312 2.22 2.312 2.22v5.53h4.781V61.61c.002.008-.013-4.086-5.28-4.094zm-33.844 2.688c1.959.005 3 1.2 3 2.718s-1.041 2.748-3 2.75c-1.949.003-2.969-1.232-2.969-2.75s.914-2.723 2.97-2.718"/>
  <g fill="#fff">
    <path d="m59.8 16.92-6.761 6.961 6.752 6.959-33.554-13.922 6.624 6.964-6.621 6.959zM36.069 7.072l6.951 6.772 6.95-6.764-13.902 33.606 6.953-6.635 6.948 6.631z"/>
    <path d="M38.65 20.13a1 1 0 0 0-.3-.077c-.004.218-.079.506-.44.47-.274-.027-.585-.392-.585-.392s-.091-.025-.231.01l-.216.162.206.048.177.085.035.094-.188.109-.098.18c.013.011.086-.05.21-.074l.186-.04.099.079-.141.199-.02.18.167-.09.194-.07.07.216c.048.005.194-.178.314-.195.189-.026.384.086.601.06.108-.014.235-.065.361-.139a1.94 1.94 0 0 1-.401-.815m-3.29-4.11c.024-.252.372-.432.372-.432s.058-.147.04-.29c-.018-.127-.11-.254-.13-.253l-.045.215-.092.199-.114-.024s.056-.154.018-.275-.172-.207-.185-.2.02.129.001.243c-.021.128-.093.25-.093.25l-.08-.012s-.017-.157-.086-.272c-.07-.115-.195-.185-.207-.174-.014.011.035.194.023.364-.01.17-.08.326-.08.326l-.17-.012-.17-.12s-.028.262.17.43l.108.18-.151.106s-.064.617.416 1.176a2.5 2.5 0 0 0 .472.426c.008-.48.138-.886.265-1.171-.28-.262-.3-.494-.282-.68"/>
    <path d="M41.01 20.87c-.208-.135-.361-.015-.67-.307-.176-.168-.096-.39-.18-.633l-.108-.279c.143.007.372-.023.494-.252.16-.301-.215-.609-.535-.761-.229-.11-.66-.222-.826-.554-.136-.274.05-.576.352-.489l.11.088c-.436.448.504.887.652.692a.62.62 0 0 1-.287-.475c-.02-.241-.135-.44-.38-.529a.6.6 0 0 0-.378-.002l-.28.187a.6.6 0 0 0-.127.462c.063.573.827.718 1.052.832.255.129.35.286.3.394-.035.08-.127.149-.374.082a1.2 1.2 0 0 0-.336-.228c-.48-.223-.77-.15-.98-.262a.7.7 0 0 1-.303-.381l-.047.004a.92.92 0 0 1-.57-.165l-.032-.028-.242.193c-.403.206-.86.039-.91.019l-.278-.11.112-.277c0-.001.048-.123.066-.336l.002-.064-.012-.131-.131-.015a1.2 1.2 0 0 0-.337.043l-.13.037c-.043.379-.01.823.197 1.294a.89.89 0 0 1-.712.239c-.29-.038-.502-.317-.502-.317s-.135-.038-.253-.02c-.116.017-.2.095-.2.11s.09.017.207.063l.19.085.028.135-.207.116-.11.188c.012.013.094-.05.225-.072l.201-.022.093.114-.162.21-.026.192.181-.091.21-.068.067.232c.05.006.21-.183.338-.197.203-.023.405.104.638.083.162-.016.366-.11.554-.239.3.121.635.161.94.165.503.008.633-.225 1.32.093 0 0 .056.608.536 1.003.46.38 1.094.347 1.094.347s.215.26.032.383c-.198.134-.456-.107-.456-.107l-.236.126-.119.224.191-.059.195.001.078.093.086.06-.072.161.015.179.143-.111.165-.098.155.06s-.031.108-.007.23c.022.123.072.184.092.186l.095-.143.122-.097.082.108.106.072.032-.258s.163-.1.18-.227c.017-.126-.082-.965-.413-1.18"/>
    <path d="M38.07 15.45c.074-.112-.049-.274-.165-.359l-.669-.437-.067.172a.34.34 0 0 0 .042.203c-.164-.005-.437.074-.537.184l.168.117c-.138.088-.44.289-.625.505a2.3 2.3 0 0 0-.362.586l.265.017c-.314.46-.379.87-.379.87s.203-.06.428-.054c.176.005.361.064.361.064s.089.195.066.465-.087.425-.087.425.788.305.98-.438v-.002l.271.292c.169.124.375.109.375.109s-.038-.21.112-.548a1.04 1.04 0 0 1 .295-.385l.147.078.173-.028s-.106-.182-.09-.325.14-.276.167-.583c.018-.21-.077-.313-.077-.313l.143-.041.13-.121-.666-.44c-.058-.035-.298-.16-.399-.013m-.936.004s.173.02.321.075.312.135.312.152c0 .018-.235.19-.478.09-.244-.098-.155-.317-.155-.317m.197 1.041.099-.094-.001-.014-.095-.168.048-.135.003-.002.21.124.047.03.21.124v.004l-.096.106-.194-.003-.012.005-.035.132.161.147-.236.384-.095-.206-.092-.089-.003-.001-.001-.002-.123-.038-.226.013.225-.39zm.474.637c-.134.22-.093.403-.121.423l-.24-.034-.204-.071-.199.085-.211.014v-.003l-.003.003-.088-.194-.02-.215-.159-.146-.145-.194c.004-.035.186-.086.315-.308.075-.128.169-.503.191-.503.023-.002.075.182-.024.471-.098.29-.247.364-.247.364l.085.11.142.118s-.015.067.003.198c.017.13.045.135.045.135v.001h.001s.018.021.141-.025.175-.092.175-.092l.172.068.137.024s-.005-.166.203-.391c.206-.225.392-.266.402-.245.011.02-.274.28-.351.407m.365-.836c-.204-.167-.163-.459-.151-.462s.167.097.285.201.218.246.218.246-.15.183-.352.015m8.65 11.974c.044.124.064.219.067.301-.218-.001-.507.064-.483.428.018.274.373.596.373.596s.022.091-.018.23l-.168.213c-.012-.002-.003-.095-.041-.21l-.08-.18-.092-.037-.114.185-.184.092c-.011-.013.053-.084.08-.208l.046-.185-.076-.1-.204.135-.181.014.096-.165.075-.191-.212-.078c-.004-.047.182-.187.203-.307.034-.188-.073-.387-.04-.603a1 1 0 0 1 .15-.356c.284.257.608.375.803.426m4.01 3.42c.254-.016.445-.359.445-.359s.147-.052.289-.028c.127.02.251.116.25.135l-.217.038-.2.087.02.115s.155-.053.274-.01.203.178.194.192c-.008.013-.129-.024-.243-.009-.128.017-.252.084-.252.084l.009.083.27.093.168.213c-.012.012-.193-.041-.363-.036s-.33.07-.33.07l.007.17.115.175s-.262.02-.425-.183l-.176-.115-.111.149s-.619.044-1.163-.454a2.5 2.5 0 0 1-.411-.486c.48.009.89-.109 1.179-.228.254.289.485.315.671.304"/>
    <path d="m49.32 30.84-.013-.13-.193-.016c-.213.011-.338.056-.339.056l-.283.104-.098-.281a1.4 1.4 0 0 1-.069-.425c0-.308.121-.547.325-.714l-.035-.04a.9.9 0 0 1-.15-.506l.002-.07.004-.048a.7.7 0 0 1-.37-.312c-.106-.215-.024-.503-.23-.99a1.2 1.2 0 0 0-.217-.343c-.06-.249.012-.339.093-.372.11-.047.264.055.384.313.108.229.228.997.799 1.078a.595.595 0 0 0 .671-.765c-.081-.248-.276-.369-.516-.396a.62.62 0 0 1-.466-.302c-.2.142.208 1.095.672.673l.084.114c.077.305-.231.48-.5.336-.326-.176-.425-.611-.528-.844-.142-.324-.438-.709-.745-.559-.232.115-.27.343-.267.487l-.276-.117c-.239-.091-.464-.017-.627-.2-.283-.317-.157-.467-.286-.678-.205-.34-1.041-.464-1.169-.452s-.23.174-.23.174l-.26.023.07.11.104.084-.101.12-.146.09c.002.02.062.072.183.098a.6.6 0 0 0 .23-.001l.055.157-.102.163-.115.138.177.022.163-.068.059.089.088.08-.005.196-.063.188.227-.112.133-.23s-.232-.267-.093-.46c.129-.18.383.043.383.043s-.052.634.312 1.105c.38.493.986.568.986.568.297.697.06.818.052 1.32-.005.307.023.644.136.947-.135.185-.235.385-.256.547-.03.232.092.438.062.64-.019.128-.212.282-.207.333l.23.075-.074.206-.098.179.193-.021.215-.154.111.096-.03.199c-.025.132-.09.211-.077.224l.19-.104.125-.205.133.034.078.192c.044.12.044.209.057.209.015 0 .097-.08.118-.198.021-.116-.014-.25-.014-.25s-.272-.223-.3-.513a.88.88 0 0 1 .261-.705c.465.221.907.268 1.288.237l.041-.129a1.2 1.2 0 0 0 .054-.337"/>
    <path d="m51.48 28.6-.419-.68-.124.126-.046.141s-.101-.097-.31-.086c-.309.019-.446.139-.589.149-.143.011-.322-.101-.322-.101l-.033.173.073.15a1.05 1.05 0 0 1-.395.282c-.341.14-.55.095-.55.095s-.021.206.097.378c.078.113.18.21.284.28h-.002c-.749.17-.469.968-.469.968s.156-.061.427-.075.464.08.464.08.053.187.051.364c0 .225-.067.426-.067.426s.414-.053.884-.353l.007.267s.301-.108.598-.344c.221-.179.432-.474.523-.61l.113.174c.112-.098.201-.369.201-.533 0 0 .076.054.201.049l.175-.063-.417-.682c-.083-.119-.239-.245-.353-.175.148-.096.033-.343-.002-.4m-.031 1.336s-.222.081-.313-.165c-.092-.247.086-.476.105-.476.018 0 .093.167.143.317s.065.324.065.324m-.97-.022-.397.212.022-.226-.037-.124v-.001l-.002-.001-.085-.097-.204-.1.391-.225.143.167.134-.032.003-.012.004-.194.11-.092h.003l.118.213.028.05.117.213v.002l-.137.044-.166-.1-.013-.002-.097.096zm-.688-.703c.129-.072.399-.35.419-.339s-.028.197-.259.397-.397.19-.397.19l.018.137.064.174s-.047.05-.097.172-.029.14-.029.14v.002s.005.027.135.048c.13.023.196.01.196.01l.114.145.107.09s.08-.147.372-.237.473-.031.473-.009c0 .023-.378.105-.51.175-.226.123-.283.303-.317.305l-.19-.15-.14-.164-.216-.027-.19-.094.002-.002h-.002l.02-.212.091-.196-.064-.206-.026-.241c.02-.028.203.02.426-.108m.873-.69s.141.105.24.226c.1.122.196.28.192.292s-.297.042-.458-.167c-.16-.207.026-.35.026-.35M47.57 20.16l-.126.196c.185.201.353.421.353.421s.44-.218.914-.26a2 2 0 0 1 .37.01l.073-.11.233.05.023.13.149.054s.182-.04.368-.155c.188-.116.288-.264.288-.264s-.41-.173-.96-.115c-.55.06-.903.087-.903.087s-.023-.245-.065-.498a.9.9 0 0 0-.44.119c-.098.052-.177.177-.277.335m3.72-4.2c-.076-.037-.26.04-.573.245-.212.14-.433.374-.56.528l.238.27.135.263c.162-.271.475-.711.639-.707.112.001.186.297.232.579l.18.07-.05.235-.087.026.013.16s.13.1.313.192.306.11.306.11-.067-.461-.255-.95c-.187-.487-.494-1.004-.531-1.02"/>
    <path d="M51.27 18.61c-.206-.133-.5-.334-.786-.534l-.304-.17-.232-.076h-.013l-.002.001a.56.56 0 0 1-.287.203l-.207.033-.065.184a.71.71 0 0 1-.505.4l-.282.035-.05-.279-.05-.13-.218.112a.6.6 0 0 1-.463-.069c-.236.342-.655.22-1.256.724 0 0-.104.086-.234.26-.336.108-.447.026-.486-.067-.046-.11.056-.267.32-.388.233-.108 1.011-.228 1.096-.808a.604.604 0 0 0-.775-.682c-.292.095-.335.296-.386.572a.54.54 0 0 1-.324.421c.114.21 1.108-.227.684-.68l.115-.085c.31-.077.489.237.341.51-.181.33-.622.428-.858.532-.33.143-.722.443-.57.753.178.362.622.262.622.262h.008l-.11.236c-.227.561-.43.645-.625.69-.194.045-.29.012-.363.1-.035.042-.126.36-.172.675-.05.326-.064.416-.062.674l.155.076-.05.232-.07.027c.029.132.065.215.065.215s.219.021.429-.095c.21-.115.32-.248.32-.248s-.26-.151-.326-.305-.095-.732.062-.867.717.091 1.328-.339c.61-.43.657-.964 1.025-1.16.645-.344.93.039 1.591-.245.68-.291.859-.706.859-.706s.425.092.883.377c.172.108.332.231.464.345l.041-.037.233.05-.028.215.122.123s.141.03.331-.086c.189-.116.321-.236.321-.236s-.815-.461-1.256-.745"/>
    <path d="m48.59 13.15-.079.086-.568 2.028-.127.052-.151.092a.8.8 0 0 0-.4.065c-.194.09-.28.197-.274.213l.182.027.156.06c-.039.06-.323.536-.074.98.268.478.638.625.675 1.04.015.175-.006.25-.006.25s.121.102.265.062c.144-.041.329-.237.329-.237s.117.076.202.216.109.275.109.275.174-.024.281-.239c.106-.215.036-.415.036-.415s.212.116.404.05c.194-.066.116-.159.311-.21s.465.105.465.105-.065-.586-.563-.824c-.5-.236-.84-.256-.84-.256s-.345.201-.584.219c-.349.025-.518-.123-.518-.123l.064-.14s.203.107.481.028c.279-.078.495-.269.495-.269l.52.001s.082.165.255.139c.174-.025.238-.149.212-.214-.028-.065-.3-.088-.244-.28.067-.225.295-.108.349-.127.055-.02.006-.278-.113-.334-.315-.105-.99-.186-.99-.186l-.197-.099-.18-.02.163-1.916zm.109 2.243.041.213s-.074.085-.262.079c-.19-.006-.25-.054-.24-.082zM39.37 28.33l.195-.129c.204.182.425.349.425.349s-.214.443-.249.916c-.01.134-.002.259.013.37l-.108.075.053.233.13.02.056.149s-.037.182-.151.37-.26.29-.26.29-.179-.408-.125-.958c.052-.551.074-.902.074-.902s-.244-.023-.498-.06c0-.137.023-.268.113-.442.05-.1.176-.18.332-.281m-4.15 3.76c-.039-.075.036-.26.239-.575.136-.214.367-.439.52-.566l.272.234.267.132c-.27.166-.707.484-.702.648.004.112.302.182.582.225l.073.178.233-.052.026-.089.161.014s.1.129.195.31.114.305.114.305-.461-.063-.952-.245c-.49-.181-1.01-.481-1.028-.519"/>
    <path d="M41.75 25.6s-.082-.036-.216-.064l-.024.071-.234.053-.076-.155c-.259.001-.349.019-.674.07-.315.05-.631.146-.672.181-.088.073-.054.169-.097.364s-.123.4-.682.634l-.235.111v-.006s.095-.447-.269-.619c-.312-.149-.606.247-.746.579-.101.236-.194.68-.522.863-.272.152-.588-.023-.514-.333l.083-.117c.46.418.884-.58.673-.692a.54.54 0 0 1-.417.329c-.277.053-.477.098-.57.392a.605.605 0 0 0 .693.768c.579-.092.689-.873.794-1.106.119-.264.274-.37.385-.324.094.037.178.147.073.485a1.6 1.6 0 0 0-.257.236c-.497.608-.37 1.025-.71 1.265.042.069.093.18.093.319l-.019.144-.109.218.132.049.282.048-.035.28a.71.71 0 0 1-.394.51l-.18.065-.033.21a.56.56 0 0 1-.2.288v.014l.077.234.178.305c.2.281.406.572.54.776.288.438.76 1.248.76 1.248s.118-.134.232-.325c.114-.19.083-.332.083-.332l-.125-.12-.215.03-.053-.232.038-.041a4 4 0 0 1-.352-.46c-.29-.455-.387-.878-.387-.878s.412-.184.695-.867c.276-.667-.11-.945.226-1.595.193-.37.726-.424 1.149-1.04s.189-1.173.322-1.332c.133-.157.712-.135.867-.071s.308.322.308.322.132-.112.245-.323.09-.429.09-.429m-6.591 2.07.001.002z"/>
    <path d="m32.38 29.43.1.045 1.914-.186.022.179.102.196s.088.674.197.987c.059.119.315.164.334.109.02-.054-.1-.281.125-.35.19-.059.217.214.282.24s.189-.04.212-.214c.023-.173-.142-.252-.142-.252l-.007-.521s.187-.218.262-.498c.075-.279-.033-.48-.033-.48l.138-.066s.15.166.13.516c-.016.239-.212.585-.212.585s.024.343.267.838c.243.496.83.553.83.553s-.158-.267-.111-.463c.049-.195.143-.12.206-.313.065-.195-.055-.404-.055-.404s.202.068.415-.041c.214-.11.235-.285.235-.285s-.135-.02-.276-.104c-.14-.085-.217-.2-.217-.2s.193-.188.232-.332-.064-.264-.064-.264-.077.023-.25.009c-.417-.033-.567-.4-1.047-.661-.449-.245-.92.045-.98.083l-.063-.153-.028-.183c-.018-.005-.123.081-.21.276a.8.8 0 0 0-.062.402l-.088.152-.052.126-2.02.593zm2.449-.381c.029-.013.076.049.085.237s-.075.264-.075.264l-.215-.039z"/>
  </g>
</svg>
