<svg xmlns="http://www.w3.org/2000/svg" version="1.1" viewBox="0 0 756.48 756.48">
  <g fill="#046de0">
    <path d="M756.43 375.57c-1.435 175.27-143.94 316.91-319.54 316.91-176.49 0-319.57-143.08-319.57-319.57S260.4 53.34 436.89 53.34c156.11 0 286.06 111.95 314 259.94C720.085 135.34 564.97.01 378.23.01 169.33.01-.01 169.35-.01 378.25s169.34 378.24 378.24 378.24 378.24-169.34 378.24-378.24c0-.89-.027-1.777-.033-2.667"/>
    <path d="m650.13 340.13-65.364-86.828H512.55l17.733 44.637h-189.55l40.98-61.759H295.45L190.92 340.13zM443.73 88.71l-23.216-21.291-60.229 57.477h47.057z"/>
    <path d="m483.13 124.89-39.459-36.187-36.388 36.187zm128.4 111.29-69.095-70.319h-23.573l52.937 70.319zm-314.3-70.32-67.261 70.319h65.393l70.709-70.319z"/>
    <path d="m384.13 232.51-2.433 3.668h190.17l-52.937-70.317H366.15l-70.71 70.317h86.262zm-64.8 239.08-9.783-11.617h261.09l-6.114 11.617zm-69.095-66.649h376.66l-9.784 11.007h-366.88zm127.99 127.18h121.49l-59.619 59.924-9.965-9.653-47.823 36.593 54.644 54.385 306.74-303.9h-612.08l238.25 237.13 38.444-45.344z"/>
  </g>
</svg>
